<svg xmlns="http://www.w3.org/2000/svg" xmlns:xlink="http://www.w3.org/1999/xlink" width="200" zoomAndPan="magnify" viewBox="0 0 150 149.999998" height="200" preserveAspectRatio="xMidYMid meet" version="1.0"><defs><clipPath id="e59607cc78"><path d="M 0.546875 53 L 2 53 L 2 55 L 0.546875 55 Z M 0.546875 53 " clip-rule="nonzero"/></clipPath><clipPath id="08fc0ba16a"><path d="M 0.546875 47 L 6 47 L 6 54 L 0.546875 54 Z M 0.546875 47 " clip-rule="nonzero"/></clipPath><clipPath id="3d19ad3413"><path d="M 3 1 L 149.796875 1 L 149.796875 150 L 3 150 Z M 3 1 " clip-rule="nonzero"/></clipPath></defs><path fill="#ffe2d4" d="M 58.421875 2.054688 C 58.402344 1.867188 58.371094 1.667969 58.316406 1.445312 C 58.023438 1.773438 58.125 1.949219 58.421875 2.054688 Z M 58.421875 2.054688 " fill-opacity="1" fill-rule="nonzero"/><path fill="#ffe2d4" d="M 84.128906 1.375 C 84.757812 1.378906 85.386719 1.386719 85.386719 1.386719 C 85.503906 1.410156 85.582031 1.421875 85.628906 1.425781 C 85.644531 1.421875 85.664062 1.421875 85.683594 1.417969 C 85.683594 1.335938 83.269531 0.636719 83.203125 1.371094 C 83.222656 1.371094 83.242188 1.371094 83.269531 1.371094 C 83.503906 1.371094 83.816406 1.375 84.128906 1.375 Z M 84.128906 1.375 " fill-opacity="1" fill-rule="nonzero"/><path fill="#ffe2d4" d="M 72.070312 1.875 C 71.785156 1.757812 71.46875 1.664062 71.136719 1.605469 C 71.402344 1.691406 71.71875 1.785156 72.070312 1.875 Z M 72.070312 1.875 " fill-opacity="1" fill-rule="nonzero"/><path fill="#ffe2d4" d="M 79.035156 2.652344 C 78.546875 2.515625 78.042969 2.40625 77.523438 2.328125 C 77.082031 2.269531 76.628906 2.230469 76.164062 2.226562 C 75.703125 2.242188 75.234375 2.289062 74.757812 2.371094 C 74.757812 2.371094 74.765625 2.382812 74.777344 2.402344 C 75.4375 2.496094 76.125 2.574219 76.820312 2.617188 C 77.5625 2.683594 78.304688 2.6875 79.035156 2.652344 Z M 79.035156 2.652344 " fill-opacity="1" fill-rule="nonzero"/><path fill="#ffe2d4" d="M 68.949219 2.015625 C 69.511719 1.890625 69.882812 1.808594 69.882812 1.808594 C 69.882812 1.808594 69.554688 1.355469 69.222656 0.898438 C 68.886719 0.449219 68.550781 0 68.550781 0 C 65.765625 0.0429688 66.105469 0.800781 66.398438 1.585938 C 66.542969 1.976562 66.667969 2.375 66.402344 2.695312 C 66.570312 2.648438 66.746094 2.605469 66.917969 2.558594 C 67.65625 2.359375 68.398438 2.164062 68.949219 2.015625 Z M 68.949219 2.015625 " fill-opacity="1" fill-rule="nonzero"/><path fill="#ffe2d4" d="M 66.394531 2.703125 C 66.398438 2.703125 66.398438 2.699219 66.402344 2.695312 C 65.84375 2.847656 65.316406 3 64.902344 3.140625 C 64.355469 3.316406 63.992188 3.433594 63.992188 3.433594 C 64.726562 3.359375 65.253906 3.253906 65.636719 3.125 C 66.019531 3.003906 66.257812 2.867188 66.394531 2.703125 Z M 66.394531 2.703125 " fill-opacity="1" fill-rule="nonzero"/><path fill="#ffe2d4" d="M 113.21875 141.90625 C 113.054688 142.136719 112.8125 142.398438 112.542969 142.667969 C 112.828125 142.582031 113.105469 142.472656 113.367188 142.316406 Z M 113.21875 141.90625 " fill-opacity="1" fill-rule="nonzero"/><path fill="#ffe2d4" d="M 112.835938 140.871094 L 113.21875 141.90625 C 113.550781 141.398438 113.566406 141.011719 112.835938 140.871094 Z M 112.835938 140.871094 " fill-opacity="1" fill-rule="nonzero"/><path fill="#ffe2d4" d="M 103.375 145.589844 C 102.617188 146.367188 101.8125 147.074219 101.8125 147.074219 C 102.507812 146.9375 103.667969 146.589844 104.457031 146.074219 C 105.25 145.5625 105.652344 144.894531 104.875 144.066406 C 104.875 144.066406 104.125 144.828125 103.375 145.589844 Z M 103.375 145.589844 " fill-opacity="1" fill-rule="nonzero"/><path fill="#ffe2d4" d="M 126.667969 119.527344 L 125.980469 119.058594 C 126.027344 119.355469 126.1875 119.5625 126.667969 119.527344 Z M 126.667969 119.527344 " fill-opacity="1" fill-rule="nonzero"/><path fill="#ffe2d4" d="M 10.164062 46.371094 C 10.109375 46.214844 10.023438 46.054688 9.894531 45.890625 C 9.894531 45.890625 10 46.078125 10.164062 46.371094 Z M 10.164062 46.371094 " fill-opacity="1" fill-rule="nonzero"/><path fill="#ffe2d4" d="M 75.640625 147.449219 L 75.554688 147.332031 C 75.550781 147.382812 75.578125 147.417969 75.640625 147.449219 Z M 75.640625 147.449219 " fill-opacity="1" fill-rule="nonzero"/><path fill="#ffe2d4" d="M 115.042969 15.6875 C 115.238281 15.492188 115.371094 15.359375 115.371094 15.359375 C 115.207031 15.445312 115.109375 15.558594 115.042969 15.6875 Z M 115.042969 15.6875 " fill-opacity="1" fill-rule="nonzero"/><path fill="#ffe2d4" d="M 145.476562 93.082031 C 145.433594 93.085938 145.394531 93.085938 145.351562 93.089844 C 145.347656 93.15625 145.34375 93.21875 145.34375 93.285156 C 145.386719 93.21875 145.429688 93.152344 145.476562 93.082031 Z M 145.476562 93.082031 " fill-opacity="1" fill-rule="nonzero"/><path fill="#ffe2d4" d="M 144.570312 99.390625 C 144.875 97.546875 145.203125 95.3125 145.339844 93.390625 C 145.339844 93.355469 145.339844 93.320312 145.34375 93.285156 C 144.691406 94.261719 144.398438 95.078125 144.375 95.984375 C 144.351562 96.953125 144.507812 98 144.570312 99.390625 Z M 144.570312 99.390625 " fill-opacity="1" fill-rule="nonzero"/><path fill="#ffe2d4" d="M 139.027344 114.453125 C 139.175781 114.574219 139.339844 114.695312 139.535156 114.8125 C 139.507812 114.371094 139.316406 114.320312 139.027344 114.453125 Z M 139.027344 114.453125 " fill-opacity="1" fill-rule="nonzero"/><path fill="#ffe2d4" d="M 134.859375 113.785156 C 134.859375 113.785156 135.371094 113.066406 135.855469 112.328125 C 136.324219 111.574219 136.792969 110.824219 136.792969 110.824219 C 137.410156 111.679688 137.03125 112.710938 136.570312 113.625 C 136.121094 114.542969 135.6875 115.390625 136.304688 116.039062 C 137.054688 116.269531 138.324219 114.785156 139.027344 114.457031 C 137.796875 113.453125 138.160156 112.449219 138.398438 111.632812 C 138.660156 110.722656 138.738281 110.082031 136.230469 109.980469 C 136.117188 110.195312 136.007812 110.417969 135.902344 110.652344 C 135.535156 111.488281 135.207031 112.480469 134.859375 113.785156 Z M 134.859375 113.785156 " fill-opacity="1" fill-rule="nonzero"/><path fill="#ffe2d4" d="M 138.792969 103 C 138.664062 104.339844 138.425781 105.375 138.132812 106.238281 C 137.90625 106.832031 137.652344 107.34375 137.394531 107.832031 C 137.671875 107.679688 137.96875 107.636719 138.269531 107.59375 C 139.050781 107.476562 139.945312 107.351562 140.570312 104.972656 C 140.570312 104.972656 140.128906 104.472656 139.683594 103.976562 C 139.238281 103.488281 138.792969 103 138.792969 103 Z M 138.792969 103 " fill-opacity="1" fill-rule="nonzero"/><path fill="#ffe2d4" d="M 136.164062 109.976562 C 136.1875 109.976562 136.207031 109.976562 136.230469 109.980469 C 136.507812 109.445312 136.792969 108.960938 137.050781 108.46875 C 137.164062 108.257812 137.28125 108.046875 137.394531 107.832031 C 137.308594 107.882812 137.222656 107.9375 137.140625 108.011719 C 136.777344 108.316406 136.5 108.898438 136.164062 109.976562 Z M 136.164062 109.976562 " fill-opacity="1" fill-rule="nonzero"/><path fill="#ffe2d4" d="M 126.363281 126.882812 C 126.679688 126.542969 126.976562 126.179688 127.257812 125.78125 C 127.257812 125.78125 127.242188 125.777344 127.21875 125.773438 C 126.6875 126.171875 126.148438 126.605469 125.625 127.070312 C 125.050781 127.542969 124.523438 128.070312 124.03125 128.609375 C 124.476562 128.359375 124.90625 128.082031 125.328125 127.769531 C 125.683594 127.5 126.03125 127.203125 126.363281 126.882812 Z M 126.363281 126.882812 " fill-opacity="1" fill-rule="nonzero"/><path fill="#ffe2d4" d="M 129.503906 124.234375 C 129.792969 124.117188 130.082031 123.957031 130.359375 123.765625 C 130.109375 123.886719 129.820312 124.050781 129.503906 124.234375 Z M 129.503906 124.234375 " fill-opacity="1" fill-rule="nonzero"/><path fill="#ffe2d4" d="M 128.132812 124.441406 C 127.53125 124.316406 127.257812 123.847656 127.585938 122.863281 C 127.585938 122.863281 128.265625 122.84375 128.945312 122.828125 C 129.628906 122.800781 130.316406 122.769531 130.316406 122.769531 C 130.316406 122.769531 130.308594 122.433594 130.300781 121.925781 C 130.292969 121.429688 130.257812 120.75 130.207031 120.078125 C 130.113281 118.730469 129.988281 117.433594 129.988281 117.433594 C 130.015625 118.386719 129.675781 119.171875 129.214844 119.84375 C 128.757812 120.519531 128.109375 121.03125 127.597656 121.53125 C 126.566406 122.53125 125.863281 123.328125 127.25 124.800781 C 127.25 124.800781 126.714844 124.914062 126.179688 125.027344 C 125.652344 125.132812 125.121094 125.238281 125.121094 125.238281 C 125.121094 125.238281 125.652344 125.378906 126.1875 125.515625 C 126.640625 125.628906 127.09375 125.742188 127.21875 125.773438 C 128.039062 125.15625 128.832031 124.632812 129.507812 124.234375 C 129.003906 124.441406 128.515625 124.523438 128.132812 124.441406 Z M 128.132812 124.441406 " fill-opacity="1" fill-rule="nonzero"/><path fill="#ffe2d4" d="M 121.332031 133.113281 C 120.886719 133.554688 120.4375 133.996094 120.4375 133.996094 C 120.335938 134.0625 120.277344 134.105469 120.238281 134.136719 C 120.226562 134.152344 120.214844 134.167969 120.203125 134.179688 C 120.261719 134.242188 122.464844 133.03125 121.992188 132.457031 C 121.976562 132.476562 121.960938 132.488281 121.945312 132.507812 C 121.777344 132.671875 121.554688 132.894531 121.332031 133.113281 Z M 121.332031 133.113281 " fill-opacity="1" fill-rule="nonzero"/><path fill="#ffe2d4" d="M 134.113281 117.421875 C 133.652344 117.992188 133.351562 118.441406 133.171875 118.800781 C 132.988281 119.160156 132.914062 119.421875 132.933594 119.636719 C 132.933594 119.636719 132.9375 119.640625 132.9375 119.644531 C 133.222656 119.144531 133.488281 118.664062 133.679688 118.269531 C 133.941406 117.761719 134.113281 117.421875 134.113281 117.421875 Z M 134.113281 117.421875 " fill-opacity="1" fill-rule="nonzero"/><path fill="#ffe2d4" d="M 133.722656 120.429688 C 133.34375 120.253906 132.976562 120.058594 132.9375 119.644531 C 132.847656 119.796875 132.757812 119.953125 132.667969 120.109375 C 132.285156 120.769531 131.902344 121.433594 131.613281 121.929688 C 131.304688 122.414062 131.101562 122.734375 131.101562 122.734375 C 131.101562 122.734375 131.65625 122.824219 132.210938 122.910156 C 132.765625 122.992188 133.320312 123.074219 133.320312 123.074219 C 135.261719 121.070312 134.484375 120.777344 133.722656 120.429688 Z M 133.722656 120.429688 " fill-opacity="1" fill-rule="nonzero"/><g clip-path="url(#e59607cc78)"><path fill="#ffe2d4" d="M 1.394531 54.3125 C 1.347656 54.035156 1.332031 53.679688 1.332031 53.296875 C 1.191406 53.558594 1.070312 53.832031 0.996094 54.128906 Z M 1.394531 54.3125 " fill-opacity="1" fill-rule="nonzero"/></g><path fill="#ffe2d4" d="M 2.398438 54.773438 L 1.394531 54.3125 C 1.515625 54.910156 1.78125 55.195312 2.398438 54.773438 Z M 2.398438 54.773438 " fill-opacity="1" fill-rule="nonzero"/><g clip-path="url(#08fc0ba16a)"><path fill="#ffe2d4" d="M 4.558594 50.242188 C 5.519531 49.503906 5.898438 48.859375 4.421875 47.703125 C 4.421875 47.703125 3.972656 48.492188 3.523438 49.28125 C 3.300781 49.675781 3.078125 50.074219 2.910156 50.371094 C 2.742188 50.667969 2.636719 50.867188 2.636719 50.867188 C 1.261719 50.160156 0.574219 49.800781 1.761719 47.816406 C 0.957031 48.035156 0.835938 50.277344 0.671875 51.464844 L 1.160156 50.753906 C 1.371094 51.398438 1.324219 52.421875 1.332031 53.296875 C 2.085938 51.84375 3.574219 50.964844 4.558594 50.242188 Z M 4.558594 50.242188 " fill-opacity="1" fill-rule="nonzero"/></g><path fill="#ffe2d4" d="M 5.765625 46.886719 C 5.765625 46.886719 5.757812 45.816406 5.75 44.75 C 5.738281 43.664062 5.804688 42.59375 5.804688 42.59375 C 5.410156 43.179688 4.832031 44.246094 4.640625 45.167969 C 4.441406 46.09375 4.628906 46.851562 5.765625 46.886719 Z M 5.765625 46.886719 " fill-opacity="1" fill-rule="nonzero"/><path fill="#ffe2d4" d="M 9.867188 43.765625 C 10.257812 43.167969 10.671875 42.628906 10.660156 41.933594 C 9.675781 42.554688 9.699219 42.164062 9.984375 41.484375 C 10.277344 40.804688 10.824219 39.84375 10.820312 39.320312 C 7.390625 41.988281 10.714844 41.503906 9.867188 43.765625 Z M 9.867188 43.765625 " fill-opacity="1" fill-rule="nonzero"/><path fill="#ffe2d4" d="M 9.867188 43.765625 C 9.6875 44.042969 9.515625 44.34375 9.417969 44.679688 C 9.640625 44.328125 9.765625 44.035156 9.867188 43.765625 Z M 9.867188 43.765625 " fill-opacity="1" fill-rule="nonzero"/><path fill="#ffe2d4" d="M 24.046875 23.820312 L 24.1875 23.84375 C 24.160156 23.804688 24.109375 23.800781 24.046875 23.820312 Z M 24.046875 23.820312 " fill-opacity="1" fill-rule="nonzero"/><g clip-path="url(#3d19ad3413)"><path fill="#ffe2d4" d="M 148.921875 71.035156 C 148.605469 70.179688 148.242188 69.171875 148 68.199219 C 147.761719 67.226562 147.714844 66.273438 148.140625 65.480469 L 146.628906 65.765625 C 146.621094 65.660156 146.609375 65.558594 146.601562 65.453125 C 146.472656 63.648438 146.386719 62.503906 146.398438 61.730469 C 146.382812 60.917969 146.433594 60.519531 146.503906 60.15625 C 146.578125 59.792969 146.660156 59.472656 146.671875 58.816406 C 146.679688 58.488281 146.667969 58.074219 146.628906 57.53125 C 146.570312 56.992188 146.476562 56.320312 146.332031 55.472656 C 146.332031 55.472656 145.761719 55.140625 145.191406 54.8125 C 145.03125 54.71875 144.875 54.632812 144.726562 54.546875 C 144.628906 54.179688 144.53125 53.808594 144.429688 53.441406 C 144.4375 53.433594 144.445312 53.421875 144.453125 53.414062 C 144.390625 53.230469 144.320312 53.046875 144.257812 52.863281 C 143.25 49.429688 141.964844 46.121094 140.421875 42.957031 C 140.175781 42.15625 139.8125 41.34375 139.234375 40.578125 C 139.234375 40.578125 139.246094 40.628906 139.265625 40.699219 C 138.492188 39.265625 137.664062 37.859375 136.789062 36.492188 C 136.878906 36.414062 136.96875 36.320312 137.050781 36.1875 C 136.476562 35.34375 135.804688 34.605469 135.074219 33.953125 C 129.789062 26.53125 122.949219 20.292969 115.03125 15.707031 C 115.035156 15.703125 115.042969 15.695312 115.042969 15.6875 C 115.039062 15.695312 115.035156 15.699219 115.027344 15.707031 C 114.398438 15.339844 113.757812 14.988281 113.113281 14.644531 C 113.347656 14.378906 113.609375 14.109375 113.875 13.835938 C 115.230469 12.4375 116.632812 10.9375 113.886719 9.769531 C 114.9375 11.054688 114.441406 12.1875 113.515625 12.851562 C 112.574219 13.519531 111.246094 13.6875 110.386719 13.066406 C 110.398438 13.125 110.402344 13.195312 110.394531 13.277344 C 110.019531 13.097656 109.640625 12.921875 109.257812 12.75 C 110.167969 12.441406 110.332031 11.863281 110.003906 11.273438 C 109.652344 10.640625 108.746094 9.988281 107.679688 9.777344 C 108.117188 9.980469 108.472656 10.222656 108.746094 10.492188 C 109.011719 10.773438 109.199219 11.066406 109.308594 11.355469 C 109.503906 11.871094 109.433594 12.355469 109.144531 12.699219 C 108.570312 12.441406 107.992188 12.195312 107.410156 11.957031 C 107.285156 11.863281 107.160156 11.777344 107.035156 11.683594 C 107.21875 11.609375 107.425781 11.472656 107.660156 11.25 C 108.296875 10.183594 107.210938 9 105.664062 7.863281 C 104.882812 7.3125 104 6.75 103.179688 6.207031 C 102.351562 5.691406 101.589844 5.171875 101.074219 4.640625 C 99.964844 4.492188 99.355469 4.683594 98.925781 4.992188 C 98.492188 5.3125 98.214844 5.804688 97.742188 6.414062 C 97.628906 5.691406 97.058594 5.070312 96.464844 4.511719 C 95.867188 3.945312 95.257812 3.378906 95.09375 2.648438 C 93.867188 2.902344 92.84375 2.914062 91.90625 2.761719 C 90.96875 2.601562 90.121094 2.273438 89.257812 2.015625 C 88.398438 1.75 87.527344 1.46875 86.578125 1.398438 C 86.289062 1.382812 85.988281 1.394531 85.683594 1.417969 C 85.683594 1.425781 85.664062 1.429688 85.628906 1.425781 C 84.949219 1.488281 84.234375 1.648438 83.460938 1.984375 C 83.261719 1.714844 83.1875 1.515625 83.203125 1.375 C 83.007812 1.378906 82.875 1.382812 82.875 1.382812 L 83.140625 1.683594 C 82.292969 2.183594 81.28125 2.457031 80.199219 2.566406 C 79.820312 2.605469 79.429688 2.632812 79.035156 2.652344 C 79.378906 2.75 79.71875 2.859375 80.050781 2.996094 C 80.277344 3.09375 80.496094 3.207031 80.714844 3.308594 C 80.097656 3.367188 79.316406 3.46875 78.535156 3.558594 C 77.425781 3.675781 76.328125 3.847656 75.699219 3.953125 C 75.597656 3.777344 75.460938 3.546875 75.324219 3.316406 C 75.085938 2.914062 74.84375 2.515625 74.777344 2.402344 C 73.761719 2.257812 72.828125 2.070312 72.070312 1.875 C 72.570312 2.082031 72.976562 2.371094 73.191406 2.699219 C 73.347656 2.9375 73.394531 3.179688 73.316406 3.414062 C 73.144531 3.425781 72.976562 3.4375 72.804688 3.445312 C 72.445312 3.472656 72.082031 3.480469 71.722656 3.5 C 71.640625 3.421875 71.558594 3.34375 71.476562 3.265625 C 70.96875 2.800781 70.464844 2.335938 70.464844 2.335938 C 70.464844 2.335938 70.230469 2.578125 69.878906 2.945312 C 69.699219 3.128906 69.488281 3.355469 69.265625 3.601562 C 68.03125 3.648438 66.808594 3.726562 65.613281 3.773438 C 64.066406 3.886719 62.574219 4.042969 61.191406 4.28125 C 60.042969 4.519531 58.972656 4.800781 58.019531 5.183594 C 58.433594 4.808594 59.003906 4.570312 59.574219 4.382812 C 60.539062 4.050781 61.449219 3.757812 61.472656 2.859375 C 61.101562 2.167969 59.152344 2.320312 58.421875 2.054688 C 58.585938 3.636719 57.621094 4.089844 56.875 4.496094 C 56.121094 4.910156 55.636719 5.28125 56.820312 6.722656 C 56.742188 6.96875 56.75 7.171875 56.929688 7.292969 C 56.46875 7.433594 56.023438 7.550781 55.589844 7.6875 C 55.359375 7.753906 55.128906 7.824219 54.898438 7.894531 C 54.992188 7.921875 55.09375 7.941406 55.203125 7.949219 C 55.640625 7.984375 56.199219 7.800781 57.070312 7.359375 C 57.367188 7.453125 57.914062 7.429688 58.859375 7.210938 C 57.742188 8.316406 56.285156 8.695312 54.695312 8.714844 C 54.09375 8.753906 53.472656 8.738281 52.847656 8.710938 C 52.984375 8.640625 53.117188 8.5625 53.246094 8.5 C 53.828125 8.242188 54.371094 8.058594 54.898438 7.894531 C 54.589844 7.808594 54.351562 7.628906 54.109375 7.445312 C 53.472656 6.976562 52.753906 6.4375 50.628906 7.675781 C 50.628906 7.675781 50.601562 8.109375 50.574219 8.625 C 50.371094 8.621094 50.164062 8.609375 49.972656 8.617188 C 49.972656 8.617188 50.074219 8.445312 50.226562 8.1875 C 50.378906 7.921875 50.589844 7.585938 50.804688 7.253906 C 51.242188 6.582031 51.679688 5.914062 51.679688 5.914062 C 47.828125 7.234375 43.40625 8.128906 39.214844 9.640625 C 35.039062 11.125 31.109375 13.179688 28.613281 16.125 L 30.613281 16.710938 C 30.28125 16.992188 29.945312 17.261719 29.601562 17.523438 C 29.269531 17.792969 28.9375 18.066406 28.597656 18.324219 C 27.921875 18.839844 27.234375 19.324219 26.546875 19.789062 C 25.207031 20.757812 23.84375 21.625 22.609375 22.5 C 21.394531 23.398438 20.222656 24.214844 19.308594 25.101562 C 18.386719 25.980469 17.652344 26.84375 17.210938 27.734375 C 19.898438 26.917969 19.535156 27.832031 18.5 29.09375 C 18.253906 29.421875 17.964844 29.769531 17.664062 30.125 C 17.5625 30.171875 17.460938 30.210938 17.351562 30.242188 L 17.488281 30.335938 C 16.628906 31.347656 15.746094 32.359375 15.640625 32.929688 C 16.128906 32.542969 16.621094 32.105469 17.113281 31.644531 C 17.425781 31.347656 17.726562 31.03125 18.027344 30.703125 L 18.625 31.113281 C 17.316406 32.625 16.519531 33.554688 15.933594 34.125 C 15.367188 34.710938 15.050781 34.960938 14.742188 35.164062 C 14.4375 35.371094 14.148438 35.539062 13.675781 35.992188 C 13.4375 36.222656 13.152344 36.519531 12.796875 36.933594 C 12.457031 37.355469 12.050781 37.898438 11.550781 38.597656 C 11.550781 38.597656 11.722656 39.238281 11.890625 39.875 C 11.980469 40.191406 12.066406 40.503906 12.132812 40.742188 C 12.203125 40.976562 12.253906 41.136719 12.253906 41.136719 C 12.390625 41.355469 12.554688 39.816406 12.957031 38.328125 C 13.335938 36.828125 14.082031 35.460938 15.066406 36.03125 C 14.992188 36.585938 14.878906 37.144531 14.746094 37.710938 C 14.621094 38.28125 14.488281 38.867188 14.332031 39.453125 C 14.175781 40.039062 14.007812 40.628906 13.832031 41.226562 C 13.664062 41.824219 13.519531 42.4375 13.363281 43.046875 C 13.210938 43.660156 13.0625 44.273438 12.925781 44.886719 C 12.800781 45.503906 12.71875 46.125 12.640625 46.742188 C 12.570312 47.359375 12.523438 47.972656 12.507812 48.574219 C 12.5 49.179688 12.554688 49.789062 12.632812 50.375 C 12.632812 50.375 11.902344 49.289062 11.21875 48.164062 C 10.8125 47.496094 10.417969 46.808594 10.164062 46.371094 C 10.484375 47.242188 9.753906 48.011719 8.84375 49.054688 C 8.296875 49.664062 7.667969 50.359375 7.125 51.191406 C 6.613281 52.03125 6.195312 53.011719 6.039062 54.152344 C 6.039062 54.152344 6.574219 53.265625 7.105469 52.382812 C 7.378906 51.945312 7.632812 51.507812 7.847656 51.183594 C 8.0625 50.867188 8.207031 50.652344 8.207031 50.652344 C 8.8125 51.660156 9.03125 52.820312 8.953125 54.070312 C 8.855469 55.316406 8.597656 56.6875 8.277344 58.113281 C 8.195312 58.46875 8.113281 58.832031 8.027344 59.191406 C 7.960938 59.558594 7.894531 59.921875 7.828125 60.289062 C 7.699219 61.027344 7.585938 61.765625 7.515625 62.496094 C 7.382812 63.960938 7.488281 65.394531 7.910156 66.671875 C 8.027344 65.308594 8.15625 63.949219 9.25 63.828125 C 9.347656 63.949219 9.417969 64.09375 9.480469 64.246094 C 9.476562 64.757812 9.507812 64.855469 9.625 64.789062 C 9.710938 65.335938 9.671875 65.980469 9.554688 66.660156 C 9.378906 67.8125 9.039062 69.054688 8.691406 69.980469 C 8.546875 69.953125 8.414062 69.910156 8.285156 69.855469 C 8.140625 68.945312 8.207031 68.046875 8.832031 66.808594 C 8.832031 66.808594 8.285156 66.898438 7.738281 66.988281 C 7.191406 67.082031 6.644531 67.179688 6.644531 67.179688 C 6.65625 67.390625 6.679688 67.597656 6.699219 67.800781 C 6.699219 67.800781 6.695312 67.796875 6.695312 67.796875 C 6.277344 66.640625 6.214844 65.179688 6.117188 63.777344 C 5.992188 60.980469 6.113281 58.402344 4.480469 58.800781 C 4.195312 60.28125 4.207031 61.753906 4.449219 63.15625 C 4.714844 64.566406 5.121094 65.902344 5.5625 67.136719 C 6.03125 68.375 6.488281 69.519531 6.765625 70.566406 C 7.0625 71.617188 7.210938 72.574219 6.988281 73.46875 C 6.988281 73.46875 6.402344 72.761719 5.816406 72.054688 C 5.523438 71.691406 5.234375 71.328125 5.011719 71.054688 C 4.789062 70.78125 4.65625 70.597656 4.65625 70.597656 C 4.65625 70.597656 4.695312 70.777344 4.773438 71.046875 C 4.847656 71.3125 4.945312 71.667969 5.046875 72.027344 C 5.246094 72.734375 5.445312 73.441406 5.445312 73.441406 L 5.589844 72.601562 C 6.53125 73.183594 6.480469 74.078125 6.335938 75.121094 C 6.203125 76.164062 5.929688 77.367188 6.3125 78.464844 C 6.3125 78.464844 5.710938 78.140625 5.109375 77.816406 C 4.507812 77.480469 3.90625 77.144531 3.90625 77.144531 C 3.90625 77.144531 3.921875 77.414062 3.949219 77.816406 C 3.980469 78.21875 3.996094 78.757812 4.0625 79.292969 C 4.183594 80.367188 4.300781 81.441406 4.300781 81.441406 L 4.851562 80.820312 C 6.710938 87.539062 7.816406 93.230469 8.710938 99.640625 C 8.710938 99.640625 8.683594 99.402344 8.640625 99.046875 C 8.605469 98.6875 8.535156 98.21875 8.507812 97.738281 C 8.445312 96.789062 8.378906 95.835938 8.378906 95.835938 C 8.917969 95.984375 9.640625 97.828125 9.984375 99.511719 C 10.550781 99.015625 10.277344 97.777344 10.148438 96.605469 C 10.019531 95.640625 9.914062 94.765625 10.246094 94.476562 C 10.542969 96.164062 10.910156 97.839844 11.34375 99.503906 C 11.367188 99.894531 11.382812 100.28125 11.390625 100.667969 C 11.410156 101.5625 11.464844 102.445312 11.574219 103.496094 C 11.628906 104.019531 11.703125 104.585938 11.816406 105.203125 C 11.949219 105.808594 12.113281 106.472656 12.328125 107.207031 C 12.726562 107.253906 13.027344 106.597656 13.394531 105.941406 C 13.8125 107.046875 14.265625 108.136719 14.746094 109.222656 C 14.382812 109.476562 13.8125 109.457031 12.820312 108.886719 C 14.488281 110.390625 14.546875 111.265625 14.652344 112.023438 C 14.761719 112.769531 14.960938 113.375 16.847656 114.164062 C 16.523438 113.886719 16.289062 113.300781 16.058594 112.714844 C 16.109375 112.550781 16.171875 112.4375 16.242188 112.351562 C 17.03125 113.890625 17.886719 115.40625 18.808594 116.894531 C 18.832031 118.15625 19.078125 119.425781 20.128906 121.074219 C 20.128906 121.074219 20.453125 121.351562 20.941406 121.773438 C 21.429688 122.191406 22.117188 122.714844 22.785156 123.242188 C 23.296875 123.65625 23.816406 124.054688 24.265625 124.386719 C 24.609375 124.796875 24.964844 125.203125 25.324219 125.609375 C 25.148438 125.746094 24.921875 125.785156 24.921875 125.785156 C 25.550781 126.296875 26.15625 126.832031 26.753906 127.378906 C 27.371094 127.90625 27.972656 128.449219 28.558594 129.003906 C 28.65625 129.097656 28.757812 129.183594 28.855469 129.277344 C 28.996094 129.410156 29.136719 129.546875 29.28125 129.679688 C 29.324219 129.984375 29.511719 130.28125 29.945312 130.519531 C 30.121094 130.609375 30.277344 130.679688 30.417969 130.730469 C 30.4375 130.746094 30.453125 130.757812 30.46875 130.773438 C 31.011719 131.261719 31.550781 131.746094 32.074219 132.230469 C 33.246094 133.246094 34.414062 134.191406 35.558594 135 C 35.976562 135.273438 36.386719 135.523438 36.796875 135.761719 C 38.453125 136.90625 40.148438 137.964844 41.878906 138.929688 C 41.878906 138.945312 41.882812 138.957031 41.882812 138.96875 C 42.023438 139.039062 42.175781 139.101562 42.324219 139.171875 C 43.058594 139.574219 43.796875 139.964844 44.546875 140.335938 C 43.941406 140.464844 43.4375 140.570312 43.4375 140.570312 C 47.097656 142.359375 50.855469 144.855469 54.886719 146.746094 C 58.890625 148.648438 63.121094 149.976562 66.96875 149.660156 L 65.96875 147.828125 C 66.402344 147.867188 66.832031 147.914062 67.257812 147.96875 C 67.6875 148.015625 68.113281 148.058594 68.535156 148.117188 C 69.378906 148.226562 70.207031 148.371094 71.023438 148.53125 C 72.65625 148.792969 74.230469 149.140625 75.722656 149.394531 C 77.21875 149.617188 78.625 149.871094 79.894531 149.890625 C 81.167969 149.917969 82.300781 149.828125 83.238281 149.511719 C 80.761719 148.1875 81.664062 147.796875 83.292969 147.640625 C 84.925781 147.40625 87.347656 147.414062 88.027344 146.949219 C 87.40625 146.878906 86.75 146.835938 86.074219 146.8125 C 85.402344 146.800781 84.707031 146.824219 84.011719 146.875 C 82.617188 146.984375 81.214844 147.078125 79.957031 147.242188 C 77.78125 147.460938 76.03125 147.640625 75.640625 147.445312 L 75.792969 147.65625 C 75.792969 147.65625 75.222656 147.71875 74.367188 147.75 C 73.507812 147.789062 72.359375 147.847656 71.203125 147.882812 C 70.042969 147.875 68.882812 147.867188 68.011719 147.863281 C 67.574219 147.863281 67.210938 147.851562 66.957031 147.835938 C 66.703125 147.820312 66.558594 147.8125 66.558594 147.8125 L 66.851562 146.695312 C 74.375 147.40625 82 146.785156 89.347656 144.824219 C 89.351562 144.832031 89.351562 144.839844 89.351562 144.847656 C 89.351562 144.839844 89.351562 144.832031 89.351562 144.824219 C 90.058594 144.636719 90.757812 144.433594 91.457031 144.21875 C 91.480469 144.574219 91.484375 144.949219 91.492188 145.332031 C 91.519531 147.277344 91.589844 149.332031 94.355469 148.214844 C 92.703125 148.046875 92.253906 146.898438 92.441406 145.773438 C 92.632812 144.636719 93.453125 143.574219 94.5 143.40625 C 94.453125 143.375 94.398438 143.324219 94.34375 143.265625 C 94.738281 143.125 95.132812 142.984375 95.523438 142.832031 C 95.097656 143.695312 95.386719 144.21875 96.039062 144.402344 C 96.582031 144.558594 97.367188 144.480469 98.117188 144.15625 C 98.992188 144.394531 98.707031 144.636719 98.070312 144.898438 C 97.386719 145.167969 96.320312 145.460938 95.949219 145.835938 C 99.667969 146.300781 98.179688 144.871094 99.113281 143.828125 C 99.777344 143.9375 100.613281 143.886719 101.519531 143.746094 C 102.460938 143.585938 103.480469 143.359375 104.445312 143.164062 C 105.238281 142.976562 105.992188 142.832031 106.65625 142.796875 C 106.398438 143.074219 106.300781 143.570312 106.402344 144.429688 C 106.402344 144.429688 107.277344 144.191406 108.152344 143.949219 C 108.589844 143.828125 109.027344 143.707031 109.359375 143.613281 C 109.6875 143.523438 109.902344 143.457031 109.902344 143.457031 C 110.375 144.929688 110.605469 145.667969 108.363281 146.230469 C 109.085938 146.648438 110.757812 145.148438 111.714844 144.425781 L 110.867188 144.582031 C 111.171875 143.972656 111.933594 143.285156 112.542969 142.664062 C 110.984375 143.152344 109.308594 142.722656 108.105469 142.539062 C 107.839844 142.503906 107.597656 142.488281 107.382812 142.503906 C 108.011719 141.945312 108.238281 141.460938 108.316406 141.011719 C 108.394531 140.476562 108.242188 139.933594 108.144531 139.167969 C 108.738281 139.601562 109.578125 139.636719 110.394531 139.613281 C 111.214844 139.589844 112.050781 139.558594 112.679688 139.957031 C 113.371094 138.910156 114.085938 138.179688 114.859375 137.625 C 115.628906 137.074219 116.464844 136.707031 117.253906 136.277344 C 118.054688 135.859375 118.867188 135.445312 119.585938 134.824219 C 119.800781 134.628906 120.007812 134.410156 120.207031 134.171875 C 120.199219 134.167969 120.210938 134.15625 120.238281 134.128906 C 120.675781 133.605469 121.066406 132.988281 121.375 132.203125 C 121.710938 132.253906 121.898438 132.339844 121.992188 132.453125 C 122.125 132.308594 122.214844 132.214844 122.214844 132.214844 L 121.8125 132.191406 C 122.0625 131.238281 122.582031 130.332031 123.273438 129.484375 C 123.511719 129.1875 123.769531 128.894531 124.03125 128.601562 C 123.71875 128.777344 123.402344 128.9375 123.074219 129.074219 C 121.460938 129.722656 119.84375 130.09375 118.242188 130.273438 C 117.273438 130.398438 116.359375 130.492188 115.503906 130.605469 C 116.261719 129.917969 117.007812 129.210938 117.738281 128.484375 C 118.179688 128.792969 118.605469 129.089844 118.605469 129.089844 C 119.296875 128.300781 119.886719 127.484375 120.417969 126.644531 C 120.925781 125.828125 121.351562 124.945312 121.78125 124.070312 C 123.191406 122.382812 124.496094 120.644531 125.703125 118.855469 L 125.984375 119.050781 C 125.953125 118.84375 126.363281 118.300781 127.03125 117.453125 C 127.371094 117.03125 127.785156 116.546875 128.257812 116.007812 C 128.710938 115.453125 129.21875 114.832031 129.765625 114.164062 C 129.785156 114.144531 129.800781 114.121094 129.816406 114.097656 C 134.519531 109.039062 138.40625 103.21875 141.273438 96.835938 C 141.292969 96.820312 141.3125 96.804688 141.335938 96.792969 C 141.664062 96.5625 141.988281 96.320312 142.195312 96.371094 C 142.402344 96.421875 142.5 96.773438 142.273438 97.707031 C 142.304688 98.246094 142.613281 96.863281 142.644531 95.269531 C 142.675781 94.707031 142.667969 94.121094 142.621094 93.589844 C 142.808594 93.105469 142.988281 92.617188 143.164062 92.125 C 143.476562 92.796875 144.125 93.171875 145.351562 93.082031 C 145.425781 91.289062 145.34375 89.816406 144.859375 89.253906 L 145.292969 89.582031 C 145.292969 89.582031 145.039062 88.730469 144.585938 87.59375 C 144.863281 86.566406 145.121094 85.53125 145.347656 84.488281 C 145.878906 85.433594 146.511719 86 147.433594 85.515625 C 147.433594 85.515625 147.042969 84.6875 146.648438 83.859375 C 146.457031 83.449219 146.242188 83.042969 146.078125 82.738281 C 145.917969 82.4375 145.808594 82.238281 145.808594 82.238281 C 147.671875 83.367188 147.164062 79.054688 148.5625 79.859375 C 148.5625 79.859375 148.542969 79.71875 148.488281 79.472656 C 148.4375 79.226562 148.363281 78.875 148.273438 78.453125 C 148.082031 77.613281 147.886719 76.492188 147.582031 75.390625 C 147.304688 74.339844 147.039062 73.300781 146.804688 72.5 C 146.820312 71.964844 146.828125 71.429688 146.828125 70.890625 L 148.140625 70.535156 C 148.140625 70.535156 147.992188 71.105469 147.847656 71.671875 C 147.773438 71.953125 147.699219 72.234375 147.644531 72.445312 C 147.582031 72.65625 147.539062 72.796875 147.539062 72.796875 C 148.640625 73.3125 149.136719 73.3125 149.285156 72.953125 C 149.445312 72.601562 149.234375 71.890625 148.921875 71.035156 Z M 19.519531 44.273438 C 19.722656 43.667969 19.925781 43.085938 20.070312 42.496094 C 20.101562 42.363281 20.128906 42.234375 20.160156 42.101562 C 20.675781 41.757812 21.144531 41.914062 21.535156 43.109375 C 21.535156 43.109375 20.789062 43.792969 20.039062 44.480469 C 19.648438 44.878906 19.261719 45.269531 18.984375 45.546875 C 19.191406 45.121094 19.375 44.695312 19.519531 44.273438 Z M 20.554688 40.34375 C 20.652344 39.929688 20.75 39.511719 20.851562 39.113281 C 20.933594 38.808594 21.019531 38.507812 21.113281 38.214844 C 21.265625 39.207031 21.015625 39.855469 20.554688 40.34375 Z M 24.050781 41.21875 C 24.339844 41.1875 24.671875 41.242188 25.066406 41.40625 C 24.699219 41.820312 24.339844 42.242188 23.988281 42.664062 C 23.992188 42.402344 23.996094 42.140625 24.011719 41.875 C 24.027344 41.65625 24.039062 41.4375 24.050781 41.21875 Z M 15.199219 55.59375 C 15.300781 54.832031 15.289062 53.976562 15.242188 53.089844 C 15.214844 51.96875 15.117188 50.796875 15.074219 49.742188 C 15.070312 49.609375 15.074219 49.488281 15.074219 49.359375 C 15.230469 49.015625 15.398438 48.714844 15.574219 48.496094 C 15.40625 48.550781 15.25 48.625 15.09375 48.707031 C 15.125 48.101562 15.195312 47.5625 15.335938 47.164062 C 15.449219 47.511719 15.949219 46.804688 16.558594 46.027344 C 17.164062 46.238281 17.78125 45.371094 18.40625 44.367188 C 18.664062 44.410156 18.804688 44.8125 18.742188 45.792969 C 18.660156 45.878906 18.609375 45.929688 18.609375 45.929688 C 18.652344 45.925781 18.691406 45.921875 18.734375 45.921875 C 18.730469 45.976562 18.726562 46.027344 18.71875 46.085938 C 18.75 46.03125 18.773438 45.972656 18.804688 45.917969 C 19.851562 45.855469 20.527344 45.484375 21.046875 44.980469 C 21.601562 44.453125 21.949219 43.75 22.273438 43.082031 C 22.5625 42.492188 22.851562 41.941406 23.242188 41.589844 C 23.226562 41.632812 23.214844 41.671875 23.199219 41.714844 C 23.023438 42.230469 22.867188 42.792969 22.699219 43.347656 C 22.546875 43.851562 22.398438 44.351562 22.257812 44.828125 C 21.992188 45.175781 21.730469 45.523438 21.472656 45.875 C 21.398438 45.898438 21.332031 45.914062 21.28125 45.917969 C 21.28125 45.992188 21.289062 46.054688 21.304688 46.109375 C 19.054688 49.21875 17.121094 52.484375 15.503906 55.859375 C 15.390625 55.78125 15.292969 55.691406 15.199219 55.59375 Z M 145.53125 56.660156 C 146.269531 57.898438 146.703125 59.285156 145.859375 59.699219 C 145.632812 58.417969 145.367188 57.152344 145.066406 55.898438 C 145.222656 56.140625 145.378906 56.394531 145.53125 56.660156 Z M 106.988281 11.785156 C 106.949219 11.769531 106.910156 11.75 106.867188 11.734375 C 106.886719 11.730469 106.902344 11.730469 106.921875 11.726562 C 106.945312 11.746094 106.964844 11.765625 106.988281 11.785156 Z M 105.40625 10.472656 C 105.332031 10.414062 105.253906 10.359375 105.175781 10.300781 C 105.175781 10.300781 105.273438 10.375 105.421875 10.496094 C 105.472656 10.566406 105.523438 10.644531 105.574219 10.71875 C 105.734375 10.972656 105.898438 11.230469 106.078125 11.425781 C 105.332031 11.136719 104.578125 10.863281 103.820312 10.601562 C 104.542969 9.558594 104.996094 9.890625 105.40625 10.472656 Z M 75.472656 3.988281 C 75.277344 4.023438 75.164062 4.042969 75.164062 4.042969 C 75.082031 3.941406 75.0625 3.828125 75.066406 3.71875 C 75.207031 3.816406 75.347656 3.910156 75.472656 3.988281 Z M 74.066406 3.070312 C 74.066406 3.070312 74.238281 3.179688 74.476562 3.335938 C 74.335938 3.347656 74.191406 3.363281 74.046875 3.375 C 74.058594 3.277344 74.0625 3.175781 74.066406 3.070312 Z M 39.949219 11.753906 C 39.804688 11.871094 39.667969 11.984375 39.53125 12.101562 C 39.496094 12.070312 39.472656 12.039062 39.4375 12.003906 C 39.613281 11.902344 39.78125 11.824219 39.949219 11.753906 Z M 35.898438 14.855469 C 36.308594 14.726562 36.714844 14.617188 37.105469 14.511719 C 36.742188 14.984375 36.511719 15.40625 36.484375 15.75 L 36.410156 15.210938 C 36.410156 15.210938 35.964844 16.039062 35.460938 17.21875 C 34.949219 18.390625 34.46875 20 34.253906 21.441406 C 34.589844 20.5 35.261719 19.628906 36.015625 18.820312 C 36.800781 18.042969 37.664062 17.332031 38.359375 16.648438 C 39.464844 15.640625 40.183594 14.683594 39.613281 13.605469 C 40.046875 13.289062 40.15625 12.894531 39.761719 12.367188 C 40.421875 12.164062 40.941406 11.886719 41.394531 11.5 C 42.117188 11.5625 42.703125 11.910156 43.089844 12.363281 C 42.839844 12.570312 42.570312 12.808594 42.304688 13.0625 C 41.121094 14.125 40.011719 15.527344 40.273438 16.101562 C 40.8125 15.996094 41.316406 15.078125 41.960938 14.445312 C 42.59375 13.800781 43.300781 13.363281 44.082031 14.136719 C 45.792969 13.171875 45.121094 13.070312 44.335938 12.917969 C 44.390625 12.878906 44.445312 12.84375 44.507812 12.800781 C 45.070312 12.441406 45.820312 11.964844 46.570312 11.488281 C 47.320312 11 48.097656 10.558594 48.683594 10.230469 C 49.269531 9.898438 49.664062 9.675781 49.664062 9.675781 C 50.6875 10.332031 49.96875 12.972656 49.171875 13.054688 C 48.527344 13.242188 47.839844 13.621094 47.113281 14.046875 C 46.394531 14.476562 45.628906 14.917969 44.863281 15.34375 C 43.335938 16.207031 41.730469 16.777344 40.0625 16.324219 C 39.367188 17.421875 40.109375 17.75 40.496094 18.144531 C 40.894531 18.546875 40.917969 18.953125 38.976562 20.296875 C 36.179688 20.730469 33.546875 21.988281 31.15625 23.550781 C 31.242188 22.652344 31.765625 21.464844 32.214844 20.304688 C 32.902344 18.625 33.472656 17.027344 32.019531 16.574219 C 32.019531 16.574219 31.714844 17.4375 31.40625 18.300781 C 31.34375 18.46875 31.289062 18.632812 31.234375 18.796875 C 30.511719 16.753906 33.28125 15.578125 35.898438 14.855469 Z M 29.144531 18.132812 C 29.453125 17.824219 29.71875 17.570312 29.910156 17.40625 C 30.097656 17.234375 30.207031 17.136719 30.207031 17.136719 L 31.214844 18.859375 C 31.140625 19.089844 31.070312 19.308594 31.015625 19.496094 C 30.917969 19.824219 30.851562 20.042969 30.851562 20.042969 C 30.355469 18.023438 27.898438 21.011719 27.300781 19.953125 C 27.976562 19.28125 28.632812 18.636719 29.144531 18.132812 Z M 23.789062 23.777344 C 23.789062 23.777344 24.148438 23.332031 24.730469 22.703125 C 25.269531 22.117188 25.972656 21.339844 26.703125 20.558594 C 26.617188 20.6875 26.53125 20.820312 26.433594 20.972656 C 25.972656 21.703125 25.320312 22.632812 24.757812 23.628906 C 24.183594 24.617188 23.601562 25.589844 23.199219 26.335938 C 22.804688 27.089844 22.542969 27.589844 22.542969 27.589844 L 21.265625 26.859375 C 21.476562 26.597656 21.6875 26.34375 21.886719 26.101562 C 21.902344 26.089844 21.921875 26.082031 21.941406 26.070312 C 22.191406 25.921875 22.445312 25.777344 22.632812 25.664062 C 22.824219 25.558594 22.953125 25.492188 22.953125 25.492188 C 22.890625 25.324219 22.832031 25.175781 22.773438 25.042969 C 23.367188 24.355469 23.816406 23.898438 24.046875 23.820312 Z M 11.480469 58.292969 C 12.628906 54.796875 12.332031 59.550781 13.6875 58.242188 C 14.007812 58.078125 14.253906 57.863281 14.457031 57.605469 C 14.472656 57.765625 14.480469 57.929688 14.480469 58.097656 C 13.996094 59.214844 13.550781 60.339844 13.136719 61.476562 C 12.710938 61.667969 12.332031 61.511719 12.039062 61.101562 C 11.835938 60.820312 11.675781 60.417969 11.566406 59.933594 C 11.46875 59.449219 11.445312 58.890625 11.480469 58.292969 Z M 55.511719 144.574219 C 55.808594 144.65625 56.105469 144.742188 56.402344 144.820312 C 56.402344 144.855469 56.398438 144.886719 56.398438 144.921875 C 56.0625 144.832031 55.769531 144.714844 55.511719 144.574219 Z M 62.214844 146.089844 C 63.601562 146.324219 64.992188 146.507812 66.390625 146.652344 C 65.417969 147.308594 63.8125 146.855469 62.214844 146.089844 Z M 98.015625 144.019531 C 97.832031 144.050781 97.652344 144.074219 97.480469 144.074219 C 97.09375 144.066406 96.753906 143.988281 96.472656 143.863281 C 95.96875 143.632812 95.675781 143.242188 95.636719 142.792969 C 96.40625 142.5 97.167969 142.191406 97.929688 141.867188 C 97.800781 142.058594 97.722656 142.34375 97.710938 142.769531 C 97.824219 143.21875 98.121094 143.511719 98.546875 143.6875 C 98.355469 143.765625 98.175781 143.875 98.015625 144.019531 Z M 99.5625 141.667969 C 99.269531 141.605469 98.972656 141.539062 98.707031 141.527344 C 99.4375 141.203125 100.164062 140.867188 100.886719 140.511719 C 101.144531 141.929688 100.386719 141.851562 99.5625 141.667969 Z M 99.5625 141.667969 " fill-opacity="1" fill-rule="nonzero"/></g><path fill="#ffe2d4" d="M 89.351562 144.851562 C 89.351562 145.128906 89.351562 145.316406 89.351562 145.316406 C 89.410156 145.140625 89.398438 144.988281 89.351562 144.851562 Z M 89.351562 144.851562 " fill-opacity="1" fill-rule="nonzero"/></svg>