<svg xmlns="http://www.w3.org/2000/svg" xmlns:xlink="http://www.w3.org/1999/xlink" width="230" zoomAndPan="magnify" viewBox="0 0 172.5 149.999998" height="200" preserveAspectRatio="xMidYMid meet" version="1.0"><defs><clipPath id="388a8a6570"><path d="M 32.804688 126.441406 L 49.582031 126.441406 L 49.582031 143.21875 L 32.804688 143.21875 Z M 32.804688 126.441406 " clip-rule="nonzero"/></clipPath><clipPath id="602f52edca"><path d="M 47.144531 41.40625 C 61.75 26.707031 57.570312 17.492188 67.5625 10.6875 C 82.941406 0.214844 111.644531 9.226562 128.578125 23.628906 C 149.320312 41.273438 160.019531 73.488281 147.828125 102.632812 C 141.722656 117.234375 132.320312 131.390625 119.429688 138.753906 C 116.671875 140.332031 112.421875 138.871094 109.496094 140.082031 C 108.96875 140.300781 108.445312 140.507812 107.914062 140.714844 C 95.875 145.378906 82.734375 146.921875 70.214844 144.925781 C 43 140.589844 16.246094 119.140625 13.5625 93.414062 C 13.273438 90.625 11.992188 75.554688 20.988281 62.558594 C 28.421875 51.816406 35.566406 53.0625 47.144531 41.40625 Z M 47.144531 41.40625 " clip-rule="nonzero"/></clipPath><clipPath id="278a250fe0"><path d="M 44.242188 103.261719 L 72.839844 103.261719 L 72.839844 131.933594 L 44.242188 131.933594 Z M 44.242188 103.261719 " clip-rule="nonzero"/></clipPath><clipPath id="34e33277cd"><path d="M 47.144531 41.40625 C 61.75 26.707031 57.570312 17.492188 67.5625 10.6875 C 82.941406 0.214844 111.644531 9.226562 128.578125 23.628906 C 149.320312 41.273438 160.019531 73.488281 147.828125 102.632812 C 141.722656 117.234375 132.320312 131.390625 119.429688 138.753906 C 116.671875 140.332031 112.421875 138.871094 109.496094 140.082031 C 108.96875 140.300781 108.445312 140.507812 107.914062 140.714844 C 95.875 145.378906 82.734375 146.921875 70.214844 144.925781 C 43 140.589844 16.246094 119.140625 13.5625 93.414062 C 13.273438 90.625 11.992188 75.554688 20.988281 62.558594 C 28.421875 51.816406 35.566406 53.0625 47.144531 41.40625 Z M 47.144531 41.40625 " clip-rule="nonzero"/></clipPath><clipPath id="e6539fb6b8"><path d="M 64.679688 106.617188 L 106.773438 106.617188 L 106.773438 145.808594 L 64.679688 145.808594 Z M 64.679688 106.617188 " clip-rule="nonzero"/></clipPath><clipPath id="4669717f37"><path d="M 47.144531 41.40625 C 61.75 26.707031 57.570312 17.492188 67.5625 10.6875 C 82.941406 0.214844 111.644531 9.226562 128.578125 23.628906 C 149.320312 41.273438 160.019531 73.488281 147.828125 102.632812 C 141.722656 117.234375 132.320312 131.390625 119.429688 138.753906 C 116.671875 140.332031 112.421875 138.871094 109.496094 140.082031 C 108.96875 140.300781 108.445312 140.507812 107.914062 140.714844 C 95.875 145.378906 82.734375 146.921875 70.214844 144.925781 C 43 140.589844 16.246094 119.140625 13.5625 93.414062 C 13.273438 90.625 11.992188 75.554688 20.988281 62.558594 C 28.421875 51.816406 35.566406 53.0625 47.144531 41.40625 Z M 47.144531 41.40625 " clip-rule="nonzero"/></clipPath><clipPath id="d12dab3390"><path d="M 65.746094 116.222656 L 96.9375 116.222656 L 96.9375 145.808594 L 65.746094 145.808594 Z M 65.746094 116.222656 " clip-rule="nonzero"/></clipPath><clipPath id="8339c5250a"><path d="M 47.144531 41.40625 C 61.75 26.707031 57.570312 17.492188 67.5625 10.6875 C 82.941406 0.214844 111.644531 9.226562 128.578125 23.628906 C 149.320312 41.273438 160.019531 73.488281 147.828125 102.632812 C 141.722656 117.234375 132.320312 131.390625 119.429688 138.753906 C 116.671875 140.332031 112.421875 138.871094 109.496094 140.082031 C 108.96875 140.300781 108.445312 140.507812 107.914062 140.714844 C 95.875 145.378906 82.734375 146.921875 70.214844 144.925781 C 43 140.589844 16.246094 119.140625 13.5625 93.414062 C 13.273438 90.625 11.992188 75.554688 20.988281 62.558594 C 28.421875 51.816406 35.566406 53.0625 47.144531 41.40625 Z M 47.144531 41.40625 " clip-rule="nonzero"/></clipPath><clipPath id="8b90622324"><path d="M 71.160156 106.003906 L 129.34375 106.003906 L 129.34375 145.808594 L 71.160156 145.808594 Z M 71.160156 106.003906 " clip-rule="nonzero"/></clipPath><clipPath id="5cb6215cc6"><path d="M 47.144531 41.40625 C 61.75 26.707031 57.570312 17.492188 67.5625 10.6875 C 82.941406 0.214844 111.644531 9.226562 128.578125 23.628906 C 149.320312 41.273438 160.019531 73.488281 147.828125 102.632812 C 141.722656 117.234375 132.320312 131.390625 119.429688 138.753906 C 116.671875 140.332031 112.421875 138.871094 109.496094 140.082031 C 108.96875 140.300781 108.445312 140.507812 107.914062 140.714844 C 95.875 145.378906 82.734375 146.921875 70.214844 144.925781 C 43 140.589844 16.246094 119.140625 13.5625 93.414062 C 13.273438 90.625 11.992188 75.554688 20.988281 62.558594 C 28.421875 51.816406 35.566406 53.0625 47.144531 41.40625 Z M 47.144531 41.40625 " clip-rule="nonzero"/></clipPath><clipPath id="38646ce3d9"><path d="M 72.609375 114.242188 L 125.914062 114.242188 L 125.914062 145.808594 L 72.609375 145.808594 Z M 72.609375 114.242188 " clip-rule="nonzero"/></clipPath><clipPath id="0305a92b8b"><path d="M 47.144531 41.40625 C 61.75 26.707031 57.570312 17.492188 67.5625 10.6875 C 82.941406 0.214844 111.644531 9.226562 128.578125 23.628906 C 149.320312 41.273438 160.019531 73.488281 147.828125 102.632812 C 141.722656 117.234375 132.320312 131.390625 119.429688 138.753906 C 116.671875 140.332031 112.421875 138.871094 109.496094 140.082031 C 108.96875 140.300781 108.445312 140.507812 107.914062 140.714844 C 95.875 145.378906 82.734375 146.921875 70.214844 144.925781 C 43 140.589844 16.246094 119.140625 13.5625 93.414062 C 13.273438 90.625 11.992188 75.554688 20.988281 62.558594 C 28.421875 51.816406 35.566406 53.0625 47.144531 41.40625 Z M 47.144531 41.40625 " clip-rule="nonzero"/></clipPath><clipPath id="1b19d9bd0d"><path d="M 40.964844 82 L 66.664062 82 L 66.664062 107.53125 L 40.964844 107.53125 Z M 40.964844 82 " clip-rule="nonzero"/></clipPath><clipPath id="2c1a1350a0"><path d="M 67.390625 56.628906 L 88.859375 22.480469 L 80.058594 15.394531 L 36.953125 23.136719 L 16.789062 59.269531 L 36.519531 86.785156 C 35.996094 88.453125 35.710938 90.210938 35.710938 92.003906 C 35.710938 101.292969 43.28125 108.203125 52.582031 107.414062 C 56.941406 107.042969 61.078125 105.039062 64.226562 101.769531 L 76.453125 88.566406 L 67.824219 80.726562 C 67.9375 72.25 67.390625 56.628906 67.390625 56.628906 Z M 67.390625 56.628906 " clip-rule="nonzero"/></clipPath><clipPath id="b562733ee1"><path d="M 59 86.636719 L 65.289062 86.636719 L 65.289062 89.230469 L 59 89.230469 Z M 59 86.636719 " clip-rule="nonzero"/></clipPath><clipPath id="4a1b759b9e"><path d="M 67.390625 56.628906 L 88.859375 22.480469 L 80.058594 15.394531 L 36.953125 23.136719 L 16.789062 59.269531 L 36.519531 86.785156 C 35.996094 88.453125 35.710938 90.210938 35.710938 92.003906 C 35.710938 101.292969 43.28125 108.203125 52.582031 107.414062 C 56.941406 107.042969 61.078125 105.039062 64.226562 101.769531 L 76.453125 88.566406 L 67.824219 80.726562 C 67.9375 72.25 67.390625 56.628906 67.390625 56.628906 Z M 67.390625 56.628906 " clip-rule="nonzero"/></clipPath><clipPath id="fb176fca20"><path d="M 51.640625 90 L 52.9375 90 L 52.9375 93.574219 L 51.640625 93.574219 Z M 51.640625 90 " clip-rule="nonzero"/></clipPath><clipPath id="dbd4e3e78c"><path d="M 67.390625 56.628906 L 88.859375 22.480469 L 80.058594 15.394531 L 36.953125 23.136719 L 16.789062 59.269531 L 36.519531 86.785156 C 35.996094 88.453125 35.710938 90.210938 35.710938 92.003906 C 35.710938 101.292969 43.28125 108.203125 52.582031 107.414062 C 56.941406 107.042969 61.078125 105.039062 64.226562 101.769531 L 76.453125 88.566406 L 67.824219 80.726562 C 67.9375 72.25 67.390625 56.628906 67.390625 56.628906 Z M 67.390625 56.628906 " clip-rule="nonzero"/></clipPath><clipPath id="809bb6d1e0"><path d="M 29.449219 28.378906 L 78.175781 28.378906 L 78.175781 90.144531 L 29.449219 90.144531 Z M 29.449219 28.378906 " clip-rule="nonzero"/></clipPath><clipPath id="94dc398268"><path d="M 67.390625 56.628906 L 88.859375 22.480469 L 80.058594 15.394531 L 36.953125 23.136719 L 16.789062 59.269531 L 36.519531 86.785156 C 35.996094 88.453125 35.710938 90.210938 35.710938 92.003906 C 35.710938 101.292969 43.28125 108.203125 52.582031 107.414062 C 56.941406 107.042969 61.078125 105.039062 64.226562 101.769531 L 76.453125 88.566406 L 67.824219 80.726562 C 67.9375 72.25 67.390625 56.628906 67.390625 56.628906 Z M 67.390625 56.628906 " clip-rule="nonzero"/></clipPath><clipPath id="4e6862cdb4"><path d="M 44.929688 52.550781 L 45.539062 52.550781 L 45.539062 56.746094 L 44.929688 56.746094 Z M 44.929688 52.550781 " clip-rule="nonzero"/></clipPath><clipPath id="4006f37bcb"><path d="M 67.390625 56.628906 L 88.859375 22.480469 L 80.058594 15.394531 L 36.953125 23.136719 L 16.789062 59.269531 L 36.519531 86.785156 C 35.996094 88.453125 35.710938 90.210938 35.710938 92.003906 C 35.710938 101.292969 43.28125 108.203125 52.582031 107.414062 C 56.941406 107.042969 61.078125 105.039062 64.226562 101.769531 L 76.453125 88.566406 L 67.824219 80.726562 C 67.9375 72.25 67.390625 56.628906 67.390625 56.628906 Z M 67.390625 56.628906 " clip-rule="nonzero"/></clipPath><clipPath id="f98cb8f8da"><path d="M 46.148438 51.558594 L 47.066406 51.558594 L 47.066406 52.472656 L 46.148438 52.472656 Z M 46.148438 51.558594 " clip-rule="nonzero"/></clipPath><clipPath id="5ec00a0d49"><path d="M 67.390625 56.628906 L 88.859375 22.480469 L 80.058594 15.394531 L 36.953125 23.136719 L 16.789062 59.269531 L 36.519531 86.785156 C 35.996094 88.453125 35.710938 90.210938 35.710938 92.003906 C 35.710938 101.292969 43.28125 108.203125 52.582031 107.414062 C 56.941406 107.042969 61.078125 105.039062 64.226562 101.769531 L 76.453125 88.566406 L 67.824219 80.726562 C 67.9375 72.25 67.390625 56.628906 67.390625 56.628906 Z M 67.390625 56.628906 " clip-rule="nonzero"/></clipPath><clipPath id="47ff64ea1f"><path d="M 74.515625 19.53125 L 82.980469 19.53125 L 82.980469 30.742188 L 74.515625 30.742188 Z M 74.515625 19.53125 " clip-rule="nonzero"/></clipPath><clipPath id="177dd0618e"><path d="M 67.390625 56.628906 L 88.859375 22.480469 L 80.058594 15.394531 L 36.953125 23.136719 L 16.789062 59.269531 L 36.519531 86.785156 C 35.996094 88.453125 35.710938 90.210938 35.710938 92.003906 C 35.710938 101.292969 43.28125 108.203125 52.582031 107.414062 C 56.941406 107.042969 61.078125 105.039062 64.226562 101.769531 L 76.453125 88.566406 L 67.824219 80.726562 C 67.9375 72.25 67.390625 56.628906 67.390625 56.628906 Z M 67.390625 56.628906 " clip-rule="nonzero"/></clipPath><clipPath id="9696520c0c"><path d="M 74.289062 19.304688 L 83.285156 19.304688 L 83.285156 30.96875 L 74.289062 30.96875 Z M 74.289062 19.304688 " clip-rule="nonzero"/></clipPath><clipPath id="f57e11f5c1"><path d="M 67.390625 56.628906 L 88.859375 22.480469 L 80.058594 15.394531 L 36.953125 23.136719 L 16.789062 59.269531 L 36.519531 86.785156 C 35.996094 88.453125 35.710938 90.210938 35.710938 92.003906 C 35.710938 101.292969 43.28125 108.203125 52.582031 107.414062 C 56.941406 107.042969 61.078125 105.039062 64.226562 101.769531 L 76.453125 88.566406 L 67.824219 80.726562 C 67.9375 72.25 67.390625 56.628906 67.390625 56.628906 Z M 67.390625 56.628906 " clip-rule="nonzero"/></clipPath><clipPath id="972599a773"><path d="M 36.921875 61.472656 L 51.640625 61.472656 L 51.640625 78.402344 L 36.921875 78.402344 Z M 36.921875 61.472656 " clip-rule="nonzero"/></clipPath><clipPath id="abc7194d86"><path d="M 67.390625 56.628906 L 88.859375 22.480469 L 80.058594 15.394531 L 36.953125 23.136719 L 16.789062 59.269531 L 36.519531 86.785156 C 35.996094 88.453125 35.710938 90.210938 35.710938 92.003906 C 35.710938 101.292969 43.28125 108.203125 52.582031 107.414062 C 56.941406 107.042969 61.078125 105.039062 64.226562 101.769531 L 76.453125 88.566406 L 67.824219 80.726562 C 67.9375 72.25 67.390625 56.628906 67.390625 56.628906 Z M 67.390625 56.628906 " clip-rule="nonzero"/></clipPath><clipPath id="77770a6d0c"><path d="M 42.261719 74.054688 L 44.089844 74.054688 L 44.089844 75.882812 L 42.261719 75.882812 Z M 42.261719 74.054688 " clip-rule="nonzero"/></clipPath><clipPath id="7f1b2392e1"><path d="M 67.390625 56.628906 L 88.859375 22.480469 L 80.058594 15.394531 L 36.953125 23.136719 L 16.789062 59.269531 L 36.519531 86.785156 C 35.996094 88.453125 35.710938 90.210938 35.710938 92.003906 C 35.710938 101.292969 43.28125 108.203125 52.582031 107.414062 C 56.941406 107.042969 61.078125 105.039062 64.226562 101.769531 L 76.453125 88.566406 L 67.824219 80.726562 C 67.9375 72.25 67.390625 56.628906 67.390625 56.628906 Z M 67.390625 56.628906 " clip-rule="nonzero"/></clipPath><clipPath id="572682bcc0"><path d="M 43.863281 71.234375 L 46.378906 71.234375 L 46.378906 75.199219 L 43.863281 75.199219 Z M 43.863281 71.234375 " clip-rule="nonzero"/></clipPath><clipPath id="0171c9052d"><path d="M 67.390625 56.628906 L 88.859375 22.480469 L 80.058594 15.394531 L 36.953125 23.136719 L 16.789062 59.269531 L 36.519531 86.785156 C 35.996094 88.453125 35.710938 90.210938 35.710938 92.003906 C 35.710938 101.292969 43.28125 108.203125 52.582031 107.414062 C 56.941406 107.042969 61.078125 105.039062 64.226562 101.769531 L 76.453125 88.566406 L 67.824219 80.726562 C 67.9375 72.25 67.390625 56.628906 67.390625 56.628906 Z M 67.390625 56.628906 " clip-rule="nonzero"/></clipPath><clipPath id="20afa92c29"><path d="M 44.394531 64.75 L 48.589844 64.75 L 48.589844 74.589844 L 44.394531 74.589844 Z M 44.394531 64.75 " clip-rule="nonzero"/></clipPath><clipPath id="149c2abc7f"><path d="M 67.390625 56.628906 L 88.859375 22.480469 L 80.058594 15.394531 L 36.953125 23.136719 L 16.789062 59.269531 L 36.519531 86.785156 C 35.996094 88.453125 35.710938 90.210938 35.710938 92.003906 C 35.710938 101.292969 43.28125 108.203125 52.582031 107.414062 C 56.941406 107.042969 61.078125 105.039062 64.226562 101.769531 L 76.453125 88.566406 L 67.824219 80.726562 C 67.9375 72.25 67.390625 56.628906 67.390625 56.628906 Z M 67.390625 56.628906 " clip-rule="nonzero"/></clipPath><clipPath id="741fa88a6c"><path d="M 35.09375 66.125 L 42.871094 66.125 L 42.871094 74.511719 L 35.09375 74.511719 Z M 35.09375 66.125 " clip-rule="nonzero"/></clipPath><clipPath id="d9c5b85de8"><path d="M 67.390625 56.628906 L 88.859375 22.480469 L 80.058594 15.394531 L 36.953125 23.136719 L 16.789062 59.269531 L 36.519531 86.785156 C 35.996094 88.453125 35.710938 90.210938 35.710938 92.003906 C 35.710938 101.292969 43.28125 108.203125 52.582031 107.414062 C 56.941406 107.042969 61.078125 105.039062 64.226562 101.769531 L 76.453125 88.566406 L 67.824219 80.726562 C 67.9375 72.25 67.390625 56.628906 67.390625 56.628906 Z M 67.390625 56.628906 " clip-rule="nonzero"/></clipPath><clipPath id="16ee6b01b8"><path d="M 34.863281 65.894531 L 43.175781 65.894531 L 43.175781 74.742188 L 34.863281 74.742188 Z M 34.863281 65.894531 " clip-rule="nonzero"/></clipPath><clipPath id="f685f87cc6"><path d="M 67.390625 56.628906 L 88.859375 22.480469 L 80.058594 15.394531 L 36.953125 23.136719 L 16.789062 59.269531 L 36.519531 86.785156 C 35.996094 88.453125 35.710938 90.210938 35.710938 92.003906 C 35.710938 101.292969 43.28125 108.203125 52.582031 107.414062 C 56.941406 107.042969 61.078125 105.039062 64.226562 101.769531 L 76.453125 88.566406 L 67.824219 80.726562 C 67.9375 72.25 67.390625 56.628906 67.390625 56.628906 Z M 67.390625 56.628906 " clip-rule="nonzero"/></clipPath><clipPath id="7a19b66116"><path d="M 47.292969 56.363281 L 48.894531 56.363281 L 48.894531 59.71875 L 47.292969 59.71875 Z M 47.292969 56.363281 " clip-rule="nonzero"/></clipPath><clipPath id="f48901c2cf"><path d="M 67.390625 56.628906 L 88.859375 22.480469 L 80.058594 15.394531 L 36.953125 23.136719 L 16.789062 59.269531 L 36.519531 86.785156 C 35.996094 88.453125 35.710938 90.210938 35.710938 92.003906 C 35.710938 101.292969 43.28125 108.203125 52.582031 107.414062 C 56.941406 107.042969 61.078125 105.039062 64.226562 101.769531 L 76.453125 88.566406 L 67.824219 80.726562 C 67.9375 72.25 67.390625 56.628906 67.390625 56.628906 Z M 67.390625 56.628906 " clip-rule="nonzero"/></clipPath><clipPath id="551e7f70d5"><path d="M 48.4375 56.132812 L 53.46875 56.132812 L 53.46875 60.863281 L 48.4375 60.863281 Z M 48.4375 56.132812 " clip-rule="nonzero"/></clipPath><clipPath id="859bbbe43d"><path d="M 67.390625 56.628906 L 88.859375 22.480469 L 80.058594 15.394531 L 36.953125 23.136719 L 16.789062 59.269531 L 36.519531 86.785156 C 35.996094 88.453125 35.710938 90.210938 35.710938 92.003906 C 35.710938 101.292969 43.28125 108.203125 52.582031 107.414062 C 56.941406 107.042969 61.078125 105.039062 64.226562 101.769531 L 76.453125 88.566406 L 67.824219 80.726562 C 67.9375 72.25 67.390625 56.628906 67.390625 56.628906 Z M 67.390625 56.628906 " clip-rule="nonzero"/></clipPath><clipPath id="6aae0891b4"><path d="M 40.734375 42.484375 L 47.675781 42.484375 L 47.675781 53.085938 L 40.734375 53.085938 Z M 40.734375 42.484375 " clip-rule="nonzero"/></clipPath><clipPath id="8a9a0bed95"><path d="M 67.390625 56.628906 L 88.859375 22.480469 L 80.058594 15.394531 L 36.953125 23.136719 L 16.789062 59.269531 L 36.519531 86.785156 C 35.996094 88.453125 35.710938 90.210938 35.710938 92.003906 C 35.710938 101.292969 43.28125 108.203125 52.582031 107.414062 C 56.941406 107.042969 61.078125 105.039062 64.226562 101.769531 L 76.453125 88.566406 L 67.824219 80.726562 C 67.9375 72.25 67.390625 56.628906 67.390625 56.628906 Z M 67.390625 56.628906 " clip-rule="nonzero"/></clipPath><clipPath id="4b106a275a"><path d="M 40.507812 42.257812 L 47.902344 42.257812 L 47.902344 53.3125 L 40.507812 53.3125 Z M 40.507812 42.257812 " clip-rule="nonzero"/></clipPath><clipPath id="eca664abb6"><path d="M 67.390625 56.628906 L 88.859375 22.480469 L 80.058594 15.394531 L 36.953125 23.136719 L 16.789062 59.269531 L 36.519531 86.785156 C 35.996094 88.453125 35.710938 90.210938 35.710938 92.003906 C 35.710938 101.292969 43.28125 108.203125 52.582031 107.414062 C 56.941406 107.042969 61.078125 105.039062 64.226562 101.769531 L 76.453125 88.566406 L 67.824219 80.726562 C 67.9375 72.25 67.390625 56.628906 67.390625 56.628906 Z M 67.390625 56.628906 " clip-rule="nonzero"/></clipPath><clipPath id="3b4e887e90"><path d="M 39.667969 35.851562 L 48.054688 35.851562 L 48.054688 46.144531 L 39.667969 46.144531 Z M 39.667969 35.851562 " clip-rule="nonzero"/></clipPath><clipPath id="d5d600cef9"><path d="M 67.390625 56.628906 L 88.859375 22.480469 L 80.058594 15.394531 L 36.953125 23.136719 L 16.789062 59.269531 L 36.519531 86.785156 C 35.996094 88.453125 35.710938 90.210938 35.710938 92.003906 C 35.710938 101.292969 43.28125 108.203125 52.582031 107.414062 C 56.941406 107.042969 61.078125 105.039062 64.226562 101.769531 L 76.453125 88.566406 L 67.824219 80.726562 C 67.9375 72.25 67.390625 56.628906 67.390625 56.628906 Z M 67.390625 56.628906 " clip-rule="nonzero"/></clipPath><clipPath id="46e25fb38a"><path d="M 39.363281 35.546875 L 48.359375 35.546875 L 48.359375 46.375 L 39.363281 46.375 Z M 39.363281 35.546875 " clip-rule="nonzero"/></clipPath><clipPath id="5cef5fc497"><path d="M 67.390625 56.628906 L 88.859375 22.480469 L 80.058594 15.394531 L 36.953125 23.136719 L 16.789062 59.269531 L 36.519531 86.785156 C 35.996094 88.453125 35.710938 90.210938 35.710938 92.003906 C 35.710938 101.292969 43.28125 108.203125 52.582031 107.414062 C 56.941406 107.042969 61.078125 105.039062 64.226562 101.769531 L 76.453125 88.566406 L 67.824219 80.726562 C 67.9375 72.25 67.390625 56.628906 67.390625 56.628906 Z M 67.390625 56.628906 " clip-rule="nonzero"/></clipPath><clipPath id="86c4a6afb1"><path d="M 38 32.648438 L 46.605469 32.648438 L 46.605469 44.164062 L 38 44.164062 Z M 38 32.648438 " clip-rule="nonzero"/></clipPath><clipPath id="1996bd893c"><path d="M 67.390625 56.628906 L 88.859375 22.480469 L 80.058594 15.394531 L 36.953125 23.136719 L 16.789062 59.269531 L 36.519531 86.785156 C 35.996094 88.453125 35.710938 90.210938 35.710938 92.003906 C 35.710938 101.292969 43.28125 108.203125 52.582031 107.414062 C 56.941406 107.042969 61.078125 105.039062 64.226562 101.769531 L 76.453125 88.566406 L 67.824219 80.726562 C 67.9375 72.25 67.390625 56.628906 67.390625 56.628906 Z M 67.390625 56.628906 " clip-rule="nonzero"/></clipPath><clipPath id="47cc919960"><path d="M 39.210938 40.578125 L 41.117188 40.578125 L 41.117188 42.941406 L 39.210938 42.941406 Z M 39.210938 40.578125 " clip-rule="nonzero"/></clipPath><clipPath id="339e29bc6f"><path d="M 67.390625 56.628906 L 88.859375 22.480469 L 80.058594 15.394531 L 36.953125 23.136719 L 16.789062 59.269531 L 36.519531 86.785156 C 35.996094 88.453125 35.710938 90.210938 35.710938 92.003906 C 35.710938 101.292969 43.28125 108.203125 52.582031 107.414062 C 56.941406 107.042969 61.078125 105.039062 64.226562 101.769531 L 76.453125 88.566406 L 67.824219 80.726562 C 67.9375 72.25 67.390625 56.628906 67.390625 56.628906 Z M 67.390625 56.628906 " clip-rule="nonzero"/></clipPath></defs><path fill="#caddff" d="M 47.144531 41.40625 C 61.75 26.707031 57.570312 17.492188 67.5625 10.6875 C 82.941406 0.214844 111.644531 9.222656 128.578125 23.628906 C 149.320312 41.273438 160.019531 73.488281 147.828125 102.632812 C 134.847656 133.671875 100.691406 149.78125 70.214844 144.925781 C 43 140.589844 16.246094 119.140625 13.5625 93.414062 C 13.273438 90.625 11.992188 75.554688 20.988281 62.558594 C 28.421875 51.816406 35.566406 53.0625 47.144531 41.40625 " fill-opacity="1" fill-rule="nonzero"/><g clip-path="url(#388a8a6570)"><g clip-path="url(#602f52edca)"><path fill="#ffffff" d="M 42.976562 138.5625 C 40.917969 139.550781 38.449219 138.683594 37.460938 136.625 C 36.472656 134.566406 37.339844 132.097656 39.398438 131.109375 C 41.457031 130.121094 43.925781 130.988281 44.914062 133.046875 C 45.902344 135.105469 45.035156 137.574219 42.976562 138.5625 Z M 49.023438 131.964844 L 48.328125 130.515625 L 46.621094 130.910156 C 46.398438 130.601562 46.15625 130.320312 45.894531 130.058594 L 46.539062 128.433594 L 45.214844 127.523438 L 43.929688 128.71875 C 43.589844 128.566406 43.234375 128.445312 42.875 128.351562 L 42.621094 126.613281 L 41.019531 126.492188 L 40.503906 128.167969 C 40.136719 128.203125 39.769531 128.273438 39.40625 128.375 L 38.316406 127 L 36.871094 127.695312 L 37.261719 129.402344 C 36.957031 129.625 36.671875 129.867188 36.414062 130.132812 L 34.785156 129.484375 L 33.878906 130.8125 L 35.074219 132.09375 C 34.921875 132.4375 34.796875 132.789062 34.703125 133.148438 L 32.964844 133.40625 L 32.84375 135.003906 L 34.519531 135.519531 C 34.558594 135.886719 34.625 136.253906 34.726562 136.617188 L 33.351562 137.707031 L 34.046875 139.152344 L 35.757812 138.761719 C 35.976562 139.070312 36.21875 139.351562 36.484375 139.613281 L 35.835938 141.242188 L 37.164062 142.144531 L 38.445312 140.953125 C 38.789062 141.105469 39.140625 141.226562 39.5 141.320312 L 39.757812 143.058594 L 41.359375 143.179688 L 41.871094 141.503906 C 42.238281 141.46875 42.605469 141.398438 42.972656 141.296875 L 44.058594 142.671875 L 45.507812 141.976562 L 45.113281 140.269531 C 45.421875 140.046875 45.703125 139.804688 45.964844 139.539062 L 47.59375 140.1875 L 48.5 138.859375 L 47.304688 137.578125 C 47.457031 137.234375 47.582031 136.882812 47.675781 136.523438 L 49.410156 136.269531 L 49.53125 134.667969 L 47.855469 134.152344 C 47.820312 133.785156 47.75 133.417969 47.648438 133.054688 L 49.023438 131.964844 " fill-opacity="1" fill-rule="nonzero"/></g></g><g clip-path="url(#278a250fe0)"><g clip-path="url(#34e33277cd)"><path fill="#ffffff" d="M 61.589844 123.980469 C 58.070312 125.671875 53.84375 124.1875 52.152344 120.667969 C 50.464844 117.144531 51.949219 112.917969 55.46875 111.230469 C 58.992188 109.539062 63.214844 111.023438 64.90625 114.542969 C 66.597656 118.066406 65.113281 122.292969 61.589844 123.980469 Z M 71.9375 112.691406 L 70.75 110.214844 L 67.824219 110.886719 C 67.445312 110.363281 67.03125 109.875 66.582031 109.433594 L 67.6875 106.648438 L 65.417969 105.09375 L 63.21875 107.140625 C 62.636719 106.878906 62.035156 106.667969 61.417969 106.507812 L 60.980469 103.535156 L 58.242188 103.328125 L 57.359375 106.191406 C 56.730469 106.257812 56.101562 106.378906 55.480469 106.550781 L 53.617188 104.195312 L 51.140625 105.386719 L 51.8125 108.308594 C 51.289062 108.6875 50.800781 109.105469 50.355469 109.554688 L 47.570312 108.449219 L 46.019531 110.71875 L 48.066406 112.914062 C 47.804688 113.5 47.59375 114.101562 47.429688 114.71875 L 44.460938 115.15625 L 44.253906 117.894531 L 47.117188 118.773438 C 47.183594 119.402344 47.300781 120.03125 47.472656 120.65625 L 45.121094 122.515625 L 46.308594 124.996094 L 49.234375 124.324219 C 49.613281 124.847656 50.027344 125.335938 50.480469 125.777344 L 49.375 128.5625 L 51.640625 130.113281 L 53.839844 128.070312 C 54.421875 128.332031 55.027344 128.542969 55.644531 128.703125 L 56.078125 131.675781 L 58.820312 131.882812 L 59.699219 129.019531 C 60.328125 128.953125 60.957031 128.832031 61.582031 128.660156 L 63.441406 131.015625 L 65.917969 129.824219 L 65.246094 126.898438 C 65.773438 126.523438 66.257812 126.105469 66.703125 125.65625 L 69.488281 126.761719 L 71.039062 124.492188 L 68.996094 122.296875 C 69.257812 121.714844 69.46875 121.109375 69.628906 120.492188 L 72.597656 120.054688 L 72.808594 117.316406 L 69.941406 116.433594 C 69.878906 115.804688 69.757812 115.179688 69.585938 114.554688 L 71.9375 112.691406 " fill-opacity="1" fill-rule="nonzero"/></g></g><g clip-path="url(#e6539fb6b8)"><g clip-path="url(#4669717f37)"><path fill="#99b9ff" d="M 64.78125 153.964844 C 66.34375 154.242188 76.722656 155.996094 82.050781 153.128906 C 82.792969 152.730469 83.945312 152.109375 84.703125 150.8125 C 86.222656 148.214844 84.207031 146.277344 85.289062 144.238281 C 86.714844 141.542969 90.984375 143.464844 95.910156 139.867188 C 97.089844 139.003906 98.929688 137.664062 99.542969 135.375 C 100.222656 132.820312 98.671875 131.714844 99.101562 129.242188 C 99.632812 126.15625 102.378906 125.941406 104.535156 122.71875 C 106.808594 119.320312 107.921875 113.339844 104.890625 109.675781 C 102.246094 106.480469 97.453125 106.257812 94.355469 107.039062 C 89.777344 108.191406 86.613281 112.105469 85.515625 115.769531 C 83.941406 121.042969 86.714844 125.527344 85.019531 126.519531 C 83.441406 127.445312 80.972656 123.597656 77.84375 124.433594 C 75.660156 125.015625 73.933594 127.675781 73.820312 130.070312 C 73.660156 133.386719 76.675781 134.710938 76.03125 136.796875 C 75.359375 138.984375 71.734375 138.546875 68.917969 140.566406 C 66.597656 142.234375 64.492188 145.8125 64.78125 153.964844 " fill-opacity="1" fill-rule="nonzero"/></g></g><g clip-path="url(#d12dab3390)"><g clip-path="url(#8339c5250a)"><path fill="#ffffff" d="M 66.039062 154.089844 C 65.941406 154.089844 65.847656 154.035156 65.804688 153.9375 C 65.75 153.808594 65.8125 153.660156 65.941406 153.605469 C 78.246094 148.382812 85.867188 138.566406 90.09375 131.25 C 94.679688 123.3125 96.371094 116.519531 96.386719 116.453125 C 96.421875 116.316406 96.558594 116.234375 96.691406 116.269531 C 96.828125 116.300781 96.910156 116.4375 96.878906 116.574219 C 96.859375 116.640625 95.15625 123.488281 90.539062 131.488281 C 87.824219 136.1875 84.648438 140.359375 81.105469 143.894531 C 76.667969 148.316406 71.632812 151.738281 66.136719 154.070312 C 66.105469 154.085938 66.070312 154.089844 66.039062 154.089844 " fill-opacity="1" fill-rule="nonzero"/></g></g><g clip-path="url(#8b90622324)"><g clip-path="url(#5cb6215cc6)"><path fill="#1c74bc" d="M 71.226562 147.054688 C 88.546875 150.945312 95.335938 148.667969 98.21875 145.480469 C 99.078125 144.527344 100.605469 142.386719 103.640625 140.671875 C 107.582031 138.453125 110.226562 139.113281 113.695312 138.289062 C 120.480469 136.679688 126.046875 130.421875 128.121094 124.285156 C 129.570312 120 130.550781 112.101562 126.058594 108.246094 C 124.160156 106.617188 120.769531 105.269531 118.761719 106.542969 C 115.890625 108.367188 118.78125 114.113281 115.167969 117.832031 C 113.195312 119.859375 111.777344 118.742188 109.703125 120.914062 C 106.429688 124.335938 108.429688 128.707031 105.914062 130.144531 C 103.476562 131.535156 100.957031 127.753906 97.722656 128.992188 C 94.035156 130.40625 94.613281 136.128906 90.980469 137.085938 C 88.816406 137.65625 88.167969 135.746094 85.601562 136.132812 C 82.476562 136.605469 81.734375 139.691406 77.644531 143.21875 C 75.351562 145.195312 73.027344 146.285156 71.226562 147.054688 " fill-opacity="1" fill-rule="nonzero"/></g></g><g clip-path="url(#38646ce3d9)"><g clip-path="url(#0305a92b8b)"><path fill="#caddff" d="M 72.894531 147.167969 C 72.769531 147.167969 72.660156 147.074219 72.644531 146.945312 C 72.628906 146.808594 72.726562 146.683594 72.863281 146.664062 C 86.644531 144.996094 100.644531 139.992188 110.308594 133.28125 C 123.046875 124.4375 125.320312 114.597656 125.34375 114.5 C 125.375 114.363281 125.507812 114.277344 125.644531 114.308594 C 125.78125 114.335938 125.867188 114.472656 125.835938 114.609375 C 125.816406 114.710938 125.265625 117.171875 123.105469 120.769531 C 121.121094 124.082031 117.339844 129.011719 110.597656 133.695312 C 106.210938 136.738281 100.683594 139.558594 94.605469 141.847656 C 87.609375 144.480469 80.316406 146.269531 72.925781 147.167969 C 72.914062 147.167969 72.90625 147.167969 72.894531 147.167969 " fill-opacity="1" fill-rule="nonzero"/></g></g><path fill="#000000" d="M 89.535156 6.4375 L 140.453125 6.289062 C 141.476562 6.289062 142.28125 7.167969 142.191406 8.183594 L 138.625 48.203125 C 138.546875 49.097656 137.792969 49.785156 136.890625 49.785156 L 74.171875 49.777344 C 73.148438 49.777344 72.332031 48.808594 72.421875 47.792969 L 75.988281 8.023438 C 76.066406 7.125 76.792969 6.339844 77.695312 6.339844 L 89.535156 6.4375 " fill-opacity="1" fill-rule="nonzero"/><path fill="#99b9ff" d="M 86.605469 6.289062 L 137.980469 6.289062 C 139.011719 6.289062 139.820312 7.175781 139.730469 8.207031 L 136.152344 48.441406 C 136.070312 49.347656 135.308594 50.042969 134.398438 50.042969 L 71.109375 50.042969 C 70.074219 50.042969 69.265625 49.15625 69.355469 48.128906 L 72.933594 7.894531 C 73.015625 6.984375 73.777344 6.289062 74.6875 6.289062 L 86.605469 6.289062 " fill-opacity="1" fill-rule="nonzero"/><path fill="#ffffff" d="M 131.363281 47.40625 L 74.113281 47.40625 C 73.117188 47.40625 72.335938 46.554688 72.421875 45.558594 L 72.574219 44.019531 C 72.65625 43.144531 73.386719 42.472656 74.265625 42.472656 L 131.519531 42.472656 C 132.515625 42.472656 133.296875 43.328125 133.210938 44.320312 L 133.054688 45.859375 C 132.976562 46.738281 132.242188 47.40625 131.363281 47.40625 " fill-opacity="1" fill-rule="nonzero"/><path fill="#ffffff" d="M 91.910156 23.386719 L 76.886719 23.386719 C 75.890625 23.386719 75.109375 22.53125 75.195312 21.539062 L 76.132812 11.375 C 76.210938 10.5 76.945312 9.828125 77.824219 9.828125 L 92.847656 9.828125 C 93.84375 9.828125 94.625 10.683594 94.539062 11.679688 L 93.601562 21.839844 C 93.523438 22.714844 92.789062 23.386719 91.910156 23.386719 " fill-opacity="1" fill-rule="nonzero"/><path fill="#caddff" d="M 86.203125 13.722656 L 84.269531 13.722656 C 84.140625 13.722656 84.042969 13.613281 84.054688 13.484375 L 84.171875 12.175781 C 84.183594 12.0625 84.277344 11.976562 84.390625 11.976562 L 86.320312 11.976562 C 86.453125 11.976562 86.550781 12.085938 86.539062 12.214844 L 86.421875 13.519531 C 86.410156 13.636719 86.316406 13.722656 86.203125 13.722656 " fill-opacity="1" fill-rule="nonzero"/><path fill="#caddff" d="M 89.300781 13.722656 L 87.367188 13.722656 C 87.238281 13.722656 87.140625 13.613281 87.148438 13.484375 L 87.269531 12.175781 C 87.28125 12.0625 87.375 11.976562 87.488281 11.976562 L 89.421875 11.976562 C 89.546875 11.976562 89.648438 12.085938 89.636719 12.214844 L 89.515625 13.519531 C 89.507812 13.636719 89.414062 13.722656 89.300781 13.722656 " fill-opacity="1" fill-rule="nonzero"/><path fill="#99b9ff" d="M 79.777344 16.21875 L 77.847656 16.21875 C 77.71875 16.21875 77.617188 16.109375 77.628906 15.980469 L 77.75 14.671875 C 77.757812 14.5625 77.851562 14.472656 77.964844 14.472656 L 79.898438 14.472656 C 80.027344 14.472656 80.128906 14.585938 80.117188 14.710938 L 79.996094 16.019531 C 79.984375 16.132812 79.890625 16.21875 79.777344 16.21875 " fill-opacity="1" fill-rule="nonzero"/><path fill="#caddff" d="M 82.875 16.21875 L 80.941406 16.21875 C 80.816406 16.21875 80.714844 16.109375 80.726562 15.980469 L 80.847656 14.671875 C 80.855469 14.5625 80.949219 14.472656 81.0625 14.472656 L 82.996094 14.472656 C 83.125 14.472656 83.226562 14.585938 83.214844 14.710938 L 83.09375 16.019531 C 83.082031 16.132812 82.988281 16.21875 82.875 16.21875 " fill-opacity="1" fill-rule="nonzero"/><path fill="#1c74bc" d="M 85.972656 16.21875 L 84.039062 16.21875 C 83.914062 16.21875 83.8125 16.109375 83.824219 15.980469 L 83.945312 14.671875 C 83.953125 14.5625 84.046875 14.472656 84.160156 14.472656 L 86.09375 14.472656 C 86.222656 14.472656 86.320312 14.585938 86.3125 14.710938 L 86.191406 16.019531 C 86.179688 16.132812 86.085938 16.21875 85.972656 16.21875 " fill-opacity="1" fill-rule="nonzero"/><path fill="#caddff" d="M 89.070312 16.21875 L 87.140625 16.21875 C 87.007812 16.21875 86.910156 16.109375 86.921875 15.980469 L 87.039062 14.671875 C 87.050781 14.5625 87.144531 14.472656 87.257812 14.472656 L 89.191406 14.472656 C 89.320312 14.472656 89.417969 14.585938 89.40625 14.710938 L 89.285156 16.019531 C 89.277344 16.132812 89.183594 16.21875 89.070312 16.21875 " fill-opacity="1" fill-rule="nonzero"/><path fill="#caddff" d="M 79.546875 18.714844 L 77.617188 18.714844 C 77.488281 18.714844 77.386719 18.605469 77.398438 18.476562 L 77.519531 17.171875 C 77.53125 17.058594 77.625 16.972656 77.738281 16.972656 L 79.667969 16.972656 C 79.796875 16.972656 79.898438 17.082031 79.886719 17.210938 L 79.765625 18.515625 C 79.757812 18.628906 79.660156 18.714844 79.546875 18.714844 " fill-opacity="1" fill-rule="nonzero"/><path fill="#caddff" d="M 82.644531 18.714844 L 80.714844 18.714844 C 80.585938 18.714844 80.484375 18.605469 80.496094 18.476562 L 80.617188 17.171875 C 80.625 17.058594 80.722656 16.972656 80.835938 16.972656 L 82.765625 16.972656 C 82.894531 16.972656 82.996094 17.082031 82.984375 17.210938 L 82.863281 18.515625 C 82.851562 18.628906 82.757812 18.714844 82.644531 18.714844 " fill-opacity="1" fill-rule="nonzero"/><path fill="#caddff" d="M 85.742188 18.714844 L 83.8125 18.714844 C 83.683594 18.714844 83.582031 18.605469 83.59375 18.476562 L 83.714844 17.171875 C 83.722656 17.058594 83.816406 16.972656 83.929688 16.972656 L 85.863281 16.972656 C 85.992188 16.972656 86.089844 17.082031 86.082031 17.210938 L 85.960938 18.515625 C 85.949219 18.628906 85.855469 18.714844 85.742188 18.714844 " fill-opacity="1" fill-rule="nonzero"/><path fill="#caddff" d="M 88.839844 18.714844 L 86.90625 18.714844 C 86.78125 18.714844 86.679688 18.605469 86.691406 18.476562 L 86.8125 17.171875 C 86.820312 17.058594 86.914062 16.972656 87.027344 16.972656 L 88.960938 16.972656 C 89.089844 16.972656 89.1875 17.082031 89.179688 17.210938 L 89.058594 18.515625 C 89.046875 18.628906 88.953125 18.714844 88.839844 18.714844 " fill-opacity="1" fill-rule="nonzero"/><path fill="#99b9ff" d="M 92.414062 13.722656 L 90.484375 13.722656 C 90.355469 13.722656 90.253906 13.613281 90.265625 13.484375 L 90.386719 12.175781 C 90.394531 12.0625 90.488281 11.976562 90.605469 11.976562 L 92.535156 11.976562 C 92.664062 11.976562 92.765625 12.085938 92.753906 12.214844 L 92.632812 13.519531 C 92.621094 13.636719 92.527344 13.722656 92.414062 13.722656 " fill-opacity="1" fill-rule="nonzero"/><path fill="#99b9ff" d="M 92.183594 16.21875 L 90.253906 16.21875 C 90.125 16.21875 90.023438 16.109375 90.035156 15.980469 L 90.15625 14.671875 C 90.164062 14.5625 90.261719 14.472656 90.375 14.472656 L 92.304688 14.472656 C 92.433594 14.472656 92.535156 14.585938 92.523438 14.710938 L 92.402344 16.019531 C 92.390625 16.132812 92.296875 16.21875 92.183594 16.21875 " fill-opacity="1" fill-rule="nonzero"/><path fill="#1c74bc" d="M 91.957031 18.714844 L 90.023438 18.714844 C 89.894531 18.714844 89.792969 18.605469 89.804688 18.476562 L 89.925781 17.171875 C 89.9375 17.058594 90.03125 16.972656 90.144531 16.972656 L 92.074219 16.972656 C 92.203125 16.972656 92.304688 17.082031 92.292969 17.210938 L 92.171875 18.515625 C 92.164062 18.628906 92.066406 18.714844 91.957031 18.714844 " fill-opacity="1" fill-rule="nonzero"/><path fill="#caddff" d="M 79.277344 21.261719 L 77.34375 21.261719 C 77.214844 21.261719 77.117188 21.152344 77.128906 21.023438 L 77.246094 19.714844 C 77.257812 19.605469 77.351562 19.515625 77.464844 19.515625 L 79.398438 19.515625 C 79.527344 19.515625 79.625 19.625 79.613281 19.753906 L 79.496094 21.0625 C 79.484375 21.175781 79.390625 21.261719 79.277344 21.261719 " fill-opacity="1" fill-rule="nonzero"/><path fill="#caddff" d="M 82.375 21.261719 L 80.441406 21.261719 C 80.3125 21.261719 80.214844 21.152344 80.226562 21.023438 L 80.34375 19.714844 C 80.355469 19.605469 80.449219 19.515625 80.5625 19.515625 L 82.496094 19.515625 C 82.625 19.515625 82.722656 19.625 82.710938 19.753906 L 82.589844 21.0625 C 82.582031 21.175781 82.488281 21.261719 82.375 21.261719 " fill-opacity="1" fill-rule="nonzero"/><path fill="#99b9ff" d="M 85.472656 21.261719 L 83.539062 21.261719 C 83.410156 21.261719 83.308594 21.152344 83.324219 21.023438 L 83.441406 19.714844 C 83.453125 19.605469 83.546875 19.515625 83.660156 19.515625 L 85.59375 19.515625 C 85.722656 19.515625 85.820312 19.625 85.808594 19.753906 L 85.6875 21.0625 C 85.679688 21.175781 85.585938 21.261719 85.472656 21.261719 " fill-opacity="1" fill-rule="nonzero"/><path fill="#caddff" d="M 88.570312 21.261719 L 86.636719 21.261719 C 86.507812 21.261719 86.40625 21.152344 86.421875 21.023438 L 86.539062 19.714844 C 86.550781 19.605469 86.644531 19.515625 86.757812 19.515625 L 88.691406 19.515625 C 88.816406 19.515625 88.917969 19.625 88.90625 19.753906 L 88.785156 21.0625 C 88.777344 21.175781 88.683594 21.261719 88.570312 21.261719 " fill-opacity="1" fill-rule="nonzero"/><path fill="#ffffff" d="M 133.0625 23.386719 L 97.523438 23.386719 C 96.527344 23.386719 95.742188 22.53125 95.832031 21.539062 L 96.769531 11.375 C 96.847656 10.5 97.582031 9.828125 98.460938 9.828125 L 134 9.828125 C 134.996094 9.828125 135.78125 10.683594 135.691406 11.679688 L 134.753906 21.839844 C 134.675781 22.714844 133.941406 23.386719 133.0625 23.386719 " fill-opacity="1" fill-rule="nonzero"/><path fill="#99b9ff" d="M 103.652344 13.722656 L 98.84375 13.722656 C 98.714844 13.722656 98.613281 13.613281 98.625 13.484375 L 98.746094 12.175781 C 98.757812 12.0625 98.851562 11.976562 98.964844 11.976562 L 103.773438 11.976562 C 103.902344 11.976562 104 12.085938 103.992188 12.214844 L 103.871094 13.519531 C 103.859375 13.636719 103.765625 13.722656 103.652344 13.722656 " fill-opacity="1" fill-rule="nonzero"/><path fill="#99b9ff" d="M 109.898438 16.21875 L 98.613281 16.21875 C 98.484375 16.21875 98.386719 16.109375 98.398438 15.980469 L 98.515625 14.671875 C 98.527344 14.5625 98.621094 14.472656 98.734375 14.472656 L 110.019531 14.472656 C 110.148438 14.472656 110.246094 14.585938 110.238281 14.710938 L 110.117188 16.019531 C 110.105469 16.132812 110.011719 16.21875 109.898438 16.21875 " fill-opacity="1" fill-rule="nonzero"/><path fill="#99b9ff" d="M 117.210938 18.714844 L 98.382812 18.714844 C 98.257812 18.714844 98.15625 18.605469 98.167969 18.476562 L 98.289062 17.171875 C 98.296875 17.058594 98.390625 16.972656 98.503906 16.972656 L 117.332031 16.972656 C 117.460938 16.972656 117.5625 17.082031 117.550781 17.210938 L 117.429688 18.515625 C 117.421875 18.628906 117.324219 18.714844 117.210938 18.714844 " fill-opacity="1" fill-rule="nonzero"/><path fill="#ffffff" d="M 131.875 39.488281 L 96.335938 39.488281 C 95.335938 39.488281 94.554688 38.632812 94.644531 37.636719 L 95.582031 27.476562 C 95.65625 26.601562 96.390625 25.929688 97.269531 25.929688 L 132.808594 25.929688 C 133.808594 25.929688 134.589844 26.785156 134.503906 27.777344 L 133.566406 37.941406 C 133.488281 38.816406 132.753906 39.488281 131.875 39.488281 " fill-opacity="1" fill-rule="nonzero"/><path fill="#caddff" d="M 99.378906 37.816406 L 97.445312 37.816406 C 97.316406 37.816406 97.21875 37.703125 97.226562 37.578125 L 97.5625 33.71875 C 97.574219 33.605469 97.667969 33.519531 97.78125 33.519531 L 99.714844 33.519531 C 99.839844 33.519531 99.941406 33.628906 99.929688 33.757812 L 99.59375 37.617188 C 99.585938 37.730469 99.492188 37.816406 99.378906 37.816406 " fill-opacity="1" fill-rule="nonzero"/><path fill="#caddff" d="M 102.476562 37.8125 L 100.546875 37.8125 C 100.417969 37.8125 100.316406 37.703125 100.328125 37.578125 L 100.804688 32.210938 C 100.8125 32.097656 100.90625 32.011719 101.023438 32.011719 L 102.953125 32.011719 C 103.082031 32.011719 103.183594 32.121094 103.171875 32.25 L 102.695312 37.613281 C 102.683594 37.726562 102.589844 37.8125 102.476562 37.8125 " fill-opacity="1" fill-rule="nonzero"/><path fill="#caddff" d="M 108.671875 37.816406 L 106.742188 37.816406 C 106.613281 37.816406 106.511719 37.703125 106.523438 37.578125 L 107.28125 29.429688 C 107.292969 29.316406 107.386719 29.230469 107.5 29.230469 L 109.433594 29.230469 C 109.5625 29.230469 109.660156 29.339844 109.648438 29.46875 L 108.890625 37.617188 C 108.878906 37.726562 108.785156 37.816406 108.671875 37.816406 " fill-opacity="1" fill-rule="nonzero"/><path fill="#caddff" d="M 111.769531 37.816406 L 109.839844 37.816406 C 109.710938 37.816406 109.609375 37.703125 109.621094 37.578125 L 110.292969 30.570312 C 110.304688 30.457031 110.398438 30.371094 110.511719 30.371094 L 112.445312 30.371094 C 112.570312 30.371094 112.671875 30.480469 112.660156 30.609375 L 111.988281 37.617188 C 111.980469 37.726562 111.882812 37.816406 111.769531 37.816406 " fill-opacity="1" fill-rule="nonzero"/><path fill="#99b9ff" d="M 105.609375 37.816406 L 103.679688 37.816406 C 103.550781 37.816406 103.449219 37.703125 103.460938 37.578125 L 104.316406 28.402344 C 104.328125 28.289062 104.421875 28.203125 104.535156 28.203125 L 106.464844 28.203125 C 106.59375 28.203125 106.695312 28.3125 106.683594 28.441406 L 105.828125 37.617188 C 105.820312 37.726562 105.726562 37.816406 105.609375 37.816406 " fill-opacity="1" fill-rule="nonzero"/><path fill="#99b9ff" d="M 114.914062 37.816406 L 112.980469 37.816406 C 112.855469 37.816406 112.753906 37.703125 112.765625 37.578125 L 112.933594 35.636719 C 112.945312 35.527344 113.039062 35.4375 113.152344 35.4375 L 115.085938 35.4375 C 115.210938 35.4375 115.3125 35.550781 115.300781 35.675781 L 115.132812 37.617188 C 115.121094 37.730469 115.027344 37.816406 114.914062 37.816406 " fill-opacity="1" fill-rule="nonzero"/><path fill="#caddff" d="M 127.515625 37.875 L 125.582031 37.875 C 125.453125 37.875 125.355469 37.765625 125.363281 37.636719 L 125.699219 33.777344 C 125.710938 33.664062 125.804688 33.578125 125.917969 33.578125 L 127.851562 33.578125 C 127.976562 33.578125 128.078125 33.6875 128.066406 33.816406 L 127.730469 37.675781 C 127.722656 37.789062 127.628906 37.875 127.515625 37.875 " fill-opacity="1" fill-rule="nonzero"/><path fill="#caddff" d="M 118.011719 37.8125 L 116.082031 37.8125 C 115.953125 37.8125 115.851562 37.703125 115.863281 37.578125 L 116.339844 32.210938 C 116.347656 32.097656 116.445312 32.011719 116.558594 32.011719 L 118.488281 32.011719 C 118.617188 32.011719 118.71875 32.121094 118.707031 32.25 L 118.230469 37.613281 C 118.21875 37.726562 118.125 37.8125 118.011719 37.8125 " fill-opacity="1" fill-rule="nonzero"/><path fill="#caddff" d="M 124.269531 37.859375 L 122.335938 37.859375 C 122.207031 37.859375 122.109375 37.75 122.117188 37.621094 L 122.59375 32.257812 C 122.605469 32.144531 122.699219 32.058594 122.8125 32.058594 L 124.746094 32.058594 C 124.875 32.058594 124.972656 32.167969 124.960938 32.292969 L 124.484375 37.660156 C 124.476562 37.773438 124.382812 37.859375 124.269531 37.859375 " fill-opacity="1" fill-rule="nonzero"/><path fill="#99b9ff" d="M 121.148438 37.8125 L 119.214844 37.8125 C 119.085938 37.8125 118.988281 37.703125 118.996094 37.578125 L 119.664062 30.480469 C 119.675781 30.367188 119.769531 30.28125 119.882812 30.28125 L 121.816406 30.28125 C 121.941406 30.28125 122.042969 30.390625 122.03125 30.519531 L 121.367188 37.617188 C 121.355469 37.726562 121.261719 37.8125 121.148438 37.8125 " fill-opacity="1" fill-rule="nonzero"/><path fill="#000000" d="M 50.636719 77.554688 C 41.335938 78.34375 33.769531 86.542969 33.769531 95.828125 C 33.769531 105.117188 41.335938 112.027344 50.636719 111.238281 C 55 110.867188 59.132812 108.863281 62.28125 105.589844 L 74.507812 92.390625 L 63.574219 82.457031 C 63.476562 82.371094 63.386719 82.28125 63.296875 82.1875 C 60.09375 78.832031 55.476562 77.140625 50.636719 77.554688 Z M 92.070312 90.890625 L 104.03125 101.757812 C 107.230469 104.675781 111.464844 106.070312 115.96875 105.683594 C 125.273438 104.894531 132.839844 96.695312 132.839844 87.410156 C 132.839844 78.125 125.273438 71.210938 115.96875 72 C 111.675781 72.367188 107.589844 74.320312 104.457031 77.511719 Z M 115.96875 118.058594 C 108.15625 118.722656 100.804688 116.308594 95.277344 111.261719 L 83.292969 100.371094 L 70.988281 113.660156 C 70.960938 113.6875 70.933594 113.71875 70.90625 113.746094 C 65.429688 119.460938 58.234375 122.964844 50.636719 123.609375 C 34.5 124.980469 21.375 112.992188 21.375 96.882812 C 21.375 80.773438 34.5 66.550781 50.636719 65.179688 C 58.960938 64.472656 66.902344 67.34375 72.449219 73.066406 L 83.285156 82.910156 L 95.773438 69.421875 C 95.8125 69.378906 95.855469 69.335938 95.894531 69.292969 C 101.347656 63.695312 108.476562 60.265625 115.96875 59.628906 C 132.105469 58.257812 145.234375 70.246094 145.234375 86.355469 C 145.234375 102.464844 132.105469 116.6875 115.96875 118.058594 " fill-opacity="1" fill-rule="nonzero"/><path fill="#99b9ff" d="M 52.582031 73.730469 C 43.28125 74.519531 35.710938 82.71875 35.710938 92.003906 C 35.710938 101.292969 43.28125 108.203125 52.582031 107.414062 C 56.941406 107.042969 61.078125 105.039062 64.226562 101.769531 L 76.453125 88.566406 L 65.519531 78.632812 C 65.421875 78.546875 65.332031 78.457031 65.242188 78.363281 C 62.039062 75.007812 57.421875 73.320312 52.582031 73.730469 Z M 94.015625 87.066406 L 105.976562 97.933594 C 109.171875 100.851562 113.410156 102.246094 117.914062 101.863281 C 127.21875 101.070312 134.785156 92.871094 134.785156 83.585938 C 134.785156 74.300781 127.21875 67.386719 117.914062 68.179688 C 113.621094 68.542969 109.535156 70.5 106.402344 73.6875 Z M 117.914062 114.234375 C 110.097656 114.898438 102.75 112.484375 97.222656 107.4375 L 85.238281 96.546875 L 72.933594 109.835938 C 72.90625 109.863281 72.878906 109.894531 72.851562 109.921875 C 67.375 115.640625 60.175781 119.140625 52.582031 119.789062 C 36.445312 121.160156 23.320312 109.167969 23.320312 93.058594 C 23.320312 76.949219 36.445312 62.726562 52.582031 61.355469 C 60.90625 60.648438 68.84375 63.519531 74.394531 69.242188 L 85.230469 79.085938 L 97.71875 65.597656 C 97.757812 65.554688 97.800781 65.511719 97.839844 65.46875 C 103.292969 59.875 110.421875 56.441406 117.914062 55.804688 C 134.050781 54.433594 147.179688 66.425781 147.179688 82.535156 C 147.179688 98.644531 134.050781 112.863281 117.914062 114.234375 " fill-opacity="1" fill-rule="nonzero"/><path fill="#ffffff" d="M 73.585938 106.582031 C 71.996094 106.71875 70.40625 106.246094 69.195312 105.136719 C 66.78125 102.921875 66.789062 99.003906 69.210938 96.386719 L 91.066406 72.78125 C 93.488281 70.164062 97.414062 69.835938 99.832031 72.050781 C 102.246094 74.265625 102.238281 78.183594 99.816406 80.800781 L 77.960938 104.40625 C 76.75 105.710938 75.167969 106.449219 73.585938 106.582031 " fill-opacity="1" fill-rule="nonzero"/><path fill="#ffffff" d="M 127.769531 111.203125 C 125.445312 111.398438 123.21875 110.28125 122.160156 108.132812 C 120.699219 105.171875 122.019531 101.371094 125.113281 99.644531 C 130.988281 96.375 134.785156 90.070312 134.785156 83.585938 C 134.785156 77.101562 130.988281 71.445312 125.113281 69.171875 C 122.019531 67.972656 120.699219 64.398438 122.160156 61.183594 C 123.625 57.972656 127.320312 56.335938 130.414062 57.535156 C 135.355469 59.445312 139.535156 62.753906 142.507812 67.089844 C 145.566406 71.550781 147.179688 76.890625 147.179688 82.535156 C 147.179688 88.175781 145.566406 93.789062 142.507812 98.769531 C 139.535156 103.613281 135.355469 107.628906 130.414062 110.382812 C 129.558594 110.859375 128.65625 111.125 127.769531 111.203125 " fill-opacity="1" fill-rule="nonzero"/><path fill="#ffffff" d="M 32.835938 110.339844 C 30.738281 110.515625 28.691406 109.625 27.527344 107.804688 C 24.773438 103.492188 23.320312 98.394531 23.320312 93.058594 C 23.320312 76.949219 36.445312 62.726562 52.582031 61.355469 C 60.980469 60.644531 68.980469 63.570312 74.539062 69.390625 C 76.800781 71.761719 76.554688 75.691406 73.988281 78.167969 C 71.421875 80.648438 67.503906 80.734375 65.242188 78.363281 C 62.035156 75.007812 57.421875 73.320312 52.582031 73.730469 C 43.28125 74.519531 35.710938 82.71875 35.710938 92.003906 C 35.710938 95.082031 36.550781 98.019531 38.132812 100.5 C 39.90625 103.269531 38.964844 107.15625 36.039062 109.171875 C 35.035156 109.863281 33.929688 110.246094 32.835938 110.339844 " fill-opacity="1" fill-rule="nonzero"/><g clip-path="url(#1b19d9bd0d)"><g clip-path="url(#2c1a1350a0)"><path fill="#000000" d="M 65.6875 87.601562 C 65.058594 84.789062 64.636719 82.058594 64.636719 82.058594 L 41.507812 89.339844 C 40.585938 91.96875 41.113281 100.113281 41.375 103.527344 C 41.46875 104.726562 41.683594 106.550781 41.957031 108.6875 C 45.230469 108.988281 48.75 109.105469 52.375 108.882812 C 52.460938 106.921875 52.445312 105.304688 52.5 104.535156 C 52.691406 101.996094 53.480469 98.929688 53.480469 98.929688 C 54.183594 100.335938 54.851562 104.566406 55.324219 108.667969 C 59.109375 108.304688 62.945312 107.734375 66.65625 106.835938 C 66.632812 106.398438 66.859375 92.828125 65.6875 87.601562 " fill-opacity="1" fill-rule="nonzero"/></g></g><g clip-path="url(#b562733ee1)"><g clip-path="url(#4a1b759b9e)"><path fill="#caddff" d="M 62.574219 89.171875 C 60.996094 89.171875 59.722656 88.429688 59.027344 87.011719 C 58.96875 86.886719 59.019531 86.738281 59.144531 86.675781 C 59.269531 86.613281 59.421875 86.667969 59.480469 86.792969 C 60.40625 88.675781 62.441406 89.183594 64.925781 88.144531 C 65.058594 88.09375 65.203125 88.152344 65.257812 88.28125 C 65.3125 88.410156 65.25 88.558594 65.121094 88.613281 C 64.21875 88.988281 63.359375 89.171875 62.574219 89.171875 " fill-opacity="1" fill-rule="nonzero"/></g></g><g clip-path="url(#fb176fca20)"><g clip-path="url(#dbd4e3e78c)"><path fill="#caddff" d="M 52.648438 93.546875 C 52.566406 93.546875 52.488281 93.511719 52.441406 93.441406 C 51.582031 92.214844 51.660156 90.355469 51.664062 90.277344 C 51.671875 90.136719 51.789062 90.03125 51.929688 90.035156 C 52.066406 90.042969 52.175781 90.160156 52.167969 90.300781 C 52.167969 90.316406 52.097656 92.070312 52.855469 93.152344 C 52.933594 93.265625 52.90625 93.421875 52.792969 93.503906 C 52.746094 93.535156 52.699219 93.546875 52.648438 93.546875 " fill-opacity="1" fill-rule="nonzero"/></g></g><g clip-path="url(#809bb6d1e0)"><g clip-path="url(#94dc398268)"><path fill="#1c74bc" d="M 77.675781 30.519531 L 74.742188 28.566406 C 74.273438 28.253906 73.644531 28.402344 73.355469 28.882812 C 66.257812 40.734375 54.539062 45.5 50.796875 46.769531 C 50.054688 47.023438 49.25 47.042969 48.496094 46.832031 L 47.09375 46.4375 L 42.035156 47.839844 L 41.253906 48.890625 C 40.296875 50.175781 39.039062 51.210938 37.59375 51.898438 L 36.769531 52.292969 C 36.769531 52.292969 33.25 54.472656 31.375 57.152344 C 29.753906 59.476562 27.628906 71.117188 32.476562 77.347656 C 33.460938 78.617188 35.15625 79.097656 36.65625 78.523438 C 38.308594 77.894531 39.558594 77.34375 40.660156 75.691406 C 40.777344 75.515625 40.71875 89.339844 40.71875 89.339844 C 50.71875 93.207031 65.585938 81.71875 65.585938 81.71875 C 62.125 72.910156 60.683594 66.210938 60.097656 61.785156 C 59.644531 58.367188 61.125 54.972656 63.957031 52.992188 C 74.457031 45.644531 77.480469 34.359375 78.089844 31.535156 C 78.175781 31.144531 78.007812 30.742188 77.675781 30.519531 " fill-opacity="1" fill-rule="nonzero"/></g></g><g clip-path="url(#4e6862cdb4)"><g clip-path="url(#4006f37bcb)"><path fill="#000000" d="M 45.21875 56.675781 C 45.082031 56.675781 44.96875 56.5625 44.96875 56.421875 L 44.976562 52.808594 C 44.976562 52.671875 45.085938 52.558594 45.226562 52.558594 C 45.367188 52.558594 45.480469 52.671875 45.480469 52.8125 L 45.472656 56.425781 C 45.472656 56.5625 45.359375 56.675781 45.21875 56.675781 " fill-opacity="1" fill-rule="nonzero"/></g></g><g clip-path="url(#f98cb8f8da)"><g clip-path="url(#5ec00a0d49)"><path fill="#000000" d="M 46.199219 52.046875 C 46.199219 51.8125 46.390625 51.621094 46.625 51.621094 C 46.859375 51.621094 47.050781 51.8125 47.050781 52.046875 C 47.050781 52.28125 46.859375 52.46875 46.625 52.46875 C 46.390625 52.46875 46.199219 52.28125 46.199219 52.046875 " fill-opacity="1" fill-rule="nonzero"/></g></g><g clip-path="url(#47ff64ea1f)"><g clip-path="url(#177dd0618e)"><path fill="#ffffff" d="M 74.636719 29.15625 C 74.527344 28.953125 74.523438 28.710938 74.640625 28.511719 C 74.792969 28.25 75.050781 27.804688 75.421875 27.148438 C 76.078125 25.992188 76.679688 23.933594 77.535156 23.078125 C 78.394531 22.226562 81.613281 19.460938 82.316406 19.5625 C 83.023438 19.664062 82.972656 20.46875 82.265625 21.171875 C 81.5625 21.875 80.605469 22.675781 80.605469 22.675781 C 80.605469 22.675781 81.210938 22.425781 81.914062 22.980469 C 82.617188 23.53125 82.089844 24.039062 82.480469 24.300781 C 82.976562 24.632812 83.0625 25.191406 82.871094 25.515625 C 82.4375 26.257812 81.332031 25.480469 81.148438 26.75 C 81.023438 27.628906 80.277344 28.433594 78.546875 29.4375 C 78.085938 29.707031 77.679688 30.0625 77.34375 30.480469 C 77.203125 30.65625 76.980469 30.742188 76.761719 30.703125 C 76.234375 30.609375 75.257812 30.28125 74.636719 29.15625 " fill-opacity="1" fill-rule="nonzero"/></g></g><g clip-path="url(#9696520c0c)"><g clip-path="url(#f57e11f5c1)"><path fill="#000000" d="M 82.261719 19.8125 C 81.695312 19.8125 78.816406 22.15625 77.714844 23.257812 C 77.207031 23.765625 76.777344 24.765625 76.363281 25.734375 C 76.117188 26.304688 75.886719 26.839844 75.644531 27.273438 C 75.273438 27.929688 75.011719 28.375 74.859375 28.640625 C 74.789062 28.761719 74.789062 28.90625 74.859375 29.035156 C 75.429688 30.066406 76.324219 30.367188 76.808594 30.453125 C 76.933594 30.476562 77.0625 30.425781 77.144531 30.324219 C 77.507812 29.871094 77.9375 29.5 78.421875 29.21875 C 80.042969 28.28125 80.78125 27.53125 80.898438 26.710938 C 81.03125 25.792969 81.613281 25.71875 82.042969 25.660156 C 82.355469 25.621094 82.539062 25.585938 82.652344 25.386719 C 82.773438 25.1875 82.726562 24.769531 82.339844 24.507812 C 82.058594 24.324219 82.0625 24.046875 82.0625 23.84375 C 82.066406 23.617188 82.066406 23.417969 81.757812 23.175781 C 81.1875 22.730469 80.71875 22.902344 80.699219 22.910156 C 80.585938 22.957031 80.453125 22.910156 80.390625 22.804688 C 80.328125 22.699219 80.351562 22.5625 80.445312 22.484375 C 80.453125 22.476562 81.398438 21.679688 82.089844 20.992188 C 82.5 20.582031 82.617188 20.1875 82.550781 19.992188 C 82.539062 19.957031 82.503906 19.84375 82.28125 19.8125 C 82.277344 19.8125 82.269531 19.8125 82.261719 19.8125 Z M 76.867188 30.964844 C 76.820312 30.964844 76.769531 30.960938 76.71875 30.949219 C 76.148438 30.847656 75.085938 30.496094 74.414062 29.277344 C 74.261719 28.996094 74.265625 28.65625 74.421875 28.386719 C 74.578125 28.121094 74.832031 27.679688 75.203125 27.023438 C 75.433594 26.617188 75.660156 26.089844 75.898438 25.535156 C 76.332031 24.523438 76.78125 23.480469 77.359375 22.898438 C 77.742188 22.515625 81.390625 19.179688 82.355469 19.3125 C 82.695312 19.359375 82.933594 19.546875 83.03125 19.832031 C 83.175781 20.265625 82.949219 20.84375 82.445312 21.347656 C 82.078125 21.714844 81.640625 22.109375 81.308594 22.40625 C 81.535156 22.457031 81.796875 22.566406 82.070312 22.78125 C 82.570312 23.171875 82.570312 23.582031 82.566406 23.847656 C 82.566406 24.039062 82.574219 24.058594 82.617188 24.089844 C 83.230469 24.496094 83.339844 25.214844 83.089844 25.644531 C 82.84375 26.0625 82.433594 26.117188 82.109375 26.160156 C 81.699219 26.214844 81.476562 26.246094 81.398438 26.785156 C 81.257812 27.769531 80.441406 28.628906 78.675781 29.65625 C 78.246094 29.90625 77.863281 30.234375 77.539062 30.636719 C 77.375 30.847656 77.125 30.964844 76.867188 30.964844 " fill-opacity="1" fill-rule="nonzero"/></g></g><g clip-path="url(#972599a773)"><g clip-path="url(#abc7194d86)"><path fill="#ffffff" d="M 51.054688 75.511719 L 41.636719 78.304688 C 41.242188 78.425781 40.828125 78.199219 40.710938 77.804688 L 36.984375 65.296875 C 36.867188 64.902344 37.089844 64.488281 37.484375 64.371094 L 46.90625 61.574219 C 47.300781 61.457031 47.714844 61.683594 47.832031 62.074219 L 51.554688 74.585938 C 51.671875 74.980469 51.449219 75.394531 51.054688 75.511719 " fill-opacity="1" fill-rule="nonzero"/></g></g><g clip-path="url(#77770a6d0c)"><g clip-path="url(#7f1b2392e1)"><path fill="#1c74bc" d="M 43.867188 75.582031 L 42.890625 75.875 C 42.75 75.914062 42.597656 75.835938 42.558594 75.691406 L 42.28125 74.761719 C 42.238281 74.617188 42.320312 74.46875 42.460938 74.425781 L 43.4375 74.136719 C 43.578125 74.09375 43.730469 74.175781 43.769531 74.316406 L 44.046875 75.25 C 44.089844 75.390625 44.011719 75.542969 43.867188 75.582031 " fill-opacity="1" fill-rule="nonzero"/></g></g><g clip-path="url(#572682bcc0)"><g clip-path="url(#0171c9052d)"><path fill="#1c74bc" d="M 46.117188 74.882812 L 45.144531 75.171875 C 45 75.214844 44.851562 75.132812 44.808594 74.992188 L 43.878906 71.867188 C 43.835938 71.726562 43.917969 71.578125 44.058594 71.535156 L 45.035156 71.246094 C 45.179688 71.203125 45.328125 71.285156 45.371094 71.425781 L 46.300781 74.546875 C 46.34375 74.691406 46.261719 74.839844 46.117188 74.882812 " fill-opacity="1" fill-rule="nonzero"/></g></g><g clip-path="url(#20afa92c29)"><g clip-path="url(#149c2abc7f)"><path fill="#1c74bc" d="M 48.382812 74.21875 L 47.40625 74.507812 C 47.265625 74.550781 47.113281 74.46875 47.070312 74.328125 L 44.429688 65.453125 C 44.386719 65.308594 44.46875 65.160156 44.609375 65.117188 L 45.585938 64.828125 C 45.726562 64.785156 45.878906 64.867188 45.921875 65.007812 L 48.5625 73.882812 C 48.605469 74.027344 48.523438 74.175781 48.382812 74.21875 " fill-opacity="1" fill-rule="nonzero"/></g></g><g clip-path="url(#741fa88a6c)"><g clip-path="url(#d9c5b85de8)"><path fill="#ffffff" d="M 36.632812 67.957031 C 37.15625 67.347656 37.554688 67.277344 37.554688 67.277344 L 37.890625 68.335938 C 37.890625 68.335938 41.054688 64.683594 42.667969 66.921875 C 43.667969 68.320312 40.28125 70.921875 39.328125 72.445312 C 38.792969 73.300781 37.976562 74.554688 36.722656 74.460938 C 35.84375 74.390625 35.453125 74.09375 35.222656 73.402344 C 34.921875 72.5 35.777344 71.640625 35.726562 70.46875 C 35.667969 69.074219 35.980469 68.714844 36.632812 67.957031 " fill-opacity="1" fill-rule="nonzero"/></g></g><g clip-path="url(#16ee6b01b8)"><g clip-path="url(#f685f87cc6)"><path fill="#000000" d="M 36.824219 68.121094 C 36.1875 68.859375 35.925781 69.164062 35.980469 70.460938 C 36.003906 71.054688 35.820312 71.570312 35.652344 72.023438 C 35.480469 72.503906 35.328125 72.921875 35.460938 73.324219 C 35.664062 73.925781 35.984375 74.148438 36.742188 74.207031 C 36.78125 74.210938 36.820312 74.210938 36.855469 74.210938 C 37.925781 74.210938 38.664062 73.03125 39.113281 72.3125 C 39.417969 71.828125 39.945312 71.25 40.503906 70.640625 C 41.632812 69.40625 43.039062 67.875 42.460938 67.070312 C 42.175781 66.671875 41.828125 66.46875 41.402344 66.449219 C 39.933594 66.382812 38.101562 68.480469 38.082031 68.503906 C 38.023438 68.570312 37.929688 68.605469 37.839844 68.585938 C 37.75 68.566406 37.679688 68.5 37.648438 68.414062 L 37.398438 67.621094 C 37.257812 67.703125 37.058594 67.851562 36.824219 68.121094 Z M 36.863281 74.71875 C 36.8125 74.71875 36.757812 74.714844 36.703125 74.710938 C 35.75 74.636719 35.25 74.28125 34.984375 73.484375 C 34.792969 72.917969 34.988281 72.375 35.179688 71.851562 C 35.335938 71.421875 35.496094 70.976562 35.476562 70.480469 C 35.414062 68.984375 35.777344 68.5625 36.441406 67.792969 C 37.007812 67.136719 37.457031 67.039062 37.507812 67.027344 C 37.632812 67.003906 37.753906 67.078125 37.792969 67.199219 L 38 67.851562 C 38.621094 67.214844 40.089844 65.886719 41.425781 65.945312 C 42.007812 65.972656 42.496094 66.253906 42.871094 66.777344 C 43.6875 67.910156 42.191406 69.542969 40.875 70.980469 C 40.332031 71.574219 39.820312 72.132812 39.542969 72.582031 C 39.035156 73.386719 38.203125 74.71875 36.863281 74.71875 " fill-opacity="1" fill-rule="nonzero"/></g></g><g clip-path="url(#7a19b66116)"><g clip-path="url(#f48901c2cf)"><path fill="#ffffff" d="M 47.558594 59.683594 C 47.53125 59.683594 47.5 59.679688 47.472656 59.667969 C 47.339844 59.617188 47.273438 59.472656 47.324219 59.34375 L 48.375 56.539062 C 48.425781 56.410156 48.570312 56.34375 48.699219 56.390625 C 48.832031 56.441406 48.898438 56.585938 48.847656 56.71875 L 47.796875 59.519531 C 47.757812 59.621094 47.660156 59.683594 47.558594 59.683594 " fill-opacity="1" fill-rule="nonzero"/></g></g><g clip-path="url(#551e7f70d5)"><g clip-path="url(#859bbbe43d)"><path fill="#ffffff" d="M 48.699219 60.820312 C 48.632812 60.820312 48.5625 60.792969 48.515625 60.738281 C 48.421875 60.636719 48.425781 60.476562 48.527344 60.382812 L 53.003906 56.269531 C 53.105469 56.171875 53.265625 56.179688 53.359375 56.28125 C 53.453125 56.386719 53.445312 56.542969 53.34375 56.640625 L 48.871094 60.753906 C 48.824219 60.800781 48.761719 60.820312 48.699219 60.820312 " fill-opacity="1" fill-rule="nonzero"/></g></g><g clip-path="url(#6aae0891b4)"><g clip-path="url(#8a9a0bed95)"><path fill="#ffffff" d="M 46.070312 50.421875 L 45.238281 50.6875 C 45.117188 50.722656 45.3125 52.976562 45.191406 52.992188 C 44.222656 53.136719 41.183594 53.152344 41.980469 50.285156 C 42.210938 49.460938 42.191406 48.585938 41.929688 47.769531 L 40.777344 44.171875 L 45.910156 42.527344 L 47.53125 47.582031 C 47.910156 48.769531 47.257812 50.039062 46.070312 50.421875 " fill-opacity="1" fill-rule="nonzero"/></g></g><g clip-path="url(#4b106a275a)"><g clip-path="url(#eca664abb6)"><path fill="#000000" d="M 46.070312 50.421875 Z M 41.09375 44.335938 L 42.167969 47.691406 C 42.449219 48.5625 42.46875 49.480469 42.226562 50.351562 C 42.007812 51.128906 42.078125 51.722656 42.429688 52.125 C 43.007812 52.78125 44.261719 52.835938 44.980469 52.765625 C 44.984375 52.550781 44.972656 52.144531 44.960938 51.855469 C 44.925781 50.699219 44.917969 50.523438 45.160156 50.445312 L 45.992188 50.179688 C 46.503906 50.015625 46.917969 49.664062 47.164062 49.1875 C 47.410156 48.710938 47.453125 48.167969 47.292969 47.660156 L 45.746094 42.847656 Z M 44.464844 53.292969 C 43.734375 53.292969 42.667969 53.15625 42.054688 52.457031 C 41.578125 51.921875 41.472656 51.167969 41.738281 50.214844 C 41.957031 49.441406 41.9375 48.621094 41.6875 47.84375 L 40.535156 44.246094 C 40.515625 44.183594 40.519531 44.113281 40.550781 44.054688 C 40.582031 43.996094 40.636719 43.949219 40.699219 43.929688 L 45.835938 42.289062 C 45.96875 42.246094 46.109375 42.320312 46.152344 42.453125 L 47.773438 47.507812 C 47.976562 48.144531 47.921875 48.824219 47.613281 49.417969 C 47.304688 50.015625 46.785156 50.457031 46.144531 50.660156 L 45.453125 50.882812 C 45.441406 51.089844 45.457031 51.527344 45.46875 51.839844 C 45.503906 52.992188 45.511719 53.199219 45.226562 53.242188 C 45.148438 53.253906 44.855469 53.292969 44.464844 53.292969 " fill-opacity="1" fill-rule="nonzero"/></g></g><g clip-path="url(#3b4e887e90)"><g clip-path="url(#d5d600cef9)"><path fill="#ffffff" d="M 46.917969 44.351562 L 41.40625 46.113281 L 39.867188 41.316406 C 39.246094 39.371094 40.320312 37.289062 42.265625 36.667969 L 44.613281 35.917969 C 45.265625 35.710938 45.964844 36.070312 46.175781 36.71875 L 47.96875 42.316406 C 48.242188 43.167969 47.769531 44.078125 46.917969 44.351562 " fill-opacity="1" fill-rule="nonzero"/></g></g><g clip-path="url(#46e25fb38a)"><g clip-path="url(#5cef5fc497)"><path fill="#000000" d="M 41.40625 46.363281 C 41.296875 46.363281 41.199219 46.296875 41.164062 46.1875 L 39.628906 41.394531 C 39.304688 40.390625 39.394531 39.320312 39.878906 38.382812 C 40.363281 37.441406 41.183594 36.75 42.191406 36.425781 L 44.535156 35.675781 C 45.320312 35.425781 46.164062 35.859375 46.414062 36.644531 L 48.207031 42.238281 C 48.359375 42.714844 48.320312 43.21875 48.089844 43.664062 C 47.859375 44.109375 47.472656 44.4375 46.996094 44.589844 L 45 45.226562 C 44.316406 45.445312 43.609375 45.515625 42.894531 45.4375 C 42.753906 45.421875 42.65625 45.296875 42.671875 45.15625 C 42.6875 45.019531 42.808594 44.917969 42.949219 44.933594 C 43.59375 45.007812 44.230469 44.941406 44.847656 44.746094 L 46.839844 44.109375 C 47.191406 44 47.472656 43.757812 47.640625 43.433594 C 47.808594 43.109375 47.839844 42.738281 47.726562 42.390625 L 45.933594 36.796875 C 45.769531 36.277344 45.210938 35.992188 44.691406 36.15625 L 42.34375 36.90625 C 41.464844 37.1875 40.75 37.792969 40.328125 38.613281 C 39.90625 39.429688 39.828125 40.363281 40.109375 41.242188 L 41.644531 46.035156 C 41.6875 46.167969 41.617188 46.308594 41.484375 46.351562 C 41.457031 46.359375 41.429688 46.363281 41.40625 46.363281 " fill-opacity="1" fill-rule="nonzero"/></g></g><g clip-path="url(#86c4a6afb1)"><g clip-path="url(#1996bd893c)"><path fill="#000000" d="M 40.8125 44.117188 L 39.460938 42.839844 C 39.011719 42.417969 38.664062 41.890625 38.453125 41.308594 C 38.449219 41.300781 38.445312 41.292969 38.441406 41.28125 C 38.128906 40.414062 37.96875 39.5 38.015625 38.582031 C 38.171875 35.664062 40.179688 34.515625 42.183594 34.554688 C 42.191406 34.554688 42.195312 34.554688 42.199219 34.554688 C 42.925781 34.570312 43.613281 34.234375 44.050781 33.65625 L 44.523438 33.035156 C 44.851562 32.601562 45.503906 32.582031 45.851562 33 C 46.292969 33.535156 46.71875 34.351562 46.476562 35.371094 L 46.167969 36.253906 L 41.632812 37.625 C 41.25 37.742188 41.007812 38.121094 41.058594 38.515625 L 41.316406 40.546875 C 41.332031 40.65625 41.265625 40.761719 41.160156 40.796875 L 40.707031 40.945312 L 39.851562 40.839844 L 40.8125 44.117188 " fill-opacity="1" fill-rule="nonzero"/></g></g><g clip-path="url(#47cc919960)"><g clip-path="url(#339e29bc6f)"><path fill="#ffffff" d="M 40.707031 40.945312 L 40.304688 40.714844 C 39.972656 40.523438 39.546875 40.640625 39.367188 40.976562 C 39.238281 41.207031 39.257812 41.492188 39.414062 41.707031 L 39.691406 42.082031 C 39.925781 42.398438 40.25 42.636719 40.621094 42.765625 L 41.0625 42.921875 L 40.707031 40.945312 " fill-opacity="1" fill-rule="nonzero"/></g></g><path fill="#000000" d="M 124.332031 98.539062 C 124.332031 98.539062 128.390625 100.050781 129.984375 98.777344 C 131.574219 97.503906 127.515625 95.355469 126.5625 95.515625 C 125.605469 95.675781 124.332031 98.539062 124.332031 98.539062 " fill-opacity="1" fill-rule="nonzero"/><path fill="#ffffff" d="M 105.410156 129.308594 L 108.953125 135.507812 L 110.871094 132.851562 L 107.773438 126.800781 L 105.410156 129.308594 " fill-opacity="1" fill-rule="nonzero"/><path fill="#000000" d="M 105.722656 129.347656 L 108.976562 135.042969 L 110.574219 132.828125 L 107.710938 127.234375 Z M 108.953125 135.761719 C 108.949219 135.761719 108.945312 135.761719 108.941406 135.761719 C 108.855469 135.753906 108.777344 135.707031 108.734375 135.632812 L 105.191406 129.433594 C 105.136719 129.339844 105.152344 129.21875 105.226562 129.136719 L 107.589844 126.628906 C 107.644531 126.570312 107.726562 126.539062 107.808594 126.550781 C 107.890625 126.5625 107.960938 126.613281 107.996094 126.6875 L 111.097656 132.738281 C 111.140625 132.820312 111.132812 132.921875 111.078125 133 L 109.15625 135.65625 C 109.109375 135.722656 109.035156 135.761719 108.953125 135.761719 " fill-opacity="1" fill-rule="nonzero"/><path fill="#000000" d="M 107.726562 134.5625 C 108.660156 136.488281 111.023438 141.15625 113.300781 143.394531 C 113.859375 143.941406 114.796875 143.6875 114.996094 142.933594 C 115.707031 140.238281 116.183594 134.621094 113.527344 130.195312 C 113.527344 130.195312 112.265625 130.046875 109.902344 130.492188 L 110.429688 132.703125 L 110.140625 132.496094 C 109.703125 132.1875 109.109375 132.210938 108.703125 132.5625 L 108.023438 133.144531 C 107.613281 133.496094 107.492188 134.078125 107.726562 134.5625 " fill-opacity="1" fill-rule="nonzero"/><path fill="#ffffff" d="M 113.675781 142.84375 C 113.644531 142.84375 113.617188 142.839844 113.585938 142.828125 C 113.457031 142.777344 113.390625 142.632812 113.4375 142.5 C 115.445312 137.199219 112.734375 130.949219 112.707031 130.886719 C 112.652344 130.761719 112.707031 130.613281 112.835938 130.554688 C 112.964844 130.5 113.113281 130.558594 113.167969 130.683594 C 113.285156 130.949219 115.988281 137.1875 113.910156 142.679688 C 113.871094 142.78125 113.777344 142.84375 113.675781 142.84375 " fill-opacity="1" fill-rule="nonzero"/><path fill="#ffffff" d="M 109.507812 137.234375 C 109.425781 137.234375 109.34375 137.195312 109.296875 137.121094 C 109.21875 137.003906 109.253906 136.847656 109.367188 136.773438 L 110.734375 135.886719 C 110.851562 135.8125 111.007812 135.84375 111.082031 135.960938 C 111.160156 136.078125 111.125 136.234375 111.007812 136.3125 L 109.644531 137.195312 C 109.601562 137.222656 109.554688 137.234375 109.507812 137.234375 " fill-opacity="1" fill-rule="nonzero"/><path fill="#ffffff" d="M 109.984375 139.074219 C 109.910156 139.074219 109.835938 139.039062 109.785156 138.972656 C 109.699219 138.863281 109.722656 138.703125 109.832031 138.621094 L 111.457031 137.375 C 111.566406 137.289062 111.726562 137.308594 111.808594 137.421875 C 111.894531 137.53125 111.875 137.6875 111.761719 137.773438 L 110.140625 139.019531 C 110.09375 139.054688 110.039062 139.074219 109.984375 139.074219 " fill-opacity="1" fill-rule="nonzero"/><path fill="#ffffff" d="M 94.199219 129.457031 C 94.199219 129.605469 90.949219 136.6875 90.949219 136.6875 L 94.640625 136.984375 L 97.148438 130.933594 L 94.199219 129.457031 " fill-opacity="1" fill-rule="nonzero"/><path fill="#000000" d="M 91.332031 136.464844 L 94.476562 136.71875 L 96.824219 131.054688 L 94.328125 129.804688 C 94.09375 130.378906 93.394531 131.960938 91.332031 136.464844 Z M 94.640625 137.234375 C 94.632812 137.234375 94.625 137.234375 94.621094 137.234375 L 90.929688 136.941406 C 90.847656 136.933594 90.773438 136.886719 90.734375 136.816406 C 90.691406 136.746094 90.6875 136.660156 90.722656 136.582031 C 91.964844 133.871094 93.839844 129.746094 93.949219 129.410156 C 93.964844 129.339844 94.003906 129.28125 94.066406 129.242188 C 94.140625 129.199219 94.230469 129.191406 94.308594 129.234375 L 97.261719 130.707031 C 97.378906 130.765625 97.433594 130.90625 97.382812 131.03125 L 94.871094 137.078125 C 94.832031 137.175781 94.742188 137.234375 94.640625 137.234375 " fill-opacity="1" fill-rule="nonzero"/><path fill="#000000" d="M 94.34375 135.214844 C 94.34375 135.214844 93.605469 133.441406 91.6875 134.328125 C 91.6875 134.328125 88.167969 139.414062 86.859375 143.613281 C 86.488281 144.800781 87.707031 145.871094 88.84375 145.359375 C 91.496094 144.160156 95.65625 141.648438 98.035156 136.984375 C 98.035156 136.984375 97.296875 135.066406 96.113281 134.179688 L 94.34375 135.214844 " fill-opacity="1" fill-rule="nonzero"/><path fill="#ffffff" d="M 87.933594 144.332031 C 87.78125 144.332031 87.691406 144.320312 87.667969 144.316406 C 87.53125 144.296875 87.433594 144.167969 87.453125 144.03125 C 87.476562 143.890625 87.601562 143.796875 87.738281 143.816406 C 87.785156 143.824219 91.667969 144.253906 96.945312 136.984375 C 97.027344 136.871094 97.183594 136.84375 97.296875 136.925781 C 97.410156 137.007812 97.433594 137.167969 97.351562 137.28125 C 92.597656 143.832031 88.9375 144.332031 87.933594 144.332031 " fill-opacity="1" fill-rule="nonzero"/><path fill="#ffffff" d="M 90.949219 140.335938 C 90.90625 140.335938 90.863281 140.324219 90.824219 140.300781 L 89.054688 139.269531 C 88.933594 139.199219 88.890625 139.042969 88.960938 138.921875 C 89.03125 138.800781 89.1875 138.761719 89.308594 138.832031 L 91.078125 139.863281 C 91.199219 139.933594 91.238281 140.089844 91.167969 140.210938 C 91.121094 140.289062 91.039062 140.335938 90.949219 140.335938 " fill-opacity="1" fill-rule="nonzero"/><path fill="#ffffff" d="M 91.835938 139.007812 C 91.796875 139.007812 91.753906 138.996094 91.714844 138.976562 L 89.796875 137.945312 C 89.675781 137.878906 89.628906 137.722656 89.695312 137.601562 C 89.761719 137.480469 89.914062 137.433594 90.039062 137.5 L 91.957031 138.53125 C 92.078125 138.597656 92.125 138.75 92.058594 138.875 C 92.011719 138.957031 91.925781 139.007812 91.835938 139.007812 " fill-opacity="1" fill-rule="nonzero"/><path fill="#000000" d="M 113.085938 93.746094 C 113.085938 93.746094 103.46875 95.464844 96.535156 102.734375 C 94.785156 104.566406 94.167969 107.207031 94.917969 109.628906 C 96.460938 114.597656 99.8125 123.667969 105.410156 130.492188 L 109.691406 126.800781 C 109.691406 126.800781 108.65625 118.242188 105.855469 112.929688 C 103.050781 107.617188 119.429688 96.109375 119.429688 96.109375 L 113.085938 93.746094 " fill-opacity="1" fill-rule="nonzero"/><path fill="#000000" d="M 93.015625 130.785156 L 98.035156 132.261719 C 98.035156 132.261719 107.183594 112.933594 109.839844 110.128906 C 112.496094 107.324219 117.660156 102.75 123.117188 101.125 C 128.578125 99.503906 128.578125 95.371094 128.578125 95.371094 L 119.28125 92.714844 C 119.28125 92.714844 106.296875 98.324219 102.019531 104.667969 C 97.738281 111.011719 93.015625 130.785156 93.015625 130.785156 " fill-opacity="1" fill-rule="nonzero"/><path fill="#caddff" d="M 97.851562 114.316406 C 97.824219 114.316406 97.792969 114.3125 97.765625 114.300781 C 97.636719 114.257812 97.566406 114.113281 97.609375 113.980469 C 99.140625 109.570312 100.554688 106.386719 101.808594 104.527344 C 104.90625 99.9375 112.425781 95.761719 116.636719 93.679688 C 116.757812 93.617188 116.910156 93.667969 116.972656 93.792969 C 117.035156 93.917969 116.984375 94.070312 116.859375 94.132812 C 112.695312 96.191406 105.257812 100.316406 102.226562 104.808594 C 100.996094 106.632812 99.605469 109.777344 98.089844 114.144531 C 98.050781 114.25 97.953125 114.316406 97.851562 114.316406 " fill-opacity="1" fill-rule="nonzero"/><path fill="#caddff" d="M 116.746094 94.160156 C 116.652344 94.160156 116.566406 94.105469 116.519531 94.019531 C 116.457031 93.894531 116.511719 93.742188 116.636719 93.679688 C 118.160156 92.925781 119.171875 92.488281 119.183594 92.484375 C 119.3125 92.429688 119.457031 92.488281 119.515625 92.617188 C 119.570312 92.742188 119.511719 92.890625 119.382812 92.949219 C 119.371094 92.953125 118.371094 93.386719 116.859375 94.132812 C 116.824219 94.152344 116.785156 94.160156 116.746094 94.160156 " fill-opacity="1" fill-rule="nonzero"/><path fill="#caddff" d="M 102.667969 123.035156 C 102.632812 123.035156 102.59375 123.027344 102.554688 123.007812 C 102.429688 122.945312 102.382812 122.792969 102.445312 122.671875 C 106.082031 115.445312 108.507812 111.167969 109.65625 109.953125 C 109.75 109.851562 109.910156 109.847656 110.011719 109.945312 C 110.113281 110.039062 110.117188 110.199219 110.023438 110.300781 C 108.921875 111.460938 106.457031 115.816406 102.894531 122.898438 C 102.851562 122.984375 102.761719 123.035156 102.667969 123.035156 " fill-opacity="1" fill-rule="nonzero"/><path fill="#1c74bc" d="M 137.042969 77.984375 C 134.335938 72.570312 129.878906 71.777344 129.878906 71.777344 L 122.238281 71.140625 C 119.851562 70.976562 117.3125 72.453125 116.367188 74.652344 L 109.347656 91.035156 C 109.347656 91.035156 110.777344 94.855469 117.148438 95.492188 C 123.515625 96.128906 127.890625 95.730469 129.960938 98.277344 C 131.324219 99.957031 131.28125 88.757812 130.496094 79.902344 L 137.042969 77.984375 " fill-opacity="1" fill-rule="nonzero"/><path fill="#ffffff" d="M 116.667969 92.308594 L 120.171875 90.71875 L 122.875 91.832031 C 122.875 91.832031 137.394531 89.992188 130.902344 79.605469 C 130.875 79.5625 136.003906 78.523438 136.003906 78.523438 C 136.003906 78.523438 141.917969 92.628906 123.195312 92.945312 C 123.195312 92.945312 122.238281 93.265625 120.964844 92.628906 C 119.691406 91.992188 117.464844 93.265625 116.667969 92.308594 " fill-opacity="1" fill-rule="nonzero"/><path fill="#000000" d="M 120.023438 92.1875 C 120.398438 92.1875 120.757812 92.242188 121.078125 92.402344 C 122.246094 92.984375 123.105469 92.710938 123.113281 92.707031 C 123.136719 92.699219 123.164062 92.695312 123.1875 92.695312 C 129.28125 92.589844 133.367188 91.015625 135.328125 88.007812 C 137.679688 84.40625 136.207031 79.804688 135.84375 78.816406 C 134.25 79.136719 132.085938 79.582031 131.292969 79.765625 C 132.910156 82.472656 133.25 84.851562 132.300781 86.847656 C 130.28125 91.101562 123.207031 92.042969 122.90625 92.082031 C 122.863281 92.085938 122.820312 92.082031 122.78125 92.066406 L 120.175781 90.992188 L 117.175781 92.355469 C 117.570312 92.492188 118.152344 92.40625 118.761719 92.316406 C 119.183594 92.253906 119.613281 92.1875 120.023438 92.1875 Z M 122.558594 93.277344 C 122.125 93.277344 121.53125 93.191406 120.855469 92.855469 C 120.328125 92.589844 119.570312 92.703125 118.835938 92.8125 C 117.929688 92.949219 116.988281 93.089844 116.472656 92.472656 C 116.425781 92.410156 116.40625 92.328125 116.421875 92.253906 C 116.441406 92.175781 116.492188 92.113281 116.5625 92.078125 L 120.066406 90.488281 C 120.128906 90.457031 120.203125 90.457031 120.265625 90.484375 L 122.910156 91.574219 C 123.625 91.46875 130.042969 90.429688 131.847656 86.628906 C 132.746094 84.730469 132.355469 82.410156 130.6875 79.738281 C 130.644531 79.671875 130.636719 79.582031 130.667969 79.507812 C 130.742188 79.339844 130.746094 79.328125 135.953125 78.277344 C 136.070312 78.253906 136.1875 78.316406 136.234375 78.425781 C 136.328125 78.652344 138.53125 84.023438 135.75 88.285156 C 133.695312 91.433594 129.484375 93.085938 123.234375 93.199219 C 123.140625 93.222656 122.902344 93.277344 122.558594 93.277344 " fill-opacity="1" fill-rule="nonzero"/><path fill="#1c74bc" d="M 130.207031 80.613281 L 137.316406 78.601562 L 137.042969 77.984375 C 137.042969 77.984375 136.234375 77.363281 136.082031 77.363281 C 135.925781 77.363281 131.90625 77.210938 131.90625 77.210938 L 129.433594 77.984375 L 130.207031 80.613281 " fill-opacity="1" fill-rule="nonzero"/><path fill="#000000" d="M 103.261719 93.355469 L 117.066406 93.355469 L 106.832031 77.613281 C 106.511719 77.121094 105.957031 76.824219 105.355469 76.824219 L 94.152344 76.824219 C 93.441406 76.824219 93.007812 77.585938 93.386719 78.167969 L 103.261719 93.355469 " fill-opacity="1" fill-rule="nonzero"/><path fill="#ffffff" d="M 100.511719 82.34375 C 100.957031 83.03125 101.921875 83.589844 102.664062 83.589844 C 103.40625 83.589844 103.644531 83.03125 103.195312 82.34375 C 102.746094 81.652344 101.78125 81.09375 101.039062 81.09375 C 100.296875 81.09375 100.0625 81.652344 100.511719 82.34375 " fill-opacity="1" fill-rule="nonzero"/><path fill="#000000" d="M 101.039062 81.34375 C 100.902344 81.34375 100.660156 81.371094 100.570312 81.535156 C 100.488281 81.683594 100.546875 81.933594 100.722656 82.203125 C 101.121094 82.820312 102.011719 83.339844 102.664062 83.339844 C 102.800781 83.339844 103.042969 83.316406 103.132812 83.148438 C 103.214844 83 103.160156 82.75 102.984375 82.480469 C 102.582031 81.863281 101.691406 81.34375 101.039062 81.34375 Z M 102.664062 83.84375 C 101.835938 83.84375 100.792969 83.246094 100.296875 82.480469 C 100.015625 82.046875 99.953125 81.613281 100.128906 81.292969 C 100.285156 81 100.609375 80.839844 101.039062 80.839844 C 101.871094 80.839844 102.910156 81.441406 103.40625 82.203125 C 103.6875 82.636719 103.75 83.070312 103.574219 83.390625 C 103.417969 83.683594 103.09375 83.84375 102.664062 83.84375 " fill-opacity="1" fill-rule="nonzero"/><path fill="#000000" d="M 103.613281 94.539062 L 126.09375 94.539062 C 126.3125 94.539062 126.492188 94.359375 126.492188 94.136719 L 126.492188 93.25 L 103.214844 93.25 L 103.214844 94.136719 C 103.214844 94.359375 103.394531 94.539062 103.613281 94.539062 " fill-opacity="1" fill-rule="nonzero"/><path fill="#000000" d="M 131.3125 34.527344 C 137.160156 32.683594 148.277344 41.957031 146.753906 48.855469 C 146.332031 50.757812 144.859375 52.898438 142.773438 53.949219 C 139.074219 55.8125 135.128906 53.402344 134.179688 54.902344 C 133.355469 56.203125 136.28125 58.074219 135.929688 60.792969 C 135.40625 64.828125 128.15625 66.777344 127.332031 67 C 126.71875 67.164062 118.066406 69.375 113.964844 64.773438 C 112.972656 63.664062 111.679688 61.519531 112.371094 60.15625 C 113.03125 58.855469 115.0625 59.136719 115.554688 57.765625 C 115.980469 56.582031 114.621094 55.921875 114.757812 54.585938 C 115.023438 52.007812 120.347656 51.875 120.96875 49.171875 C 121.460938 47.011719 118.371094 45.742188 118.898438 43.601562 C 119.324219 41.875 121.550781 41.828125 125.105469 39.621094 C 129.363281 36.980469 129.097656 35.226562 131.3125 34.527344 " fill-opacity="1" fill-rule="nonzero"/><path fill="#ffffff" d="M 124.785156 70.660156 C 124.644531 70.589844 122.730469 68.332031 121.609375 67 C 121.695312 66.632812 121.679688 66.511719 121.648438 65.953125 C 121.648438 65.953125 122.230469 65.371094 122 64.617188 C 121.726562 63.738281 120.894531 64.441406 120.894531 64.441406 C 120.894531 64.441406 120.507812 63.769531 119.054688 64.929688 C 117.605469 66.09375 116.070312 64.679688 116.070312 64.679688 C 116.070312 64.679688 116.070312 65.550781 116.835938 66.609375 C 117.261719 67.195312 117.332031 67.96875 117.351562 68.6875 L 118.164062 68.570312 C 118.613281 69.101562 118.945312 69.363281 119.5625 69.617188 C 119.5625 69.617188 120.046875 69.527344 120.550781 69.109375 L 121.445312 71.140625 L 120.535156 71.617188 C 120.535156 71.617188 120.328125 72.890625 122.71875 73.207031 C 125.105469 73.527344 127.015625 71.617188 127.015625 71.617188 C 127.015625 71.617188 125.742188 71.140625 124.785156 70.660156 " fill-opacity="1" fill-rule="nonzero"/><path fill="#000000" d="M 120.785156 71.769531 C 120.820312 72.042969 121.070312 72.734375 122.75 72.957031 C 124.457031 73.1875 125.925781 72.195312 126.535156 71.699219 C 126.082031 71.523438 125.3125 71.207031 124.675781 70.886719 C 124.59375 70.847656 124.464844 70.78125 121.414062 67.164062 C 121.363281 67.101562 121.34375 67.019531 121.363281 66.945312 C 121.433594 66.628906 121.429688 66.53125 121.402344 66.054688 L 121.398438 65.964844 C 121.394531 65.894531 121.421875 65.824219 121.472656 65.773438 C 121.492188 65.753906 121.941406 65.285156 121.757812 64.691406 C 121.710938 64.542969 121.648438 64.457031 121.574219 64.433594 C 121.417969 64.386719 121.160156 64.550781 121.058594 64.636719 C 121 64.683594 120.921875 64.703125 120.851562 64.691406 C 120.777344 64.679688 120.710938 64.632812 120.675781 64.570312 C 120.675781 64.570312 120.628906 64.519531 120.519531 64.503906 C 120.351562 64.480469 119.957031 64.535156 119.214844 65.128906 C 118.226562 65.917969 117.144531 65.65625 116.429688 65.25 C 116.527344 65.566406 116.707031 65.996094 117.042969 66.460938 C 117.445312 67.015625 117.558594 67.710938 117.59375 68.398438 L 118.128906 68.320312 C 118.214844 68.308594 118.300781 68.339844 118.359375 68.40625 C 118.773438 68.898438 119.070312 69.128906 119.582031 69.351562 C 119.722656 69.3125 120.050781 69.195312 120.390625 68.914062 C 120.453125 68.863281 120.53125 68.84375 120.609375 68.863281 C 120.6875 68.882812 120.75 68.933594 120.785156 69.007812 L 121.675781 71.039062 C 121.726562 71.160156 121.679688 71.300781 121.5625 71.363281 Z M 123.265625 73.496094 C 123.074219 73.496094 122.882812 73.484375 122.683594 73.457031 C 121.652344 73.320312 120.933594 72.992188 120.554688 72.480469 C 120.222656 72.035156 120.277344 71.621094 120.285156 71.578125 C 120.296875 71.496094 120.347656 71.429688 120.417969 71.394531 L 121.117188 71.023438 L 120.449219 69.5 C 120.003906 69.789062 119.625 69.859375 119.609375 69.863281 C 119.558594 69.871094 119.507812 69.867188 119.464844 69.847656 C 118.867188 69.601562 118.511719 69.347656 118.066406 68.839844 L 117.390625 68.9375 C 117.316406 68.949219 117.246094 68.925781 117.191406 68.878906 C 117.136719 68.835938 117.101562 68.765625 117.101562 68.695312 C 117.082031 67.996094 117.011719 67.28125 116.632812 66.757812 C 115.828125 65.644531 115.820312 64.71875 115.820312 64.679688 C 115.820312 64.578125 115.878906 64.488281 115.96875 64.449219 C 116.0625 64.40625 116.167969 64.425781 116.242188 64.492188 C 116.296875 64.542969 117.636719 65.746094 118.898438 64.734375 C 119.601562 64.167969 120.1875 63.925781 120.636719 64.011719 C 120.75 64.035156 120.84375 64.074219 120.914062 64.121094 C 121.105469 64.003906 121.414062 63.863281 121.714844 63.949219 C 121.886719 64 122.117188 64.144531 122.238281 64.542969 C 122.460938 65.253906 122.082031 65.828125 121.910156 66.042969 C 121.933594 66.46875 121.941406 66.636719 121.882812 66.933594 C 124.371094 69.886719 124.832031 70.371094 124.917969 70.445312 C 125.847656 70.910156 127.089844 71.375 127.101562 71.378906 C 127.183594 71.410156 127.242188 71.480469 127.261719 71.5625 C 127.28125 71.648438 127.253906 71.734375 127.191406 71.796875 C 127.117188 71.871094 125.464844 73.496094 123.265625 73.496094 " fill-opacity="1" fill-rule="nonzero"/><path fill="#ffffff" d="M 120.550781 69.109375 L 120.816406 68.871094 L 120.550781 69.109375 " fill-opacity="1" fill-rule="nonzero"/><path fill="#000000" d="M 120.550781 69.363281 C 120.484375 69.363281 120.414062 69.332031 120.363281 69.277344 C 120.273438 69.175781 120.28125 69.015625 120.382812 68.921875 L 120.644531 68.683594 C 120.75 68.589844 120.910156 68.601562 121 68.703125 C 121.09375 68.808594 121.085938 68.96875 120.984375 69.058594 L 120.71875 69.296875 C 120.671875 69.339844 120.613281 69.363281 120.550781 69.363281 " fill-opacity="1" fill-rule="nonzero"/><path fill="#ffffff" d="M 59.402344 142.484375 C 59.34375 142.484375 59.28125 142.460938 59.230469 142.414062 C 59.128906 142.320312 59.125 142.160156 59.21875 142.058594 L 87.5 111.742188 C 87.59375 111.636719 87.753906 111.632812 87.855469 111.726562 C 87.957031 111.824219 87.964844 111.984375 87.867188 112.085938 L 59.589844 142.402344 C 59.539062 142.457031 59.472656 142.484375 59.402344 142.484375 " fill-opacity="1" fill-rule="nonzero"/><path fill="#000000" d="M 68.511719 124.933594 C 68.449219 124.933594 68.390625 124.910156 68.339844 124.867188 C 68.238281 124.769531 68.234375 124.613281 68.328125 124.507812 L 73.320312 119.15625 C 73.417969 119.054688 73.578125 119.046875 73.679688 119.144531 C 73.78125 119.238281 73.785156 119.398438 73.691406 119.5 L 68.695312 124.855469 C 68.648438 124.90625 68.582031 124.933594 68.511719 124.933594 " fill-opacity="1" fill-rule="nonzero"/><path fill="#000000" d="M 50.714844 144.015625 C 50.652344 144.015625 50.589844 143.992188 50.542969 143.945312 C 50.441406 143.851562 50.433594 143.691406 50.53125 143.589844 L 63.378906 129.816406 C 63.472656 129.714844 63.632812 129.710938 63.734375 129.804688 C 63.835938 129.898438 63.839844 130.058594 63.746094 130.160156 L 50.898438 143.933594 C 50.847656 143.988281 50.78125 144.015625 50.714844 144.015625 " fill-opacity="1" fill-rule="nonzero"/><path fill="#000000" d="M 23.320312 140.324219 C 22.167969 140.324219 21.230469 139.390625 21.230469 138.238281 C 21.230469 138.097656 21.34375 137.984375 21.484375 137.984375 C 21.625 137.984375 21.738281 138.097656 21.738281 138.238281 C 21.738281 139.109375 22.445312 139.820312 23.320312 139.820312 C 24.191406 139.820312 24.902344 139.109375 24.902344 138.238281 C 24.902344 137.367188 24.191406 136.65625 23.320312 136.65625 C 23.179688 136.65625 23.066406 136.542969 23.066406 136.402344 C 23.066406 136.265625 23.179688 136.152344 23.320312 136.152344 C 24.46875 136.152344 25.40625 137.085938 25.40625 138.238281 C 25.40625 139.390625 24.46875 140.324219 23.320312 140.324219 " fill-opacity="1" fill-rule="nonzero"/><path fill="#000000" d="M 85.8125 45.019531 C 85.75 45.019531 85.6875 45 85.640625 44.953125 C 85.539062 44.859375 85.535156 44.699219 85.628906 44.597656 L 89.015625 40.964844 C 89.113281 40.863281 89.273438 40.855469 89.375 40.953125 C 89.476562 41.046875 89.480469 41.207031 89.386719 41.308594 L 85.996094 44.941406 C 85.949219 44.992188 85.878906 45.019531 85.8125 45.019531 " fill-opacity="1" fill-rule="nonzero"/><path fill="#000000" d="M 73.734375 57.96875 C 73.671875 57.96875 73.613281 57.945312 73.5625 57.902344 C 73.460938 57.804688 73.457031 57.648438 73.550781 57.542969 L 82.269531 48.199219 C 82.363281 48.097656 82.523438 48.089844 82.625 48.1875 C 82.726562 48.28125 82.734375 48.441406 82.636719 48.542969 L 73.917969 57.890625 C 73.871094 57.941406 73.804688 57.96875 73.734375 57.96875 " fill-opacity="1" fill-rule="nonzero"/><path fill="#000000" d="M 27.34375 135.089844 C 27.28125 135.089844 27.222656 135.066406 27.171875 135.019531 C 27.070312 134.925781 27.066406 134.765625 27.160156 134.664062 L 37.191406 123.910156 C 37.289062 123.804688 37.449219 123.800781 37.550781 123.894531 C 37.652344 123.992188 37.65625 124.148438 37.5625 124.253906 L 27.527344 135.007812 C 27.480469 135.0625 27.410156 135.089844 27.34375 135.089844 " fill-opacity="1" fill-rule="nonzero"/><path fill="#1c74bc" d="M 87.316406 64.121094 C 86.125 64.695312 84.695312 64.191406 84.121094 63 C 83.550781 61.808594 84.050781 60.378906 85.242188 59.808594 C 86.433594 59.234375 87.863281 59.738281 88.4375 60.929688 C 89.007812 62.121094 88.507812 63.550781 87.316406 64.121094 Z M 90.816406 60.300781 L 90.414062 59.464844 L 89.421875 59.691406 C 89.296875 59.515625 89.15625 59.351562 89.003906 59.199219 L 89.375 58.257812 L 88.609375 57.734375 L 87.867188 58.425781 C 87.667969 58.335938 87.464844 58.265625 87.253906 58.210938 L 87.109375 57.203125 L 86.179688 57.132812 L 85.882812 58.105469 C 85.671875 58.125 85.457031 58.164062 85.246094 58.226562 L 84.617188 57.429688 L 83.777344 57.832031 L 84.007812 58.820312 C 83.828125 58.949219 83.664062 59.089844 83.515625 59.242188 L 82.570312 58.867188 L 82.046875 59.632812 L 82.738281 60.378906 C 82.648438 60.574219 82.578125 60.777344 82.523438 60.988281 L 81.519531 61.136719 L 81.449219 62.0625 L 82.417969 62.359375 C 82.441406 62.574219 82.480469 62.785156 82.539062 62.996094 L 81.742188 63.628906 L 82.144531 64.464844 L 83.132812 64.238281 C 83.261719 64.414062 83.402344 64.578125 83.554688 64.730469 L 83.179688 65.671875 L 83.949219 66.195312 L 84.691406 65.503906 C 84.890625 65.59375 85.09375 65.664062 85.300781 65.71875 L 85.449219 66.726562 L 86.375 66.796875 L 86.675781 65.824219 C 86.886719 65.804688 87.101562 65.765625 87.3125 65.707031 L 87.941406 66.5 L 88.78125 66.097656 L 88.550781 65.109375 C 88.730469 64.980469 88.894531 64.839844 89.042969 64.6875 L 89.988281 65.0625 L 90.511719 64.296875 L 89.820312 63.550781 C 89.90625 63.355469 89.980469 63.152344 90.035156 62.941406 L 91.039062 62.792969 L 91.109375 61.867188 L 90.140625 61.570312 C 90.117188 61.355469 90.078125 61.144531 90.019531 60.933594 L 90.816406 60.300781 " fill-opacity="1" fill-rule="nonzero"/><path fill="#1c74bc" d="M 98.089844 55.144531 C 96.050781 56.125 93.605469 55.261719 92.628906 53.222656 C 91.648438 51.1875 92.507812 48.738281 94.546875 47.761719 C 96.585938 46.78125 99.03125 47.640625 100.011719 49.679688 C 100.988281 51.71875 100.128906 54.164062 98.089844 55.144531 Z M 104.082031 48.609375 L 103.394531 47.175781 L 101.699219 47.5625 C 101.480469 47.257812 101.242188 46.976562 100.980469 46.71875 L 101.621094 45.109375 L 100.308594 44.210938 L 99.035156 45.394531 C 98.699219 45.242188 98.347656 45.121094 97.988281 45.027344 L 97.738281 43.308594 L 96.152344 43.1875 L 95.640625 44.84375 C 95.277344 44.882812 94.914062 44.953125 94.554688 45.050781 L 93.476562 43.691406 L 92.039062 44.378906 L 92.429688 46.070312 C 92.125 46.289062 91.84375 46.53125 91.585938 46.792969 L 89.976562 46.152344 L 89.078125 47.464844 L 90.261719 48.738281 C 90.109375 49.074219 89.988281 49.425781 89.894531 49.78125 L 88.175781 50.035156 L 88.050781 51.621094 L 89.710938 52.128906 C 89.75 52.496094 89.820312 52.859375 89.917969 53.21875 L 88.554688 54.296875 L 89.246094 55.730469 L 90.9375 55.34375 C 91.15625 55.644531 91.398438 55.925781 91.65625 56.183594 L 91.019531 57.796875 L 92.332031 58.695312 L 93.605469 57.511719 C 93.941406 57.664062 94.289062 57.785156 94.648438 57.878906 L 94.902344 59.597656 L 96.488281 59.71875 L 96.996094 58.058594 C 97.359375 58.023438 97.722656 57.953125 98.085938 57.851562 L 99.164062 59.214844 L 100.597656 58.527344 L 100.210938 56.832031 C 100.511719 56.617188 100.792969 56.375 101.050781 56.113281 L 102.664062 56.753906 L 103.5625 55.441406 L 102.378906 54.167969 C 102.527344 53.832031 102.652344 53.480469 102.746094 53.125 L 104.464844 52.871094 L 104.585938 51.285156 L 102.925781 50.777344 C 102.890625 50.410156 102.820312 50.046875 102.71875 49.6875 L 104.082031 48.609375 " fill-opacity="1" fill-rule="nonzero"/></svg>