<svg xmlns="http://www.w3.org/2000/svg" xmlns:xlink="http://www.w3.org/1999/xlink" width="230" zoomAndPan="magnify" viewBox="0 0 172.5 149.999998" height="200" preserveAspectRatio="xMidYMid meet" version="1.0"><defs><filter x="0%" y="0%" width="100%" height="100%" id="ff2e37fd43"><feColorMatrix values="0 0 0 0 1 0 0 0 0 1 0 0 0 0 1 0 0 0 1 0" color-interpolation-filters="sRGB"/></filter><clipPath id="c5c7246e88"><path d="M 2 31 L 168.933594 31 L 168.933594 149 L 2 149 Z M 2 31 " clip-rule="nonzero"/></clipPath><mask id="a2298e6366"><g filter="url(#ff2e37fd43)"><rect x="-17.25" width="207" fill="#000000" y="-15" height="179.999997" fill-opacity="0.2"/></g></mask><clipPath id="786024ce52"><path d="M 0.808594 0.488281 L 21.386719 0.488281 L 21.386719 15.5625 L 0.808594 15.5625 Z M 0.808594 0.488281 " clip-rule="nonzero"/></clipPath><clipPath id="cb84a9e5ab"><rect x="0" width="22" y="0" height="16"/></clipPath><mask id="35b068cae9"><g filter="url(#ff2e37fd43)"><rect x="-17.25" width="207" fill="#000000" y="-15" height="179.999997" fill-opacity="0.2"/></g></mask><clipPath id="c7e8a6a931"><path d="M 0.132812 0.273438 L 20.714844 0.273438 L 20.714844 13.914062 L 0.132812 13.914062 Z M 0.132812 0.273438 " clip-rule="nonzero"/></clipPath><clipPath id="2a2ce655e9"><rect x="0" width="21" y="0" height="14"/></clipPath><clipPath id="320708d279"><path d="M 40 142 L 59 142 L 59 149.78125 L 40 149.78125 Z M 40 142 " clip-rule="nonzero"/></clipPath></defs><g clip-path="url(#c5c7246e88)"><path fill="#d4def9" d="M 166.699219 140.515625 C 166.445312 141.386719 166.152344 142.222656 165.828125 143.09375 C 165.171875 144.800781 164.410156 146.472656 163.464844 148.074219 L 27.839844 148.074219 C 27.914062 146.402344 27.984375 144.730469 27.984375 143.09375 L 27.984375 143.023438 C 27.984375 142.1875 27.984375 141.351562 27.949219 140.515625 C 27.511719 132.410156 24.53125 125.140625 20.207031 118.164062 C 13.882812 107.953125 5.308594 98.214844 3.238281 86.003906 C 0.257812 68.523438 7.050781 49.953125 25.441406 44.9375 C 37.105469 41.777344 48.917969 46.136719 60.402344 48.0625 C 69.777344 49.625 79.40625 47.84375 88.238281 44.644531 C 89.835938 44.066406 91.472656 43.445312 93.070312 42.828125 C 103.757812 38.648438 114.367188 33.636719 125.597656 32.074219 C 133.628906 30.945312 141.042969 32.507812 145.546875 38.433594 C 146.675781 39.886719 147.582031 41.628906 148.308594 43.664062 C 148.417969 44.027344 148.566406 44.355469 148.636719 44.71875 C 148.636719 44.71875 148.636719 44.71875 148.636719 44.753906 C 149.507812 47.664062 149.871094 50.644531 149.980469 53.695312 C 150.199219 59.726562 149.472656 65.941406 150.34375 71.828125 C 151.109375 76.917969 152.960938 81.605469 155.179688 86.148438 C 159.03125 94.035156 164.007812 101.484375 166.191406 110.023438 C 166.808594 112.457031 167.351562 115.003906 167.714844 117.582031 C 168.878906 125.25 168.84375 133.210938 166.699219 140.515625 Z M 166.699219 140.515625 " fill-opacity="1" fill-rule="nonzero"/></g><path fill="#1c74bc" d="M 137.515625 121.652344 L 138.753906 121.507812 L 137.625 122.199219 C 138.28125 125.394531 140.207031 127.613281 140.351562 127.757812 C 140.824219 128.265625 142.570312 127.105469 142.894531 126.8125 C 144.167969 125.652344 144.785156 123.980469 145.332031 122.417969 C 146.019531 120.488281 146.636719 118.5625 147.472656 116.675781 C 148.128906 115.183594 148.855469 113.730469 149.546875 112.242188 L 148.929688 110.421875 L 150.453125 110.277344 C 150.601562 109.953125 150.746094 109.625 150.890625 109.296875 C 151.507812 107.84375 152.125 106.355469 152.671875 104.863281 C 152.378906 104.972656 145.222656 107.660156 140.859375 112.167969 L 141.441406 113.078125 L 139.769531 113.402344 C 139.226562 114.09375 138.753906 114.820312 138.390625 115.585938 C 137.371094 117.765625 137.226562 119.871094 137.515625 121.652344 Z M 137.515625 121.652344 " fill-opacity="1" fill-rule="nonzero"/><path fill="#1c74bc" d="M 122.472656 117.511719 C 122.617188 117.691406 122.761719 117.875 122.90625 118.054688 C 124.253906 119.945312 125.707031 121.726562 127.304688 123.398438 L 128.105469 122.890625 C 128.105469 122.890625 127.851562 123.398438 127.667969 123.761719 C 129.050781 125.214844 130.539062 126.558594 132.066406 127.867188 C 132.5 128.230469 132.972656 128.59375 133.519531 128.8125 L 134.171875 128.121094 C 134.171875 128.121094 134.171875 128.628906 134.171875 128.992188 C 134.429688 129.03125 134.644531 129.066406 134.902344 129.03125 C 135.226562 128.992188 136.390625 128.738281 136.570312 128.449219 C 136.570312 128.449219 138.132812 124.921875 135.15625 121.796875 C 134.828125 121.472656 134.5 121.179688 134.136719 120.925781 L 133.628906 121.582031 L 132.792969 120.164062 C 131.992188 119.800781 131.15625 119.472656 130.359375 119.21875 C 128.578125 118.636719 126.6875 118.199219 124.832031 117.875 C 123.960938 117.726562 123.234375 117.621094 122.472656 117.511719 Z M 122.472656 117.511719 " fill-opacity="1" fill-rule="nonzero"/><path fill="#1c74bc" d="M 144.3125 130.847656 C 146.347656 131.71875 148.746094 130.957031 150.890625 129.648438 C 150.601562 129.066406 150.054688 127.902344 149.980469 127.832031 C 149.945312 127.757812 151.035156 128.628906 151.652344 129.140625 C 154.742188 127.105469 157.214844 124.234375 157.214844 124.234375 C 157.214844 124.234375 149.074219 123.722656 146.058594 125.289062 C 145.765625 125.433594 145.511719 125.613281 145.292969 125.796875 L 145.546875 126.414062 L 144.859375 126.230469 C 143.402344 128.085938 144.3125 130.847656 144.3125 130.847656 Z M 144.3125 130.847656 " fill-opacity="1" fill-rule="nonzero"/><path fill="#262a41" d="M 140.386719 136.808594 L 140.75 136.734375 C 140.714844 136.554688 138.0625 119.183594 148.164062 109.480469 L 147.910156 109.222656 C 137.664062 119.074219 140.351562 136.660156 140.386719 136.808594 Z M 140.386719 136.808594 " fill-opacity="1" fill-rule="nonzero"/><path fill="#262a41" d="M 139.988281 139.316406 L 140.351562 139.277344 C 140.351562 139.132812 139.226562 125.359375 127.703125 120.707031 L 127.558594 121.035156 C 138.863281 125.613281 139.988281 139.167969 139.988281 139.316406 Z M 139.988281 139.316406 " fill-opacity="1" fill-rule="nonzero"/><path fill="#262a41" d="M 140.898438 135.933594 C 140.933594 135.863281 145.511719 127.285156 152.378906 125.722656 L 152.308594 125.359375 C 145.257812 126.957031 140.605469 135.679688 140.570312 135.753906 Z M 140.898438 135.933594 " fill-opacity="1" fill-rule="nonzero"/><path fill="#262a41" d="M 133.082031 135.246094 L 136.535156 147.710938 L 143.769531 147.710938 L 147.183594 135.316406 C 147.183594 135.28125 147.183594 135.28125 147.183594 135.28125 L 147.183594 135.246094 Z M 133.082031 135.246094 " fill-opacity="1" fill-rule="nonzero"/><path fill="#ffffff" d="M 53.605469 56.3125 L 53.605469 117.65625 C 53.605469 119 54.585938 120.054688 55.824219 120.054688 L 151.289062 120.054688 C 152.527344 120.054688 153.507812 118.964844 153.507812 117.65625 L 153.507812 56.3125 C 153.507812 54.96875 152.527344 53.914062 151.289062 53.914062 L 55.824219 53.914062 C 54.585938 53.914062 53.605469 55.003906 53.605469 56.3125 Z M 53.605469 56.3125 " fill-opacity="1" fill-rule="nonzero"/><path fill="#262a41" d="M 55.824219 120.273438 L 151.289062 120.273438 C 152.636719 120.273438 153.6875 119.109375 153.6875 117.691406 L 153.6875 56.3125 C 153.6875 54.894531 152.597656 53.730469 151.289062 53.730469 L 55.824219 53.730469 C 54.515625 53.730469 53.421875 54.894531 53.421875 56.3125 L 53.421875 117.65625 C 53.421875 119.109375 54.476562 120.273438 55.824219 120.273438 Z M 151.289062 54.09375 C 152.417969 54.09375 153.324219 55.078125 153.324219 56.3125 L 153.324219 117.65625 C 153.324219 118.890625 152.417969 119.871094 151.289062 119.871094 L 55.824219 119.871094 C 54.695312 119.871094 53.789062 118.855469 53.789062 117.65625 L 53.789062 56.3125 C 53.789062 55.078125 54.695312 54.09375 55.824219 54.09375 Z M 151.289062 54.09375 " fill-opacity="1" fill-rule="nonzero"/><path fill="#262a41" d="M 53.605469 56.3125 L 53.605469 60.710938 L 153.542969 60.710938 L 153.542969 56.3125 C 153.542969 54.96875 152.5625 53.914062 151.328125 53.914062 L 55.824219 53.914062 C 54.585938 53.914062 53.605469 55.003906 53.605469 56.3125 Z M 53.605469 56.3125 " fill-opacity="1" fill-rule="nonzero"/><path fill="#ffffff" d="M 147.003906 57.546875 C 147.003906 57.691406 147.03125 57.832031 147.085938 57.964844 C 147.140625 58.097656 147.21875 58.214844 147.320312 58.320312 C 147.421875 58.421875 147.542969 58.5 147.675781 58.554688 C 147.808594 58.609375 147.949219 58.636719 148.09375 58.636719 C 148.238281 58.636719 148.375 58.609375 148.507812 58.554688 C 148.644531 58.5 148.761719 58.421875 148.863281 58.320312 C 148.964844 58.214844 149.042969 58.097656 149.097656 57.964844 C 149.15625 57.832031 149.183594 57.691406 149.183594 57.546875 C 149.183594 57.402344 149.15625 57.265625 149.097656 57.128906 C 149.042969 56.996094 148.964844 56.878906 148.863281 56.777344 C 148.761719 56.675781 148.644531 56.59375 148.507812 56.539062 C 148.375 56.484375 148.238281 56.457031 148.09375 56.457031 C 147.949219 56.457031 147.808594 56.484375 147.675781 56.539062 C 147.542969 56.59375 147.421875 56.675781 147.320312 56.777344 C 147.21875 56.878906 147.140625 56.996094 147.085938 57.128906 C 147.03125 57.265625 147.003906 57.402344 147.003906 57.546875 Z M 147.003906 57.546875 " fill-opacity="1" fill-rule="nonzero"/><path fill="#ffffff" d="M 141.585938 57.546875 C 141.585938 57.691406 141.613281 57.832031 141.671875 57.964844 C 141.726562 58.097656 141.804688 58.214844 141.90625 58.320312 C 142.007812 58.421875 142.125 58.5 142.261719 58.554688 C 142.394531 58.609375 142.53125 58.636719 142.675781 58.636719 C 142.820312 58.636719 142.960938 58.609375 143.09375 58.554688 C 143.226562 58.5 143.347656 58.421875 143.449219 58.320312 C 143.550781 58.214844 143.628906 58.097656 143.683594 57.964844 C 143.738281 57.832031 143.769531 57.691406 143.769531 57.546875 C 143.769531 57.402344 143.738281 57.265625 143.683594 57.128906 C 143.628906 56.996094 143.550781 56.878906 143.449219 56.777344 C 143.347656 56.675781 143.226562 56.59375 143.09375 56.539062 C 142.960938 56.484375 142.820312 56.457031 142.675781 56.457031 C 142.53125 56.457031 142.394531 56.484375 142.261719 56.539062 C 142.125 56.59375 142.007812 56.675781 141.90625 56.777344 C 141.804688 56.878906 141.726562 56.996094 141.671875 57.128906 C 141.613281 57.265625 141.585938 57.402344 141.585938 57.546875 Z M 141.585938 57.546875 " fill-opacity="1" fill-rule="nonzero"/><path fill="#ffffff" d="M 136.171875 57.546875 C 136.171875 57.691406 136.199219 57.832031 136.253906 57.964844 C 136.3125 58.097656 136.390625 58.214844 136.492188 58.320312 C 136.59375 58.421875 136.710938 58.5 136.84375 58.554688 C 136.980469 58.609375 137.117188 58.636719 137.261719 58.636719 C 137.40625 58.636719 137.546875 58.609375 137.679688 58.554688 C 137.8125 58.5 137.929688 58.421875 138.035156 58.320312 C 138.136719 58.214844 138.214844 58.097656 138.269531 57.964844 C 138.324219 57.832031 138.351562 57.691406 138.351562 57.546875 C 138.351562 57.402344 138.324219 57.265625 138.269531 57.128906 C 138.214844 56.996094 138.136719 56.878906 138.035156 56.777344 C 137.929688 56.675781 137.8125 56.59375 137.679688 56.539062 C 137.546875 56.484375 137.40625 56.457031 137.261719 56.457031 C 137.117188 56.457031 136.980469 56.484375 136.84375 56.539062 C 136.710938 56.59375 136.59375 56.675781 136.492188 56.777344 C 136.390625 56.878906 136.3125 56.996094 136.253906 57.128906 C 136.199219 57.265625 136.171875 57.402344 136.171875 57.546875 Z M 136.171875 57.546875 " fill-opacity="1" fill-rule="nonzero"/><path fill="#1c74bc" d="M 105.609375 97.414062 L 118.472656 84.550781 L 124.871094 90.980469 L 132.429688 83.714844 L 144.421875 95.742188 L 144.894531 95.269531 L 132.429688 82.804688 L 124.90625 90.035156 L 118.472656 83.605469 L 105.609375 96.433594 L 88.492188 79.316406 L 79.042969 88.765625 L 63.234375 72.957031 L 62.761719 73.429688 L 79.042969 89.710938 L 88.492188 80.261719 Z M 105.609375 97.414062 " fill-opacity="1" fill-rule="nonzero"/><path fill="#262a41" d="M 61.308594 72.664062 C 61.308594 72.859375 61.347656 73.042969 61.421875 73.222656 C 61.496094 73.398438 61.597656 73.558594 61.734375 73.691406 C 61.871094 73.828125 62.027344 73.933594 62.207031 74.007812 C 62.386719 74.082031 62.570312 74.117188 62.761719 74.117188 C 62.957031 74.117188 63.140625 74.082031 63.320312 74.007812 C 63.496094 73.933594 63.65625 73.828125 63.792969 73.691406 C 63.925781 73.558594 64.03125 73.398438 64.105469 73.222656 C 64.179688 73.042969 64.21875 72.859375 64.21875 72.664062 C 64.21875 72.472656 64.179688 72.289062 64.105469 72.109375 C 64.03125 71.929688 63.925781 71.773438 63.792969 71.636719 C 63.65625 71.5 63.496094 71.394531 63.320312 71.324219 C 63.140625 71.25 62.957031 71.210938 62.761719 71.210938 C 62.570312 71.210938 62.386719 71.25 62.207031 71.324219 C 62.027344 71.394531 61.871094 71.5 61.734375 71.636719 C 61.597656 71.773438 61.496094 71.929688 61.421875 72.109375 C 61.347656 72.289062 61.308594 72.472656 61.308594 72.664062 Z M 61.308594 72.664062 " fill-opacity="1" fill-rule="nonzero"/><path fill="#262a41" d="M 77.554688 89.238281 C 77.554688 89.429688 77.589844 89.613281 77.664062 89.792969 C 77.738281 89.972656 77.84375 90.128906 77.980469 90.265625 C 78.117188 90.402344 78.273438 90.507812 78.453125 90.578125 C 78.628906 90.652344 78.816406 90.691406 79.007812 90.691406 C 79.199219 90.691406 79.386719 90.652344 79.5625 90.578125 C 79.742188 90.507812 79.898438 90.402344 80.035156 90.265625 C 80.171875 90.128906 80.277344 89.972656 80.351562 89.792969 C 80.425781 89.613281 80.460938 89.429688 80.460938 89.238281 C 80.460938 89.042969 80.425781 88.859375 80.351562 88.679688 C 80.277344 88.503906 80.171875 88.34375 80.035156 88.210938 C 79.898438 88.074219 79.742188 87.96875 79.5625 87.894531 C 79.386719 87.820312 79.199219 87.785156 79.007812 87.785156 C 78.816406 87.785156 78.628906 87.820312 78.453125 87.894531 C 78.273438 87.96875 78.117188 88.074219 77.980469 88.210938 C 77.84375 88.34375 77.738281 88.503906 77.664062 88.679688 C 77.589844 88.859375 77.554688 89.042969 77.554688 89.238281 Z M 77.554688 89.238281 " fill-opacity="1" fill-rule="nonzero"/><path fill="#262a41" d="M 86.929688 80.078125 C 86.929688 80.273438 86.96875 80.457031 87.039062 80.636719 C 87.113281 80.8125 87.21875 80.96875 87.355469 81.105469 C 87.492188 81.242188 87.648438 81.347656 87.828125 81.421875 C 88.003906 81.496094 88.191406 81.53125 88.382812 81.53125 C 88.578125 81.53125 88.761719 81.496094 88.941406 81.421875 C 89.117188 81.347656 89.277344 81.242188 89.410156 81.105469 C 89.546875 80.96875 89.652344 80.8125 89.726562 80.636719 C 89.800781 80.457031 89.835938 80.273438 89.835938 80.078125 C 89.835938 79.886719 89.800781 79.699219 89.726562 79.523438 C 89.652344 79.34375 89.546875 79.1875 89.410156 79.050781 C 89.277344 78.914062 89.117188 78.808594 88.941406 78.734375 C 88.761719 78.664062 88.578125 78.625 88.382812 78.625 C 88.191406 78.625 88.003906 78.664062 87.828125 78.734375 C 87.648438 78.808594 87.492188 78.914062 87.355469 79.050781 C 87.21875 79.1875 87.113281 79.34375 87.039062 79.523438 C 86.96875 79.699219 86.929688 79.886719 86.929688 80.078125 Z M 86.929688 80.078125 " fill-opacity="1" fill-rule="nonzero"/><path fill="#262a41" d="M 103.972656 96.90625 C 103.972656 97.097656 104.011719 97.28125 104.085938 97.460938 C 104.160156 97.640625 104.261719 97.796875 104.398438 97.933594 C 104.535156 98.070312 104.695312 98.175781 104.871094 98.246094 C 105.050781 98.320312 105.234375 98.359375 105.429688 98.359375 C 105.621094 98.359375 105.804688 98.320312 105.984375 98.246094 C 106.164062 98.175781 106.320312 98.070312 106.457031 97.933594 C 106.59375 97.796875 106.695312 97.640625 106.769531 97.460938 C 106.84375 97.28125 106.882812 97.097656 106.882812 96.90625 C 106.882812 96.710938 106.84375 96.527344 106.769531 96.347656 C 106.695312 96.171875 106.59375 96.011719 106.457031 95.878906 C 106.320312 95.742188 106.164062 95.636719 105.984375 95.5625 C 105.804688 95.488281 105.621094 95.453125 105.429688 95.453125 C 105.234375 95.453125 105.050781 95.488281 104.871094 95.5625 C 104.695312 95.636719 104.535156 95.742188 104.398438 95.878906 C 104.261719 96.011719 104.160156 96.171875 104.085938 96.347656 C 104.011719 96.527344 103.972656 96.710938 103.972656 96.90625 Z M 103.972656 96.90625 " fill-opacity="1" fill-rule="nonzero"/><path fill="#262a41" d="M 116.65625 84.292969 C 116.65625 84.488281 116.695312 84.671875 116.769531 84.851562 C 116.839844 85.027344 116.945312 85.1875 117.082031 85.324219 C 117.21875 85.457031 117.375 85.5625 117.554688 85.636719 C 117.734375 85.710938 117.917969 85.75 118.109375 85.75 C 118.304688 85.75 118.488281 85.710938 118.667969 85.636719 C 118.84375 85.5625 119.003906 85.457031 119.140625 85.324219 C 119.273438 85.1875 119.378906 85.027344 119.453125 84.851562 C 119.527344 84.671875 119.566406 84.488281 119.566406 84.292969 C 119.566406 84.101562 119.527344 83.917969 119.453125 83.738281 C 119.378906 83.558594 119.273438 83.402344 119.140625 83.265625 C 119.003906 83.128906 118.84375 83.023438 118.667969 82.953125 C 118.488281 82.878906 118.304688 82.839844 118.109375 82.839844 C 117.917969 82.839844 117.734375 82.878906 117.554688 82.953125 C 117.375 83.023438 117.21875 83.128906 117.082031 83.265625 C 116.945312 83.402344 116.839844 83.558594 116.769531 83.738281 C 116.695312 83.917969 116.65625 84.101562 116.65625 84.292969 Z M 116.65625 84.292969 " fill-opacity="1" fill-rule="nonzero"/><path fill="#262a41" d="M 130.9375 83.605469 C 130.9375 83.796875 130.976562 83.980469 131.050781 84.160156 C 131.125 84.339844 131.230469 84.496094 131.363281 84.632812 C 131.5 84.769531 131.660156 84.875 131.835938 84.945312 C 132.015625 85.019531 132.199219 85.058594 132.394531 85.058594 C 132.585938 85.058594 132.769531 85.019531 132.949219 84.945312 C 133.128906 84.875 133.285156 84.769531 133.421875 84.632812 C 133.558594 84.496094 133.660156 84.339844 133.734375 84.160156 C 133.808594 83.980469 133.847656 83.796875 133.847656 83.605469 C 133.847656 83.410156 133.808594 83.226562 133.734375 83.046875 C 133.660156 82.871094 133.558594 82.710938 133.421875 82.574219 C 133.285156 82.441406 133.128906 82.335938 132.949219 82.261719 C 132.769531 82.1875 132.585938 82.152344 132.394531 82.152344 C 132.199219 82.152344 132.015625 82.1875 131.835938 82.261719 C 131.660156 82.335938 131.5 82.441406 131.363281 82.574219 C 131.230469 82.710938 131.125 82.871094 131.050781 83.046875 C 130.976562 83.226562 130.9375 83.410156 130.9375 83.605469 Z M 130.9375 83.605469 " fill-opacity="1" fill-rule="nonzero"/><path fill="#262a41" d="M 142.894531 95.488281 C 142.894531 95.679688 142.933594 95.867188 143.007812 96.042969 C 143.078125 96.222656 143.183594 96.378906 143.320312 96.515625 C 143.457031 96.652344 143.613281 96.757812 143.792969 96.832031 C 143.972656 96.90625 144.15625 96.941406 144.347656 96.941406 C 144.542969 96.941406 144.726562 96.90625 144.90625 96.832031 C 145.082031 96.757812 145.242188 96.652344 145.375 96.515625 C 145.511719 96.378906 145.617188 96.222656 145.691406 96.042969 C 145.765625 95.867188 145.800781 95.679688 145.800781 95.488281 C 145.800781 95.292969 145.765625 95.109375 145.691406 94.929688 C 145.617188 94.753906 145.511719 94.597656 145.375 94.460938 C 145.242188 94.324219 145.082031 94.21875 144.90625 94.144531 C 144.726562 94.070312 144.542969 94.035156 144.347656 94.035156 C 144.15625 94.035156 143.972656 94.070312 143.792969 94.144531 C 143.613281 94.21875 143.457031 94.324219 143.320312 94.460938 C 143.183594 94.597656 143.078125 94.753906 143.007812 94.929688 C 142.933594 95.109375 142.894531 95.292969 142.894531 95.488281 Z M 142.894531 95.488281 " fill-opacity="1" fill-rule="nonzero"/><path fill="#262a41" d="M 123.488281 90.21875 C 123.488281 90.410156 123.527344 90.597656 123.601562 90.773438 C 123.671875 90.953125 123.777344 91.109375 123.914062 91.246094 C 124.050781 91.382812 124.207031 91.488281 124.386719 91.5625 C 124.566406 91.636719 124.75 91.671875 124.941406 91.671875 C 125.136719 91.671875 125.320312 91.636719 125.5 91.5625 C 125.675781 91.488281 125.835938 91.382812 125.972656 91.246094 C 126.105469 91.109375 126.210938 90.953125 126.285156 90.773438 C 126.359375 90.597656 126.398438 90.410156 126.398438 90.21875 C 126.398438 90.023438 126.359375 89.839844 126.285156 89.660156 C 126.210938 89.484375 126.105469 89.328125 125.972656 89.191406 C 125.835938 89.054688 125.675781 88.949219 125.5 88.875 C 125.320312 88.800781 125.136719 88.765625 124.941406 88.765625 C 124.75 88.765625 124.566406 88.800781 124.386719 88.875 C 124.207031 88.949219 124.050781 89.054688 123.914062 89.191406 C 123.777344 89.328125 123.671875 89.484375 123.601562 89.660156 C 123.527344 89.839844 123.488281 90.023438 123.488281 90.21875 Z M 123.488281 90.21875 " fill-opacity="1" fill-rule="nonzero"/><path fill="#d4def9" d="M 131.992188 108.96875 L 126.398438 108.96875 L 126.398438 113.332031 L 131.992188 113.332031 Z M 131.992188 108.96875 " fill-opacity="1" fill-rule="nonzero"/><path fill="#d4def9" d="M 123.453125 107.082031 L 117.855469 107.082031 L 117.855469 113.332031 L 123.453125 113.332031 Z M 123.453125 107.082031 " fill-opacity="1" fill-rule="nonzero"/><path fill="#d4def9" d="M 149.074219 108.96875 L 143.476562 108.96875 L 143.476562 113.332031 L 149.074219 113.332031 Z M 149.074219 108.96875 " fill-opacity="1" fill-rule="nonzero"/><path fill="#d4def9" d="M 140.535156 107.082031 L 134.9375 107.082031 L 134.9375 113.332031 L 140.535156 113.332031 Z M 140.535156 107.082031 " fill-opacity="1" fill-rule="nonzero"/><path fill="#d4def9" d="M 114.914062 103.226562 L 109.316406 103.226562 L 109.316406 113.332031 L 114.914062 113.332031 Z M 114.914062 103.226562 " fill-opacity="1" fill-rule="nonzero"/><path fill="#d4def9" d="M 106.371094 104.5 L 100.777344 104.5 L 100.777344 113.292969 L 106.371094 113.292969 Z M 106.371094 104.5 " fill-opacity="1" fill-rule="nonzero"/><path fill="#d4def9" d="M 97.832031 100.757812 L 92.234375 100.757812 L 92.234375 113.332031 L 97.832031 113.332031 Z M 97.832031 100.757812 " fill-opacity="1" fill-rule="nonzero"/><path fill="#d4def9" d="M 89.292969 98.394531 L 83.695312 98.394531 L 83.695312 113.332031 L 89.292969 113.332031 Z M 89.292969 98.394531 " fill-opacity="1" fill-rule="nonzero"/><path fill="#d4def9" d="M 80.714844 104.5 L 75.121094 104.5 L 75.121094 113.292969 L 80.714844 113.292969 Z M 80.714844 104.5 " fill-opacity="1" fill-rule="nonzero"/><path fill="#d4def9" d="M 72.175781 100.757812 L 66.578125 100.757812 L 66.578125 113.332031 L 72.175781 113.332031 Z M 72.175781 100.757812 " fill-opacity="1" fill-rule="nonzero"/><path fill="#d4def9" d="M 63.636719 98.394531 L 58.039062 98.394531 L 58.039062 113.332031 L 63.636719 113.332031 Z M 63.636719 98.394531 " fill-opacity="1" fill-rule="nonzero"/><path fill="#1c74bc" d="M 145.949219 67.6875 L 118.148438 67.6875 L 118.148438 68.886719 L 145.949219 68.886719 Z M 145.949219 67.6875 " fill-opacity="1" fill-rule="nonzero"/><path fill="#1c74bc" d="M 145.949219 71.101562 L 132.71875 71.101562 L 132.71875 72.300781 L 145.949219 72.300781 Z M 145.949219 71.101562 " fill-opacity="1" fill-rule="nonzero"/><path fill="#ffffff" d="M 80.171875 36.761719 L 41.578125 36.761719 L 41.578125 76.625 L 80.171875 76.625 Z M 80.171875 36.761719 " fill-opacity="1" fill-rule="nonzero"/><path fill="#262a41" d="M 41.394531 76.773438 L 80.351562 76.773438 L 80.351562 36.578125 L 41.394531 36.578125 Z M 79.988281 76.410156 L 41.757812 76.410156 L 41.757812 36.941406 L 79.988281 36.941406 Z M 79.988281 76.410156 " fill-opacity="1" fill-rule="nonzero"/><path fill="#d4def9" d="M 60.875 41.992188 L 60.875 47.007812 C 64.324219 47.007812 67.160156 49.808594 67.160156 53.296875 L 72.175781 53.296875 C 72.175781 47.046875 67.125 41.992188 60.875 41.992188 Z M 60.875 41.992188 " fill-opacity="1" fill-rule="nonzero"/><path fill="#1c74bc" d="M 52.914062 61.289062 C 54.949219 63.324219 57.785156 64.5625 60.875 64.5625 C 67.125 64.5625 72.175781 59.511719 72.175781 53.257812 L 67.160156 53.257812 C 67.160156 56.710938 64.363281 59.546875 60.875 59.546875 C 59.164062 59.546875 57.601562 58.855469 56.476562 57.730469 Z M 52.914062 61.289062 " fill-opacity="1" fill-rule="nonzero"/><path fill="#1c74bc" d="M 49.570312 53.296875 C 49.570312 56.421875 50.84375 59.253906 52.914062 61.289062 L 56.476562 57.730469 C 55.3125 56.601562 54.621094 55.003906 54.621094 53.257812 C 54.621094 49.808594 57.421875 46.972656 60.910156 46.972656 L 60.910156 41.957031 C 54.621094 41.992188 49.570312 47.046875 49.570312 53.296875 Z M 49.570312 53.296875 " fill-opacity="1" fill-rule="nonzero"/><path fill="#d4def9" d="M 72.464844 67.179688 L 49.316406 67.179688 L 49.316406 67.976562 L 72.464844 67.976562 Z M 72.464844 67.179688 " fill-opacity="1" fill-rule="nonzero"/><path fill="#d4def9" d="M 72.464844 70.59375 L 49.316406 70.59375 L 49.316406 71.394531 L 72.464844 71.394531 Z M 72.464844 70.59375 " fill-opacity="1" fill-rule="nonzero"/><path fill="#262a41" d="M 167.605469 147.238281 L 11.304688 147.238281 L 11.304688 148.292969 L 167.605469 148.292969 Z M 167.605469 147.238281 " fill-opacity="1" fill-rule="nonzero"/><path fill="#1c74bc" d="M 165.863281 76.371094 L 138.242188 76.371094 L 138.242188 97.488281 L 165.863281 97.488281 Z M 165.863281 76.371094 " fill-opacity="1" fill-rule="nonzero"/><path fill="#ffffff" d="M 153.214844 88.4375 L 150.890625 88.4375 L 150.890625 92.253906 L 153.214844 92.253906 Z M 153.214844 88.4375 " fill-opacity="1" fill-rule="nonzero"/><path fill="#262a41" d="M 148.890625 84.148438 L 146.566406 84.148438 L 146.566406 92.21875 L 148.890625 92.21875 Z M 148.890625 84.148438 " fill-opacity="1" fill-rule="nonzero"/><path fill="#ffffff" d="M 161.828125 90.144531 L 159.503906 90.144531 L 159.503906 92.21875 L 161.828125 92.21875 Z M 161.828125 90.144531 " fill-opacity="1" fill-rule="nonzero"/><path fill="#262a41" d="M 157.539062 86.765625 L 155.214844 86.765625 L 155.214844 92.21875 L 157.539062 92.21875 Z M 157.539062 86.765625 " fill-opacity="1" fill-rule="nonzero"/><path fill="#ffffff" d="M 144.601562 81.640625 L 142.277344 81.640625 L 142.277344 92.253906 L 144.601562 92.253906 Z M 144.601562 81.640625 " fill-opacity="1" fill-rule="nonzero"/><path fill="#ffffff" d="M 90.636719 129.320312 L 110.332031 129.320312 C 110.589844 129.320312 110.804688 129.101562 110.804688 128.847656 C 110.804688 128.59375 110.589844 128.375 110.332031 128.375 L 90.601562 128.375 C 90.347656 128.375 90.128906 128.59375 90.128906 128.847656 C 90.128906 129.101562 90.347656 129.320312 90.636719 129.320312 Z M 90.636719 129.320312 " fill-opacity="1" fill-rule="nonzero"/><path fill="#1c74bc" d="M 102.664062 129.320312 L 110.332031 129.320312 C 110.589844 129.320312 110.804688 129.101562 110.804688 128.847656 C 110.804688 128.59375 110.589844 128.375 110.332031 128.375 L 102.664062 128.375 C 102.410156 128.375 102.195312 128.59375 102.195312 128.847656 C 102.195312 129.101562 102.410156 129.320312 102.664062 129.320312 Z M 102.664062 129.320312 " fill-opacity="1" fill-rule="nonzero"/><path fill="#ffffff" d="M 90.636719 132.882812 L 110.332031 132.882812 C 110.589844 132.882812 110.804688 132.664062 110.804688 132.410156 C 110.804688 132.15625 110.589844 131.9375 110.332031 131.9375 L 90.601562 131.9375 C 90.347656 131.9375 90.128906 132.15625 90.128906 132.410156 C 90.128906 132.664062 90.347656 132.882812 90.636719 132.882812 Z M 90.636719 132.882812 " fill-opacity="1" fill-rule="nonzero"/><path fill="#1c74bc" d="M 99.394531 132.882812 L 110.332031 132.882812 C 110.589844 132.882812 110.804688 132.664062 110.804688 132.410156 C 110.804688 132.15625 110.589844 131.9375 110.332031 131.9375 L 99.359375 131.9375 C 99.105469 131.9375 98.886719 132.15625 98.886719 132.410156 C 98.886719 132.664062 99.105469 132.882812 99.394531 132.882812 Z M 99.394531 132.882812 " fill-opacity="1" fill-rule="nonzero"/><path fill="#ffffff" d="M 90.636719 136.445312 L 110.332031 136.445312 C 110.589844 136.445312 110.804688 136.226562 110.804688 135.972656 C 110.804688 135.71875 110.589844 135.5 110.332031 135.5 L 90.601562 135.5 C 90.347656 135.5 90.128906 135.71875 90.128906 135.972656 C 90.128906 136.226562 90.347656 136.445312 90.636719 136.445312 Z M 90.636719 136.445312 " fill-opacity="1" fill-rule="nonzero"/><path fill="#262a41" d="M 94.742188 136.445312 L 110.371094 136.445312 C 110.625 136.445312 110.84375 136.226562 110.84375 135.972656 C 110.84375 135.71875 110.625 135.5 110.371094 135.5 L 94.742188 135.5 C 94.488281 135.5 94.269531 135.71875 94.269531 135.972656 C 94.234375 136.226562 94.453125 136.445312 94.742188 136.445312 Z M 94.742188 136.445312 " fill-opacity="1" fill-rule="nonzero"/><path fill="#ffffff" d="M 14.175781 67.796875 C 14.394531 68.449219 14.71875 69.066406 15.15625 69.613281 C 15.449219 70.011719 15.8125 70.339844 16.246094 70.667969 C 16.972656 71.210938 17.773438 71.539062 18.609375 71.71875 L 18.863281 70.414062 C 17.265625 70.085938 15.957031 68.921875 15.484375 67.394531 Z M 14.175781 67.796875 " fill-opacity="1" fill-rule="nonzero"/><path fill="#1c74bc" d="M 14.175781 67.796875 L 15.449219 67.359375 C 15.300781 66.921875 15.230469 66.449219 15.230469 65.980469 C 15.230469 63.726562 16.902344 61.835938 19.082031 61.546875 L 18.898438 60.199219 C 18.246094 60.308594 17.628906 60.492188 17.011719 60.816406 C 16.28125 61.21875 15.59375 61.761719 15.046875 62.488281 C 13.847656 64.050781 13.59375 66.050781 14.175781 67.796875 Z M 14.175781 67.796875 " fill-opacity="1" fill-rule="nonzero"/><path fill="#1c74bc" d="M 18.609375 71.683594 C 20.753906 72.082031 23.007812 71.320312 24.421875 69.429688 C 26.351562 66.851562 25.804688 63.179688 23.222656 61.253906 C 21.953125 60.273438 20.351562 59.945312 18.898438 60.164062 L 19.082031 61.507812 C 19.300781 61.472656 19.515625 61.472656 19.734375 61.472656 C 22.207031 61.472656 24.207031 63.472656 24.207031 65.941406 C 24.207031 68.414062 22.207031 70.414062 19.734375 70.414062 C 19.445312 70.414062 19.152344 70.375 18.863281 70.339844 Z M 18.609375 71.683594 " fill-opacity="1" fill-rule="nonzero"/><path fill="#ffffff" d="M 19.082031 81.386719 C 19.191406 81.714844 19.371094 82.042969 19.589844 82.296875 C 19.734375 82.476562 19.917969 82.660156 20.136719 82.839844 C 20.5 83.132812 20.898438 83.277344 21.335938 83.386719 L 21.480469 82.730469 C 20.679688 82.585938 19.988281 81.96875 19.773438 81.207031 Z M 19.082031 81.386719 " fill-opacity="1" fill-rule="nonzero"/><path fill="#1c74bc" d="M 19.082031 81.386719 L 19.734375 81.167969 C 19.664062 80.949219 19.625 80.695312 19.625 80.441406 C 19.625 79.28125 20.460938 78.335938 21.589844 78.1875 L 21.480469 77.5 C 21.152344 77.535156 20.824219 77.644531 20.535156 77.824219 C 20.171875 78.007812 19.808594 78.296875 19.554688 78.660156 C 18.9375 79.496094 18.789062 80.515625 19.082031 81.386719 Z M 19.082031 81.386719 " fill-opacity="1" fill-rule="nonzero"/><path fill="#1c74bc" d="M 21.335938 83.386719 C 22.425781 83.605469 23.585938 83.203125 24.277344 82.257812 C 25.257812 80.949219 25.003906 79.097656 23.660156 78.117188 C 23.007812 77.644531 22.207031 77.460938 21.445312 77.570312 L 21.550781 78.261719 C 21.660156 78.261719 21.769531 78.226562 21.878906 78.226562 C 23.152344 78.226562 24.167969 79.242188 24.167969 80.515625 C 24.167969 81.785156 23.152344 82.804688 21.878906 82.804688 C 21.734375 82.804688 21.589844 82.804688 21.445312 82.769531 Z M 21.335938 83.386719 " fill-opacity="1" fill-rule="nonzero"/><path fill="#f4a9a2" d="M 52.660156 103.011719 C 60.292969 103.300781 73.921875 142.511719 68.613281 143.277344 C 61.417969 148.253906 40.269531 105.007812 52.660156 103.011719 Z M 52.660156 103.011719 " fill-opacity="1" fill-rule="nonzero"/><path fill="#f4a9a2" d="M 65.34375 143.167969 C 66.398438 143.75 67.742188 143.640625 68.796875 143.023438 C 77.046875 138.152344 95.6875 106.570312 92.925781 106.171875 C 91.253906 105.191406 57.277344 138.734375 65.34375 143.167969 Z M 65.34375 143.167969 " fill-opacity="1" fill-rule="nonzero"/><path fill="#f4a9a2" d="M 86.457031 110.132812 L 68.433594 129.285156 L 65.890625 123.6875 L 55.859375 130.882812 C 55.859375 130.882812 61.671875 143.238281 67.125 144.113281 C 72.574219 144.984375 91.835938 111.839844 91.835938 111.839844 Z M 86.457031 110.132812 " fill-opacity="1" fill-rule="nonzero"/><path fill="#f4a9a2" d="M 87.074219 110.789062 C 87.074219 110.789062 86.457031 111.152344 86.457031 111.152344 L 86.203125 109.515625 L 85.914062 106.644531 C 85.839844 105.917969 85.949219 105.15625 86.238281 104.5 L 88.164062 101.847656 C 88.164062 101.847656 89.148438 101.664062 88.457031 103.410156 C 88.273438 103.847656 88.421875 104.609375 88.566406 105.226562 L 89.472656 103.628906 C 89.472656 103.628906 91.582031 100.066406 91.582031 100.066406 C 91.910156 99.59375 92.855469 100.03125 93.21875 100.210938 C 93.980469 100.574219 94.488281 100.9375 94.707031 101.738281 C 94.816406 102.210938 94.960938 102.683594 95.035156 103.15625 C 95.214844 104.535156 94.960938 105.917969 94.527344 107.226562 C 94.160156 108.28125 93.691406 109.296875 93.109375 110.242188 C 92.5625 111.152344 91.835938 111.878906 91.253906 112.75 C 90.5625 112.386719 89.875 112.09375 89.148438 111.730469 C 88.675781 111.515625 88.203125 111.296875 87.730469 111.042969 C 87.621094 111.042969 87.113281 110.75 87.074219 110.789062 Z M 87.074219 110.789062 " fill-opacity="1" fill-rule="nonzero"/><path fill="#d4def9" d="M 97.433594 92.289062 C 101.9375 94.941406 107.570312 94.070312 111.0625 90.472656 C 111.570312 89.964844 112.003906 89.382812 112.40625 88.765625 C 112.515625 88.617188 112.625 88.4375 112.695312 88.292969 C 112.878906 87.964844 113.058594 87.675781 113.203125 87.347656 C 113.929688 85.785156 114.257812 84.148438 114.257812 82.550781 C 114.222656 78.769531 112.261719 75.0625 108.734375 73.027344 C 105.171875 70.957031 100.957031 71.03125 97.613281 72.917969 C 96.195312 73.71875 94.925781 74.808594 93.945312 76.226562 C 93.761719 76.480469 93.582031 76.734375 93.433594 77.027344 C 93.328125 77.246094 93.21875 77.425781 93.109375 77.644531 C 92.78125 78.296875 92.527344 78.988281 92.308594 79.679688 C 91 84.367188 92.960938 89.636719 97.433594 92.289062 Z M 97.433594 92.289062 " fill-opacity="1" fill-rule="nonzero"/><path fill="#262a41" d="M 91.292969 75.683594 C 95.144531 69.140625 103.539062 66.960938 110.078125 70.8125 C 116.621094 74.664062 118.800781 83.058594 114.949219 89.601562 C 111.386719 95.667969 103.828125 97.996094 97.542969 95.160156 C 97.070312 94.941406 96.632812 94.722656 96.160156 94.46875 C 95.726562 94.214844 95.289062 93.925781 94.890625 93.597656 C 89.328125 89.492188 87.695312 81.785156 91.292969 75.683594 Z M 113.386719 88.691406 C 116.730469 82.984375 114.839844 75.683594 109.132812 72.339844 C 103.429688 68.996094 96.125 70.882812 92.78125 76.589844 C 89.4375 82.296875 91.328125 89.601562 97.03125 92.945312 C 102.738281 96.285156 110.042969 94.398438 113.386719 88.691406 Z M 113.386719 88.691406 " fill-opacity="1" fill-rule="nonzero"/><path fill="#262a41" d="M 97.511719 94.957031 L 95.070312 93.519531 L 85.859375 109.183594 L 88.300781 110.621094 Z M 97.511719 94.957031 " fill-opacity="1" fill-rule="nonzero"/><path fill="#262a41" d="M 81.734375 116.054688 L 84.277344 117.546875 C 84.566406 117.726562 84.929688 117.621094 85.113281 117.328125 L 93.617188 102.863281 C 93.796875 102.574219 93.691406 102.210938 93.398438 102.027344 L 90.855469 100.539062 C 90.5625 100.355469 90.199219 100.464844 90.019531 100.757812 L 81.515625 115.222656 C 81.371094 115.511719 81.441406 115.910156 81.734375 116.054688 Z M 81.734375 116.054688 " fill-opacity="1" fill-rule="nonzero"/><g mask="url(#a2298e6366)"><g transform="matrix(1, 0, 0, 1, 93, 72)"><g clip-path="url(#cb84a9e5ab)"><g clip-path="url(#786024ce52)"><path fill="#ffffff" d="M 0.980469 4.191406 L 20.242188 15.347656 C 20.96875 13.785156 21.296875 12.148438 21.296875 10.550781 L 4.652344 0.882812 C 3.195312 1.683594 1.960938 2.808594 0.980469 4.191406 Z M 0.980469 4.191406 " fill-opacity="1" fill-rule="nonzero"/></g></g></g></g><g mask="url(#35b068cae9)"><g transform="matrix(1, 0, 0, 1, 92, 77)"><g clip-path="url(#2a2ce655e9)"><g clip-path="url(#c7e8a6a931)"><path fill="#ffffff" d="M 0.34375 2.605469 L 19.0625 13.472656 C 19.570312 12.964844 20.003906 12.382812 20.40625 11.765625 L 1.109375 0.570312 C 0.78125 1.261719 0.527344 1.917969 0.34375 2.605469 Z M 0.34375 2.605469 " fill-opacity="1" fill-rule="nonzero"/></g></g></g></g><path fill="#1c74bc" d="M 52.042969 101.484375 L 52.117188 111.113281 L 52.261719 130.121094 C 52.261719 130.121094 52.40625 130.375 52.695312 130.8125 C 52.769531 130.921875 52.84375 131.027344 52.914062 131.175781 C 53.167969 131.574219 53.460938 132.046875 53.824219 132.628906 L 58.113281 129.722656 L 59.710938 128.667969 L 66.289062 124.195312 C 64.179688 118.78125 62.035156 113.550781 60.472656 110.714844 C 56.402344 103.121094 52.042969 101.484375 52.042969 101.484375 Z M 52.042969 101.484375 " fill-opacity="1" fill-rule="nonzero"/><path fill="#f4a9a2" d="M 32.855469 102.753906 L 39.140625 107.480469 L 43.613281 103.484375 L 43.613281 97.449219 L 34.671875 90.472656 L 34.488281 91.527344 L 34.054688 94.722656 Z M 32.855469 102.753906 " fill-opacity="1" fill-rule="nonzero"/><path fill="#262a41" d="M 34.382812 92.617188 C 36.816406 97.488281 42.484375 99.886719 43.613281 100.210938 L 43.613281 98.941406 L 35.289062 91.5625 C 35.289062 91.5625 34.960938 91.527344 34.527344 91.527344 Z M 34.382812 92.617188 " fill-opacity="1" fill-rule="nonzero"/><path fill="#f4a9a2" d="M 33.910156 91.707031 C 33.910156 91.707031 35.582031 95.414062 39.433594 97.269531 C 41.25 98.140625 43.285156 99.339844 45.390625 98.941406 C 47.246094 98.578125 48.226562 96.757812 48.988281 95.234375 C 49.753906 93.742188 50.117188 92.070312 50.117188 90.398438 C 50.117188 88.617188 50.007812 86.875 50.40625 85.09375 C 50.699219 83.714844 51.171875 81.96875 50.335938 80.660156 C 49.246094 78.988281 40.8125 76.882812 40.8125 76.882812 L 35.835938 79.605469 L 32.089844 82.078125 Z M 33.910156 91.707031 " fill-opacity="1" fill-rule="nonzero"/><path fill="#262a41" d="M 45.246094 80.914062 C 45.246094 80.914062 44.992188 82.296875 43.574219 82.878906 C 43.574219 82.878906 46.265625 83.203125 47.898438 81.96875 C 47.898438 81.96875 47.136719 83.132812 46.484375 83.351562 C 46.484375 83.351562 49.863281 83.496094 50.953125 82.257812 L 50.554688 84.402344 C 50.554688 84.402344 52.515625 82.441406 52.480469 80.042969 C 52.441406 78.335938 51.679688 76.808594 51.171875 75.210938 C 50.84375 74.15625 50.335938 72.992188 49.316406 72.449219 C 46.628906 70.992188 43.320312 71.25 40.449219 71.976562 C 38.160156 72.554688 35.796875 73.355469 33.945312 74.882812 C 29.074219 78.953125 30.929688 87.929688 34.234375 92.433594 C 34.234375 92.433594 34.636719 88.328125 34.707031 87.054688 C 34.78125 85.785156 35.90625 85.457031 35.871094 86.074219 C 35.835938 86.691406 35.945312 89.636719 36.5625 89.636719 C 37.214844 89.601562 37.433594 84.402344 38.960938 83.3125 C 40.558594 82.257812 44.011719 81.933594 45.246094 80.914062 Z M 45.246094 80.914062 " fill-opacity="1" fill-rule="nonzero"/><path fill="#1c74bc" d="M 13.847656 145.566406 L 55.605469 145.566406 C 56.65625 132.554688 58.074219 112.277344 56.914062 108.0625 C 55.605469 103.226562 53.023438 101.265625 49.0625 100.394531 C 47.863281 100.140625 45.066406 99.847656 43.613281 99.738281 C 42.375 106.390625 33.253906 99.886719 33.253906 99.886719 C 33.253906 99.886719 31.074219 100.101562 29.476562 100.210938 C 25.769531 100.429688 19.410156 101.628906 18.136719 107.152344 C 17.519531 109.804688 16.792969 116.746094 15.992188 124.597656 C 15.554688 129.03125 15.121094 133.753906 14.648438 138.152344 C 14.355469 140.730469 14.101562 143.277344 13.847656 145.566406 Z M 13.847656 145.566406 " fill-opacity="1" fill-rule="nonzero"/><path fill="#ffffff" d="M 43.613281 99.085938 L 41.757812 102.429688 L 43.683594 103.917969 L 45.210938 99.847656 " fill-opacity="1" fill-rule="nonzero"/><path fill="#ffffff" d="M 41.757812 102.429688 L 33.507812 98.066406 L 31.835938 100.140625 L 40.558594 104.753906 Z M 41.757812 102.429688 " fill-opacity="1" fill-rule="nonzero"/><path fill="#f4a9a2" d="M 23.40625 104.609375 C 28.492188 110.316406 9.816406 147.382812 5.5625 144.074219 C -3.015625 142.402344 13.375 97.121094 23.40625 104.609375 Z M 23.40625 104.609375 " fill-opacity="1" fill-rule="nonzero"/><path fill="#f4a9a2" d="M 6.6875 123.542969 C 6.6875 123.542969 0.546875 139.023438 3.164062 142.441406 C 5.816406 145.894531 31.21875 147.855469 31.21875 147.855469 L 32.308594 140.878906 C 32.308594 140.878906 14.648438 136.554688 14.613281 136.261719 C 14.574219 136.007812 18.898438 128.375 18.898438 128.375 Z M 6.6875 123.542969 " fill-opacity="1" fill-rule="nonzero"/><path fill="#f4a9a2" d="M 2.65625 140.695312 C 2.65625 141.929688 3.417969 143.023438 4.472656 143.640625 C 12.757812 148.398438 49.460938 149.019531 48.410156 146.4375 C 48.480469 144.476562 2.546875 131.5 2.65625 140.695312 Z M 2.65625 140.695312 " fill-opacity="1" fill-rule="nonzero"/><path fill="#1c74bc" d="M 19.191406 129.359375 C 21.808594 124.597656 25.078125 118.308594 25.949219 115.183594 C 25.949219 115.183594 31.691406 103.410156 27.402344 101.484375 C 26.820312 101.230469 25.621094 100.792969 25.042969 100.9375 C 20.679688 101.992188 16.136719 105.15625 13.050781 109.589844 C 11.015625 112.53125 8.289062 117.945312 6.035156 123.617188 Z M 19.191406 129.359375 " fill-opacity="1" fill-rule="nonzero"/><g clip-path="url(#320708d279)"><path fill="#f4a9a2" d="M 58.328125 149.382812 C 58.257812 149.199219 55.351562 143.277344 52.042969 142.730469 C 48.734375 142.1875 44.230469 143.820312 43.613281 143.820312 C 42.992188 143.820312 41.613281 143.710938 41.613281 143.710938 L 40.632812 147.636719 C 40.632812 147.636719 43.210938 147.601562 43.574219 148.035156 C 43.9375 148.472656 44.085938 149.089844 45.464844 149.089844 C 46.847656 149.089844 48.226562 147.820312 49.933594 147.820312 C 51.605469 147.820312 52.84375 149.78125 54.332031 149.78125 C 55.824219 149.78125 58.328125 149.382812 58.328125 149.382812 Z M 58.328125 149.382812 " fill-opacity="1" fill-rule="nonzero"/></g><path fill="#262a41" d="M 56.960938 117.371094 L 56.597656 117.367188 L 56.492188 130.414062 L 56.859375 130.417969 Z M 56.960938 117.371094 " fill-opacity="1" fill-rule="nonzero"/><path fill="#262a41" d="M 25.234375 118.292969 L 24.914062 118.125 L 19.015625 129.269531 L 19.335938 129.441406 Z M 25.234375 118.292969 " fill-opacity="1" fill-rule="nonzero"/></svg>